<svg width="89" height="24" viewBox="0 0 89 24" fill="none" xmlns="http://www.w3.org/2000/svg">
<rect width="89" height="24" rx="12" fill="#E4F8EA"/>
<path d="M17.6276 16.7001L18.6409 17.7134L20.6676 15.6868" stroke="#00B444" stroke-linecap="round" stroke-linejoin="round"/>
<path d="M16.1058 11.2466C16.0391 11.2399 15.9591 11.2399 15.8858 11.2466C14.2991 11.1933 13.0391 9.89325 13.0391 8.29325C13.0324 6.65992 14.3591 5.33325 15.9924 5.33325C17.6258 5.33325 18.9524 6.65992 18.9524 8.29325C18.9524 9.89325 17.6858 11.1933 16.1058 11.2466Z" stroke="#00B444" stroke-linecap="round" stroke-linejoin="round"/>
<path d="M15.9927 18.5397C14.7794 18.5397 13.5727 18.233 12.6527 17.6197C11.0394 16.5397 11.0394 14.7797 12.6527 13.7064C14.4861 12.4797 17.4927 12.4797 19.3261 13.7064" stroke="#00B444" stroke-linecap="round" stroke-linejoin="round"/>
<path d="M34.8495 17L33.7948 14.2812H30.3612L29.3124 17H28.3046L31.6562 8.39844H32.5527L35.8808 17H34.8495ZM33.496 13.3965L32.4941 10.6953C32.4706 10.625 32.4316 10.5098 32.3769 10.3496C32.3261 10.1895 32.2734 10.0234 32.2187 9.85156C32.164 9.67969 32.1191 9.54102 32.0839 9.43555C32.0448 9.5957 32.0019 9.75586 31.955 9.91602C31.912 10.0723 31.8691 10.2188 31.8261 10.3555C31.7831 10.4883 31.746 10.6016 31.7148 10.6953L30.6952 13.3965H33.496ZM39.616 17.1172C39.0379 17.1172 38.5281 16.998 38.0867 16.7598C37.6453 16.5215 37.3016 16.1582 37.0555 15.6699C36.8094 15.1816 36.6863 14.5664 36.6863 13.8242C36.6863 13.0469 36.8152 12.4121 37.073 11.9199C37.3348 11.4238 37.6941 11.0566 38.1512 10.8184C38.6082 10.5801 39.1277 10.4609 39.7098 10.4609C40.0301 10.4609 40.3387 10.4941 40.6355 10.5605C40.9363 10.623 41.1824 10.7031 41.3738 10.8008L41.0809 11.6152C40.8855 11.5371 40.659 11.4668 40.4012 11.4043C40.1473 11.3418 39.909 11.3105 39.6863 11.3105C39.241 11.3105 38.8699 11.4062 38.573 11.5977C38.2801 11.7891 38.0594 12.0703 37.9109 12.4414C37.7664 12.8125 37.6941 13.2695 37.6941 13.8125C37.6941 14.332 37.7645 14.7754 37.9051 15.1426C38.0496 15.5098 38.2625 15.791 38.5437 15.9863C38.8289 16.1777 39.1844 16.2734 39.6102 16.2734C39.95 16.2734 40.2566 16.2383 40.5301 16.168C40.8035 16.0938 41.0516 16.0078 41.2742 15.9102V16.7773C41.0594 16.8867 40.8191 16.9707 40.5535 17.0293C40.2918 17.0879 39.9793 17.1172 39.616 17.1172ZM45.4899 17.1172C44.9118 17.1172 44.402 16.998 43.9606 16.7598C43.5192 16.5215 43.1755 16.1582 42.9294 15.6699C42.6833 15.1816 42.5602 14.5664 42.5602 13.8242C42.5602 13.0469 42.6891 12.4121 42.947 11.9199C43.2087 11.4238 43.568 11.0566 44.0251 10.8184C44.4821 10.5801 45.0016 10.4609 45.5837 10.4609C45.904 10.4609 46.2126 10.4941 46.5095 10.5605C46.8102 10.623 47.0563 10.7031 47.2477 10.8008L46.9548 11.6152C46.7595 11.5371 46.5329 11.4668 46.2751 11.4043C46.0212 11.3418 45.7829 11.3105 45.5602 11.3105C45.1149 11.3105 44.7438 11.4062 44.447 11.5977C44.154 11.7891 43.9333 12.0703 43.7848 12.4414C43.6403 12.8125 43.568 13.2695 43.568 13.8125C43.568 14.332 43.6384 14.7754 43.779 15.1426C43.9235 15.5098 44.1364 15.791 44.4177 15.9863C44.7028 16.1777 45.0583 16.2734 45.4841 16.2734C45.8239 16.2734 46.1305 16.2383 46.404 16.168C46.6774 16.0938 46.9255 16.0078 47.1481 15.9102V16.7773C46.9333 16.8867 46.693 16.9707 46.4274 17.0293C46.1657 17.0879 45.8532 17.1172 45.4899 17.1172ZM51.2642 10.4609C51.8111 10.4609 52.2798 10.582 52.6705 10.8242C53.0611 11.0664 53.3599 11.4062 53.567 11.8438C53.774 12.2773 53.8775 12.7852 53.8775 13.3672V13.9707H49.442C49.4537 14.7246 49.6412 15.2988 50.0045 15.6934C50.3677 16.0879 50.8795 16.2852 51.5396 16.2852C51.9459 16.2852 52.3052 16.248 52.6177 16.1738C52.9302 16.0996 53.2545 15.9902 53.5904 15.8457V16.7012C53.2662 16.8457 52.9439 16.9512 52.6236 17.0176C52.3072 17.084 51.9322 17.1172 51.4986 17.1172C50.8814 17.1172 50.3423 16.9922 49.8814 16.7422C49.4244 16.4883 49.0689 16.1172 48.815 15.6289C48.5611 15.1406 48.4341 14.543 48.4341 13.8359C48.4341 13.1445 48.5494 12.5469 48.7798 12.043C49.0142 11.5352 49.3423 11.1445 49.7642 10.8711C50.19 10.5977 50.69 10.4609 51.2642 10.4609ZM51.2525 11.2578C50.733 11.2578 50.3189 11.4277 50.0103 11.7676C49.7017 12.1074 49.5181 12.582 49.4595 13.1914H52.858C52.8541 12.8086 52.7935 12.4727 52.6763 12.1836C52.563 11.8906 52.3892 11.6641 52.1548 11.5039C51.9205 11.3398 51.6197 11.2578 51.2525 11.2578ZM58.6674 10.4609C59.4682 10.4609 60.1069 10.7363 60.5834 11.2871C61.06 11.8379 61.2983 12.666 61.2983 13.7715C61.2983 14.502 61.1889 15.1152 60.9702 15.6113C60.7514 16.1074 60.4428 16.4824 60.0444 16.7363C59.6498 16.9902 59.183 17.1172 58.644 17.1172C58.3041 17.1172 58.0053 17.0723 57.7475 16.9824C57.4897 16.8926 57.269 16.7715 57.0854 16.6191C56.9018 16.4668 56.7495 16.3008 56.6284 16.1211H56.558C56.5698 16.2734 56.5834 16.457 56.5991 16.6719C56.6186 16.8867 56.6284 17.0742 56.6284 17.2344V19.8711H55.6498V10.5781H56.4526L56.5815 11.5273H56.6284C56.7534 11.332 56.9057 11.1543 57.0854 10.9941C57.2651 10.8301 57.4838 10.7012 57.7416 10.6074C58.0034 10.5098 58.312 10.4609 58.6674 10.4609ZM58.4975 11.2812C58.0522 11.2812 57.6928 11.3672 57.4194 11.5391C57.1498 11.7109 56.9526 11.9688 56.8276 12.3125C56.7026 12.6523 56.6362 13.0801 56.6284 13.5957V13.7832C56.6284 14.3262 56.687 14.7852 56.8041 15.1602C56.9252 15.5352 57.1225 15.8203 57.3959 16.0156C57.6733 16.2109 58.0444 16.3086 58.5092 16.3086C58.9077 16.3086 59.2397 16.2012 59.5053 15.9863C59.7709 15.7715 59.9682 15.4727 60.0971 15.0898C60.2299 14.7031 60.2963 14.2598 60.2963 13.7598C60.2963 13.002 60.1479 12.4004 59.851 11.9551C59.558 11.5059 59.1069 11.2812 58.4975 11.2812ZM65.1917 16.3203C65.3519 16.3203 65.5159 16.3066 65.6839 16.2793C65.8519 16.252 65.9886 16.2188 66.0941 16.1797V16.9355C65.9808 16.9863 65.8226 17.0293 65.6195 17.0645C65.4202 17.0996 65.2249 17.1172 65.0335 17.1172C64.6937 17.1172 64.3851 17.0586 64.1077 16.9414C63.8304 16.8203 63.6077 16.6172 63.4398 16.332C63.2757 16.0469 63.1937 15.6523 63.1937 15.1484V11.3398H62.2796V10.8652L63.1995 10.4844L63.5863 9.08984H64.1722V10.5781H66.053V11.3398H64.1722V15.1191C64.1722 15.5215 64.264 15.8223 64.4476 16.0215C64.6351 16.2207 64.8831 16.3203 65.1917 16.3203ZM69.9875 10.4609C70.5344 10.4609 71.0031 10.582 71.3938 10.8242C71.7844 11.0664 72.0832 11.4062 72.2902 11.8438C72.4973 12.2773 72.6008 12.7852 72.6008 13.3672V13.9707H68.1652C68.177 14.7246 68.3645 15.2988 68.7277 15.6934C69.091 16.0879 69.6027 16.2852 70.2629 16.2852C70.6691 16.2852 71.0285 16.248 71.341 16.1738C71.6535 16.0996 71.9777 15.9902 72.3137 15.8457V16.7012C71.9895 16.8457 71.6672 16.9512 71.3469 17.0176C71.0305 17.084 70.6555 17.1172 70.2219 17.1172C69.6047 17.1172 69.0656 16.9922 68.6047 16.7422C68.1477 16.4883 67.7922 16.1172 67.5383 15.6289C67.2844 15.1406 67.1574 14.543 67.1574 13.8359C67.1574 13.1445 67.2727 12.5469 67.5031 12.043C67.7375 11.5352 68.0656 11.1445 68.4875 10.8711C68.9133 10.5977 69.4133 10.4609 69.9875 10.4609ZM69.9758 11.2578C69.4563 11.2578 69.0422 11.4277 68.7336 11.7676C68.425 12.1074 68.2414 12.582 68.1828 13.1914H71.5813C71.5773 12.8086 71.5168 12.4727 71.3996 12.1836C71.2863 11.8906 71.1125 11.6641 70.8781 11.5039C70.6438 11.3398 70.343 11.2578 69.9758 11.2578ZM76.6583 17.1172C75.8458 17.1172 75.2012 16.8398 74.7247 16.2852C74.252 15.7305 74.0157 14.9062 74.0157 13.8125C74.0157 12.707 74.2579 11.873 74.7423 11.3105C75.2266 10.7441 75.8712 10.4609 76.6759 10.4609C77.0157 10.4609 77.3126 10.5059 77.5665 10.5957C77.8204 10.6855 78.0391 10.8066 78.2227 10.959C78.4063 11.1074 78.5606 11.2773 78.6856 11.4688H78.7559C78.7403 11.3477 78.7247 11.1816 78.7091 10.9707C78.6934 10.7598 78.6856 10.5879 78.6856 10.4551V7.88281H79.6583V17H78.8731L78.7266 16.0859H78.6856C78.5645 16.2773 78.4102 16.4512 78.2227 16.6074C78.0391 16.7637 77.8184 16.8887 77.5606 16.9824C77.3067 17.0723 77.0059 17.1172 76.6583 17.1172ZM76.8106 16.3086C77.4981 16.3086 77.9845 16.1133 78.2696 15.7227C78.5548 15.332 78.6973 14.752 78.6973 13.9824V13.8066C78.6973 12.9902 78.5606 12.3633 78.2872 11.9258C78.0177 11.4883 77.5255 11.2695 76.8106 11.2695C76.213 11.2695 75.7657 11.5 75.4688 11.9609C75.172 12.418 75.0235 13.043 75.0235 13.8359C75.0235 14.625 75.17 15.2344 75.463 15.6641C75.7598 16.0938 76.2091 16.3086 76.8106 16.3086Z" fill="#00B444"/>
</svg>
