<svg width="317" height="294" viewBox="0 0 317 294" fill="none" xmlns="http://www.w3.org/2000/svg">
<g clip-path="url(#clip0_470_13227)">
<g opacity="0.3">
<path d="M209.053 186.447C229.49 181.872 249.297 173.099 264.641 158.856C290.939 134.488 301.354 94.2785 290.22 60.1447C286.345 48.2638 279.756 36.8012 269.456 29.758C259.9 23.1985 247.899 21.0257 236.348 21.657C224.797 22.2884 213.565 25.5681 202.578 29.2004C194.273 31.9472 185.771 34.9399 177.04 34.4644C166.765 33.8986 157.421 28.6101 148.257 23.9774C130.639 15.0912 112.076 8.22866 92.9224 3.52013C77.7991 -0.194159 60.8937 -2.30959 47.4463 5.56176C35.1024 12.7854 28.4564 26.9456 25.1783 40.8927C14.6819 85.5134 33.8926 135.587 71.4637 161.628C90.7724 175.009 113.49 182.003 135.954 187.964C159.203 194.138 185.64 191.695 209.053 186.447Z" fill="#BEEECB"/>
</g>
<path d="M158.5 293.793C246.037 293.793 317 289.637 317 284.511C317 279.385 246.037 275.229 158.5 275.229C70.9629 275.229 0 279.385 0 284.511C0 289.637 70.9629 293.793 158.5 293.793Z" fill="#F5F5F5"/>
<path d="M154.453 72.5256V64.4492" stroke="#006F16" stroke-linecap="round" stroke-linejoin="round"/>
<path d="M144.701 74.3705L141.619 70.73" stroke="#006F16" stroke-linecap="round" stroke-linejoin="round"/>
<path d="M147.268 77.396L146.352 76.3219" stroke="#006F16" stroke-linecap="round" stroke-linejoin="round"/>
<path d="M165.138 73.2799L161.704 77.3304" stroke="#006F16" stroke-linecap="round" stroke-linejoin="round"/>
<path d="M167.288 70.73L166.519 71.6401" stroke="#006F16" stroke-linecap="round" stroke-linejoin="round"/>
<path d="M243.501 265.546L255.273 261.684L259.965 275.566L250.131 278.812L243.501 265.546Z" fill="#CE7A63"/>
<path opacity="0.2" d="M243.509 265.546L255.281 261.684L257.48 268.194L246.673 271.884L243.509 265.546Z" fill="#191919"/>
<path d="M248.635 275.221L258.502 271.941C258.668 271.892 258.846 271.9 259.007 271.966C259.167 272.031 259.301 272.15 259.385 272.302L263.112 278.493C263.439 279.14 262.401 280.338 262.295 280.362C257.513 282.428 245.177 286.766 241.654 287.824C238.13 288.881 236.626 285.52 237.975 284.773C244.016 281.412 245.872 278.722 247.376 276.246C247.644 275.751 248.097 275.383 248.635 275.221Z" fill="#263238"/>
<path d="M187.381 267.161L200.134 268.227L197.968 283.248L187.316 282.379L187.381 267.161Z" fill="#CE7A63"/>
<path opacity="0.2" d="M187.39 267.169L200.134 268.227L199.096 275.451L187.357 274.557L187.39 267.169Z" fill="#191919"/>
<path d="M211.742 223.262C216.712 204.043 231.01 160.898 221.053 143.269L185.477 146.59C185.477 146.59 184.88 200.599 184.659 218.572C184.398 237.266 186.008 272.597 186.008 272.597L200.608 273.704C200.608 273.704 210.581 244.826 211.742 223.262Z" fill="#B3B3B3"/>
<g opacity="0.3">
<path d="M211.742 223.262C216.712 204.043 231.01 160.898 221.053 143.269L185.477 146.59C185.477 146.59 184.88 200.599 184.659 218.572C184.398 237.266 186.008 272.597 186.008 272.597L200.608 273.704C200.608 273.704 210.581 244.826 211.742 223.262Z" fill="white"/>
</g>
<path opacity="0.2" d="M213.957 167.507C214.121 171.942 221.552 189.833 221.069 194.433C219.32 200.476 215.584 210.299 213.589 216.17C210.965 199.533 213.957 167.507 213.957 167.507Z" fill="#191919"/>
<path d="M247.891 217.03C249.624 197.598 254.986 152.477 247.989 144.171L210.671 145.04C210.671 145.04 216.393 201.878 219.9 219.802C223.53 238.447 244.817 270.638 244.817 270.638L257.937 266.235C257.937 266.235 252.289 239.21 247.891 217.03Z" fill="#B3B3B3"/>
<g opacity="0.3">
<path d="M247.891 217.03C249.624 197.598 254.986 152.477 247.989 144.171L210.671 145.04C210.671 145.04 216.393 201.878 219.9 219.802C223.53 238.447 244.817 270.638 244.817 270.638L257.937 266.235C257.937 266.235 252.289 239.21 247.891 217.03Z" fill="white"/>
</g>
<path d="M187.807 277.976L198.671 278.485C198.844 278.496 199.008 278.568 199.135 278.688C199.262 278.808 199.343 278.968 199.366 279.141L200.6 286.266C200.656 286.506 200.656 286.756 200.6 286.996C200.515 287.21 200.369 287.394 200.18 287.525C199.991 287.656 199.767 287.729 199.537 287.733C193.938 287.881 180.294 287.455 176.754 287.168C173.092 286.873 172.904 283.199 174.433 282.986C181.275 282.051 183.973 280.223 186.27 278.46C186.482 278.282 186.726 278.148 186.99 278.065C187.254 277.982 187.531 277.952 187.807 277.976Z" fill="#263238"/>
<path d="M204.32 86.9646C203.273 89.4982 202.112 91.9334 200.902 94.344C199.693 96.7546 198.409 99.157 197.069 101.527C195.728 103.896 194.363 106.249 192.916 108.586C191.469 110.923 189.997 113.227 188.273 115.695L187.749 116.441C187.024 117.481 186.056 118.325 184.929 118.901C184.31 119.216 183.661 119.466 182.992 119.647C182.697 119.721 182.403 119.778 182.101 119.836L181.651 119.901H181.275C180.43 119.964 179.581 119.918 178.749 119.762C177.787 119.585 176.852 119.282 175.97 118.86C174.952 118.377 173.992 117.78 173.108 117.081C171.875 116.107 170.724 115.031 169.667 113.867C167.846 111.873 166.169 109.752 164.648 107.52C163.16 105.372 161.811 103.166 160.56 100.912C159.293 98.6322 158.165 96.2774 157.184 93.8603C157.039 93.4888 156.968 93.0923 156.975 92.6933C156.983 92.2943 157.069 91.9008 157.228 91.5352C157.388 91.1696 157.617 90.8391 157.904 90.5628C158.191 90.2864 158.53 90.0695 158.901 89.9246C159.32 89.7567 159.772 89.6865 160.222 89.7191C160.672 89.7518 161.109 89.8865 161.5 90.1132H161.582C163.781 91.3841 165.857 92.8108 167.926 94.2128L173.934 98.3617C175.88 99.7228 177.825 101.043 179.656 102.158C180.422 102.645 181.223 103.076 182.052 103.445C182.346 103.552 182.599 103.593 182.419 103.445C182.105 103.251 181.755 103.123 181.389 103.068C180.851 102.966 180.301 102.935 179.754 102.978H179.493H179.158C178.932 103.014 178.708 103.064 178.487 103.125C177.965 103.257 177.46 103.449 176.983 103.699L173.64 106.889L176.812 99.854C177.901 97.4324 179.024 95.0164 180.18 92.6058C181.324 90.1952 182.526 87.801 183.76 85.4232C184.994 83.0454 186.278 80.6922 187.668 78.4127C188.892 76.3883 190.833 74.9025 193.103 74.253C195.373 73.6036 197.804 73.8384 199.909 74.9106C202.014 75.9827 203.637 77.8129 204.453 80.0345C205.27 82.2562 205.219 84.7051 204.311 86.8908L204.32 86.9646Z" fill="#CE7A63"/>
<path d="M204.115 76.2891C206.943 89.8262 197.657 103.781 197.657 103.781C192.597 104.888 181.986 97.222 179.525 92.1794C179.525 92.1794 181.675 82.5698 187.528 76.2399C192.948 70.3774 202.456 68.3522 204.115 76.2891Z" fill="#B3B3B3"/>
<g opacity="0.1">
<path d="M204.115 76.2891C206.943 89.8262 197.657 103.781 197.657 103.781C192.597 104.888 181.986 97.222 179.525 92.1794C179.525 92.1794 181.675 82.5698 187.528 76.2399C192.948 70.3774 202.456 68.3522 204.115 76.2891Z" fill="#191919"/>
</g>
<path d="M161.075 89.9738L157.225 93.3929L151.895 91.6054L148.928 89.8098C148.424 89.4507 148.064 88.9228 147.915 88.3214C147.765 87.72 147.834 87.0847 148.11 86.5301L149.393 83.3651C149.62 82.6977 150.096 82.1448 150.722 81.8234C151.347 81.5021 152.073 81.4375 152.745 81.6432L155.557 82.7666C156.375 83.0957 157.1 83.6224 157.666 84.2998L161.075 89.9738Z" fill="#CE7A63"/>
<path d="M202.644 69.9346C213.034 67.8192 226.44 65.015 237.468 65.4906C244.351 65.794 249.558 69.5903 250.073 83.5947C250.376 91.671 248.071 108.512 248.267 116.392C248.757 136.267 248.814 145.196 248.814 145.196C248.814 145.196 240.918 143.237 185.231 146.393C183.065 107.594 188.975 89.818 193.79 77.642C197.085 69.3935 198.556 70.8038 202.644 69.9346Z" fill="#B3B3B3"/>
<path opacity="0.2" d="M208.121 76.9533L208.382 77.7158L209.772 82.947L214.448 76.0596L208.121 76.9533Z" fill="#191919"/>
<path d="M206.257 71.107C207.483 69.6393 208.971 70.2871 209.437 68.2127C209.578 66.6091 209.159 65.0061 208.252 63.6784L223.522 53.3965C223.775 59.3738 223.988 64.0556 226.841 66.1956C228.034 70.5577 220.301 75.7724 209.273 76.8957C202.292 77.6173 204.491 73.2142 206.257 71.107Z" fill="#CE7A63"/>
<path opacity="0.2" d="M208.538 64.1951L220.947 59.7756C218.225 65.1544 212.699 68.4915 209.502 67.565C209.467 66.3784 209.136 65.2196 208.538 64.1951Z" fill="#191919"/>
<path d="M210.998 34.5545C219.238 31.8734 227.176 38.1704 226.285 45.9762C225.394 53.782 224.609 59.0951 219.59 62.1699C209.609 68.3604 204.017 63.8671 202.423 55.9548C200.927 48.8378 202.644 37.2767 210.998 34.5545Z" fill="#CE7A63"/>
<path d="M209.069 57.2421C208.719 57.3124 208.363 57.3563 208.006 57.3732C207.951 57.3734 207.897 57.3523 207.856 57.3143C207.815 57.2763 207.79 57.2241 207.786 57.1683C207.785 57.1123 207.806 57.0583 207.844 57.0172C207.882 56.9762 207.934 56.951 207.99 56.9469C208.887 56.9229 209.765 56.6878 210.555 56.2605C211.345 55.8332 212.023 55.2258 212.535 54.4871C212.548 54.4623 212.566 54.4403 212.587 54.4226C212.609 54.4049 212.634 54.3918 212.661 54.3841C212.687 54.3764 212.715 54.3743 212.743 54.3779C212.771 54.3815 212.797 54.3908 212.821 54.4051C212.846 54.4194 212.867 54.4385 212.884 54.4612C212.901 54.4839 212.913 54.5097 212.92 54.5372C212.927 54.5647 212.928 54.5933 212.924 54.6213C212.919 54.6493 212.91 54.6761 212.895 54.7003C212.458 55.3581 211.895 55.9217 211.238 56.3582C210.581 56.7947 209.843 57.0952 209.069 57.2421Z" fill="#263238"/>
<path d="M213.639 46.7142C213.977 46.8191 214.305 46.9535 214.62 47.116C214.645 47.1274 214.667 47.1438 214.686 47.1641C214.704 47.1845 214.719 47.2084 214.728 47.2344C214.737 47.2604 214.741 47.2881 214.739 47.3156C214.737 47.3432 214.73 47.3701 214.718 47.3947C214.706 47.4202 214.688 47.4429 214.667 47.4617C214.646 47.4804 214.622 47.4948 214.595 47.5039C214.569 47.5131 214.54 47.5168 214.512 47.515C214.484 47.5131 214.457 47.5057 214.432 47.4931C211.734 46.1894 211.268 47.7555 210.957 47.9687C210.934 47.9833 210.908 47.993 210.881 47.9972C210.853 48.0014 210.825 48 210.799 47.9931C210.772 47.9862 210.747 47.974 210.725 47.9571C210.703 47.9402 210.685 47.9191 210.671 47.8949C210.644 47.8468 210.637 47.79 210.65 47.7365C210.664 47.683 210.698 47.6369 210.745 47.6079C210.818 47.5505 211.407 46.0501 213.639 46.7142Z" fill="#263238"/>
<path opacity="0.1" d="M216.271 47.37C215.77 47.2478 215.241 47.3211 214.791 47.575C214.879 47.682 215 47.7569 215.135 47.7882C215.342 47.7983 215.55 47.7665 215.745 47.6947C215.94 47.6229 216.119 47.5124 216.271 47.37Z" fill="#191919"/>
<path opacity="0.1" d="M216.402 46.4189C215.883 46.4376 215.392 46.6547 215.028 47.0257C215.142 47.1015 215.276 47.1389 215.413 47.1323C215.616 47.0855 215.809 46.9983 215.979 46.8758C216.149 46.7533 216.293 46.598 216.402 46.4189Z" fill="#191919"/>
<path d="M205.014 47.936C205.35 48.048 205.677 48.1822 205.995 48.3377C206.046 48.3627 206.085 48.407 206.103 48.4608C206.122 48.5147 206.118 48.5736 206.093 48.6247C206.068 48.6758 206.024 48.7149 205.97 48.7333C205.917 48.7518 205.858 48.7481 205.807 48.7231C203.109 47.4112 202.643 48.9855 202.333 49.1987C202.308 49.2131 202.281 49.2225 202.253 49.2262C202.225 49.2299 202.196 49.2279 202.168 49.2202C202.141 49.2126 202.115 49.1994 202.093 49.1817C202.071 49.1639 202.052 49.1418 202.039 49.1167C202.024 49.0926 202.015 49.066 202.011 49.0382C202.008 49.0105 202.01 48.9823 202.018 48.9555C202.025 48.9286 202.038 48.9036 202.056 48.8819C202.074 48.8603 202.096 48.8425 202.12 48.8297C202.21 48.7805 202.782 47.2718 205.014 47.936Z" fill="#263238"/>
<path d="M207.197 39.8267C206.44 39.8072 205.687 39.7111 204.949 39.5398C203.078 37.5605 201.906 35.0198 201.614 32.3079C204.174 32.9982 206.851 33.1407 209.469 32.7261C214.816 31.7258 219.165 31.16 223.702 32.7917C225.688 33.505 227.691 34.4316 226.358 36.8914C226.35 36.8668 210.982 39.0724 207.197 39.8267Z" fill="#263238"/>
<path d="M223.8 58.4555C223.8 58.4555 224.045 52.4208 220.947 51.2975C218.609 50.4775 222.075 45.1234 219.173 44.533C217.93 44.1395 218.127 40.0152 218.127 39.0313C218.127 39.0313 222.991 37.0962 226.359 36.8831C226.563 37.9572 227.176 40.5318 227.568 42.8358C227.568 42.8194 226.35 49.0837 223.8 58.4555Z" fill="#263238"/>
<path d="M228.231 52.6177C227.764 53.4035 227.147 54.0886 226.414 54.6332C225.682 55.1779 224.849 55.5714 223.963 55.7908C221.585 56.3648 220.465 54.2084 221.184 52.0028C221.83 50.0185 223.849 47.3291 226.212 47.7391C228.574 48.1491 229.367 50.6663 228.231 52.6177Z" fill="#CE7A63"/>
<path d="M213.958 44.7708C214.019 44.7368 214.07 44.6869 214.106 44.6263C214.141 44.5658 214.16 44.4967 214.16 44.4264C214.16 44.3561 214.141 44.2871 214.106 44.2266C214.07 44.166 214.019 44.1161 213.958 44.0821C213.398 43.7707 212.772 43.5978 212.132 43.5779C211.492 43.5579 210.857 43.6914 210.279 43.9673C210.233 43.9929 210.192 44.0275 210.159 44.0691C210.126 44.1107 210.101 44.1584 210.087 44.2095C210.073 44.2606 210.068 44.314 210.075 44.3667C210.081 44.4194 210.098 44.4704 210.124 44.5166C210.177 44.6089 210.264 44.6768 210.366 44.7059C210.468 44.735 210.578 44.723 210.671 44.6724C211.131 44.4603 211.634 44.3601 212.14 44.38C212.646 44.4 213.14 44.5395 213.581 44.7872C213.641 44.8149 213.706 44.8279 213.771 44.825C213.837 44.8222 213.901 44.8036 213.958 44.7708Z" fill="#263238"/>
<path d="M202.047 46.1566C202.11 46.1779 202.178 46.1831 202.243 46.1716C202.309 46.1602 202.371 46.1325 202.423 46.091C202.807 45.7649 203.264 45.5365 203.755 45.4251C204.246 45.3138 204.757 45.3228 205.243 45.4515C205.343 45.4827 205.451 45.4736 205.544 45.4261C205.637 45.3787 205.708 45.2965 205.742 45.1973C205.776 45.0951 205.768 44.9836 205.721 44.8869C205.673 44.7902 205.59 44.7162 205.489 44.6807C204.872 44.5197 204.227 44.5102 203.606 44.6529C202.986 44.7957 202.409 45.0865 201.924 45.5007C201.883 45.5334 201.848 45.5741 201.823 45.6203C201.797 45.6665 201.78 45.7173 201.774 45.7699C201.768 45.8225 201.773 45.8757 201.787 45.9266C201.802 45.9775 201.826 46.025 201.859 46.0664C201.912 46.1136 201.977 46.1449 202.047 46.1566Z" fill="#263238"/>
<path d="M201.131 79.7738C201.262 78.6505 201.867 77.4779 202.071 76.3628C202.652 73.0831 206.044 67.4666 209.429 66.7778C209.339 69.8854 207.925 76.9532 207.925 76.9532C206.486 77.15 202.881 77.6665 201.131 79.7738Z" fill="#263238"/>
<path d="M225.067 64.195C224.683 66.3925 216.81 74.6164 214.284 76.0677C218.118 75.8873 220.742 76.5596 223.407 78.2733C226.963 74.6164 227.879 65.8103 227.944 65.7447C228.083 64.5886 226.171 63.8261 225.067 64.195Z" fill="#263238"/>
<path d="M243.158 88.7029C252.804 85.2756 249.436 83.7177 250.842 83.2094C251.09 82.6442 251.284 82.0567 251.422 81.4547C251.488 81.1349 251.545 80.807 251.586 80.479V80.0854V79.7001V79.0687V78.6341V78.38L251.537 78.0274C251.537 77.9536 251.537 77.9864 251.537 78.0274L251.733 78.6505L252.272 80.2904L253.507 83.9063C254.324 86.3661 255.223 88.8833 256.049 91.4169C256.466 92.6796 256.916 93.9423 257.316 95.2132L257.954 97.181C258.24 98.0009 258.485 98.8865 258.714 99.772C259.687 103.498 259.893 107.385 259.319 111.194C259.237 111.718 259.188 111.964 259.123 112.317L258.967 113.391L258.583 115.384L257.766 119.36C257.21 122 256.629 124.649 256.025 127.289C254.798 132.577 252.052 140.949 250.392 146.147C249.575 148.607 247.327 150.198 244.85 149.427C242.961 148.829 242.749 143.843 242.61 141.974C242.217 136.489 242.144 131.036 242.193 125.575C242.193 122.853 242.275 120.139 242.356 117.376L242.504 113.276L242.692 109.349C242.632 107.773 242.3 106.219 241.711 104.757C241.555 104.339 241.384 103.937 241.187 103.503L240.37 101.682C239.814 100.436 239.307 99.1652 238.776 97.9107C237.713 95.3854 236.724 92.819 235.751 90.2034C235.285 88.8915 234.803 87.5632 234.37 86.1611C234.149 85.4642 233.92 84.7508 233.699 83.9555C233.593 83.5537 233.479 83.1356 233.356 82.619C233.299 82.3648 233.233 82.0697 233.16 81.6679C233.119 81.4465 233.078 81.2251 233.021 80.848L232.98 80.4708C232.98 80.3068 232.98 80.2248 232.98 79.905V79.1835V78.7653L233.021 78.339C233.058 77.9997 233.116 77.6629 233.193 77.3305C233.324 76.7187 233.518 76.1223 233.773 75.5512C235.179 75.0264 231.827 73.4604 241.474 70.0249C242.695 69.9145 243.926 70.0464 245.096 70.4132C246.266 70.7799 247.353 71.3743 248.294 72.1623C249.235 72.9503 250.013 73.9166 250.582 75.0059C251.151 76.0953 251.5 77.2864 251.61 78.5112C251.72 79.736 251.589 80.9705 251.223 82.1443C250.857 83.3181 250.265 84.4082 249.479 85.3523C248.693 86.2964 247.73 87.0761 246.644 87.6467C245.558 88.2174 244.37 88.5679 243.149 88.6783L243.158 88.7029Z" fill="#CE7A63"/>
<path d="M243.46 144.171L248.422 145.204C252.927 148.066 248.316 154.322 248.316 154.322L247.073 157.717C246.815 158.302 246.358 158.777 245.783 159.056C245.208 159.336 244.553 159.401 243.934 159.242L240.452 158.545C239.728 158.446 239.07 158.068 238.62 157.491C238.169 156.913 237.961 156.182 238.04 155.454L238.637 152.354C238.809 151.453 239.2 150.609 239.773 149.894L243.46 144.171Z" fill="#CE7A63"/>
<path d="M246.787 69.3934C254.357 80.5281 256.442 88.2519 256.442 88.2519C256.442 88.2519 246.354 99.8621 237.117 96.6398C237.117 96.6398 231.394 86.5382 231.223 77.8715C231.051 69.8854 241.564 61.7762 246.787 69.3934Z" fill="#B3B3B3"/>
<path opacity="0.1" d="M246.787 69.3934C254.357 80.5281 256.442 88.2519 256.442 88.2519C256.442 88.2519 246.354 99.8621 237.117 96.6398C237.117 96.6398 231.394 86.5382 231.223 77.8715C231.051 69.8854 241.564 61.7762 246.787 69.3934Z" fill="white"/>
<path d="M99.2822 73.034C98.898 76.3138 98.383 79.6427 97.8189 82.9224C97.541 84.5623 97.2549 86.2022 96.9361 87.842C96.6173 89.4819 96.3311 91.1217 95.9796 92.7616L93.9686 102.601C93.6877 103.918 93.5209 105.256 93.47 106.602C93.4452 107.936 93.5382 109.269 93.7479 110.587L93.6498 110.12C94.124 112.306 94.5654 114.479 94.9741 116.638C95.3829 118.819 95.7425 121.016 96.1104 123.198L96.5927 126.477L97.026 129.757C97.2712 131.979 97.5165 134.201 97.6227 136.464C97.6507 137.145 97.4445 137.816 97.0387 138.363C96.6328 138.91 96.052 139.301 95.3933 139.47C94.7345 139.639 94.0379 139.576 93.42 139.291C92.802 139.007 92.3002 138.518 91.9985 137.907C91.0094 135.882 90.151 133.807 89.3009 131.741L88.0828 128.625L86.922 125.493C86.1863 123.394 85.4506 121.303 84.7639 119.188C84.0772 117.073 83.415 114.965 82.7856 112.842V112.702L82.7202 112.366C82.36 110.397 82.1739 108.399 82.1643 106.397C82.1807 104.403 82.3695 102.414 82.7284 100.453C83.0472 98.6323 83.3496 97.1319 83.6112 95.533L84.4287 90.6134C84.6903 88.9735 85.0091 87.3337 85.3116 85.6938C85.6141 84.0539 85.9247 82.4141 86.2599 80.7742C86.922 77.4945 87.625 74.2147 88.4752 70.9924C88.8242 69.6306 89.6762 68.4528 90.8585 67.6974C92.0409 66.942 93.4653 66.6656 94.8433 66.9241C96.2212 67.1826 97.4497 67.9567 98.28 69.0896C99.1102 70.2225 99.4802 71.6296 99.3149 73.0259L99.2822 73.034Z" fill="#FFB573"/>
<path d="M95.5056 65.1872C95.5056 65.1872 89.9304 64.2443 86.7014 70.3528C84.3225 74.8378 81.306 91.3021 81.8537 91.4087C82.4015 91.5153 97.443 94.6884 97.443 94.6884C97.443 94.6884 107.056 65.0724 95.5056 65.1872Z" fill="#6B6B6B"/>
<path opacity="0.1" d="M95.5056 65.1872C95.5056 65.1872 89.9304 64.2443 86.7014 70.3528C84.3225 74.8378 81.306 91.3021 81.8537 91.4087C82.4015 91.5153 97.443 94.6884 97.443 94.6884C97.443 94.6884 107.056 65.0724 95.5056 65.1872Z" fill="#191919"/>
<path d="M100.386 55.1758C96.9362 52.716 93.7725 49.6741 92.2112 45.7384C90.6498 41.8027 91.083 36.9159 94.026 33.8904C94.263 33.6444 94.5818 33.3984 94.9006 33.5132C95.2195 33.628 95.2848 33.874 95.3829 34.1281C98.0643 40.9664 97.1896 48.6163 100.386 55.1758Z" fill="#263238"/>
<path d="M100.778 49.8628C101.334 54.7824 101.416 62.9817 97.7453 65.9499C97.7453 65.9499 97.5246 70.9515 110.825 77.4699C116.384 70.7301 112.901 67.1962 112.901 67.1962C107.555 65.4497 108.168 62.3258 109.419 58.6033L100.778 49.8628Z" fill="#FFB573"/>
<path d="M113.76 65.8924C115.808 65.9957 117.8 66.598 119.564 67.6471C123.431 70.0085 124.927 73.731 124.927 80.2413C124.927 88.9243 125.401 85.0543 124.927 89.7197L124.583 125.518L91.3284 123.739C91.3284 123.739 90.4291 109.529 90.2084 101.346C89.8324 87.5715 84.7804 81.094 87.3718 70.7546C88.132 67.7045 92.1949 64.8347 97.4104 64.8347L113.76 65.8924Z" fill="#6B6B6B"/>
<path d="M96.1431 64.8345L96.2902 63.826C96.3429 63.482 96.5265 63.1719 96.8025 62.9609C97.0784 62.7499 97.4252 62.6544 97.7698 62.6945L109.026 64.0146L112.378 65.884C112.378 65.884 102.528 67.1221 96.1431 64.8345Z" fill="#6B6B6B"/>
<path opacity="0.2" d="M96.1431 64.8345L96.2902 63.826C96.3429 63.482 96.5265 63.1719 96.8025 62.9609C97.0784 62.7499 97.4252 62.6544 97.7698 62.6945L109.026 64.0146L112.378 65.884C112.378 65.884 102.528 67.1221 96.1431 64.8345Z" fill="white"/>
<path d="M74.521 274.122L81.5268 276.697L99.3068 237.184L88.2382 233.109L74.521 274.122Z" fill="#FFB573"/>
<path opacity="0.2" d="M99.3067 237.184L84.3061 270.515L76.5728 267.965L88.2381 233.109L99.3067 237.184Z" fill="#191919"/>
<path d="M81.9028 275.418L74.1858 272.646C74.0477 272.598 73.8971 272.599 73.7598 272.65C73.6225 272.701 73.5072 272.798 73.4337 272.925L70.0167 278.804C69.9343 278.949 69.8847 279.111 69.8715 279.278C69.8583 279.444 69.8818 279.612 69.9403 279.768C69.9988 279.925 70.0909 280.066 70.21 280.183C70.3292 280.3 70.4725 280.389 70.6298 280.444C73.4256 281.395 77.4966 282.666 80.9954 283.921C85.0827 285.388 82.7039 284.79 87.5352 286.503C90.4372 287.545 92.1866 284.863 91.0585 284.15C85.9166 280.944 87.2899 281.289 83.4642 276.582C83.062 276.056 82.5212 275.652 81.9028 275.418Z" fill="#263238"/>
<path d="M116.237 123.739L115.223 178.814C115.002 202.944 107.571 225.902 97.3448 247.745L87.6741 268.424L75.1177 264.259L90.8295 206.863L92.1048 158.676C88.9984 151.69 88.0174 144.294 89.0229 138.53C89.6115 135.103 90.2491 131.676 90.7069 128.232L91.3037 123.739H116.237Z" fill="#263238"/>
<path opacity="0.2" d="M116.237 123.739L115.223 178.814C115.002 202.944 107.571 225.902 97.3448 247.745L87.6741 268.424L75.1177 264.259L90.8295 206.863L92.1048 158.676C88.9984 151.69 88.0174 144.294 89.0229 138.53C89.6115 135.103 90.2491 131.676 90.7069 128.232L91.3037 123.739H116.237Z" fill="#191919"/>
<path d="M73.7936 264.259L88.6062 269.851C88.7317 269.898 88.8701 269.897 88.9951 269.849C89.1201 269.8 89.2232 269.708 89.2847 269.588L92.0559 264.406C92.0992 264.333 92.125 264.25 92.1315 264.165C92.138 264.08 92.125 263.995 92.0934 263.916C92.0618 263.836 92.0125 263.766 91.9493 263.708C91.8862 263.651 91.8108 263.61 91.7289 263.586L74.8645 258.339C74.7881 258.315 74.7076 258.309 74.6284 258.32C74.5493 258.33 74.4734 258.358 74.406 258.401C74.3385 258.444 74.281 258.501 74.2374 258.568C74.1938 258.635 74.1651 258.71 74.1533 258.79L73.442 263.635C73.4149 263.764 73.4357 263.899 73.5004 264.014C73.5651 264.128 73.6694 264.216 73.7936 264.259Z" fill="#263238"/>
<path d="M117.128 281.297H125.229L128.613 234.372H115.82L117.128 281.297Z" fill="#FFB573"/>
<path opacity="0.2" d="M128.613 234.372L125.744 274.065H116.932L115.82 234.372H128.613Z" fill="#191919"/>
<path d="M124.812 279.28H117.218C117.076 279.283 116.94 279.334 116.832 279.425C116.723 279.516 116.649 279.641 116.621 279.78L115.248 286.34C115.211 286.494 115.209 286.654 115.242 286.809C115.275 286.964 115.343 287.11 115.439 287.236C115.535 287.361 115.658 287.464 115.799 287.536C115.94 287.608 116.095 287.647 116.253 287.651C118.992 287.602 122.948 287.43 126.39 287.43C130.42 287.43 133.894 287.66 138.652 287.66C141.505 287.66 142.298 284.609 141.104 284.331C135.66 283.076 131.221 282.945 126.52 279.878C126.023 279.513 125.428 279.305 124.812 279.28Z" fill="#263238"/>
<path d="M96.3721 123.755H91.3446C90.5271 144.253 98.3994 154.912 98.9063 155.954L101.032 160.275C103.165 164.596 111.659 207.265 111.659 207.265C109.926 221.466 112.779 236.119 113.686 250.394L115.133 271.597H128.327L132.586 219.703C133.444 212.292 133.51 204.81 132.782 197.385C124.975 125.534 124.608 123.755 124.608 123.755H96.3721Z" fill="#263238"/>
<path d="M114.062 272.663L129.88 272.237C130.015 272.232 130.143 272.178 130.242 272.087C130.341 271.995 130.404 271.871 130.42 271.736L131.025 265.89C131.033 265.809 131.024 265.726 130.997 265.649C130.971 265.572 130.927 265.501 130.87 265.442C130.813 265.384 130.744 265.338 130.668 265.309C130.591 265.28 130.509 265.269 130.428 265.275L112.828 266.8C112.749 266.809 112.672 266.834 112.604 266.874C112.535 266.915 112.476 266.969 112.43 267.035C112.384 267.1 112.353 267.174 112.339 267.253C112.324 267.331 112.326 267.412 112.345 267.489L113.514 272.245C113.543 272.368 113.613 272.476 113.713 272.553C113.813 272.629 113.937 272.668 114.062 272.663Z" fill="#263238"/>
<path opacity="0.2" d="M104.302 53.3801L109.403 58.5949C109.093 59.4573 108.863 60.3466 108.716 61.2515C106.648 60.7841 103.525 58.7425 103.263 56.4385C103.355 55.3491 103.711 54.2989 104.302 53.3801Z" fill="#191919"/>
<path d="M115.444 35.3252C115.369 34.1592 115.047 33.0226 114.498 31.9917C113.95 30.9608 113.188 30.0594 112.264 29.3479C112.451 30.2967 112.297 31.2812 111.831 32.1275L115.444 35.3252Z" fill="#263238"/>
<path d="M96.037 42.7621C97.4921 50.5351 97.9499 53.8476 102.397 57.3651C109.084 62.6701 118.289 59.169 119.18 51.1172C119.997 43.8608 117.447 32.3244 109.37 30.2171C107.6 29.7325 105.735 29.7105 103.954 30.1532C102.173 30.5958 100.534 31.4885 99.1945 32.7461C97.8547 34.0037 96.8581 35.5843 96.2997 37.3376C95.7412 39.0908 95.6396 40.9583 96.0043 42.7621H96.037Z" fill="#FFB573"/>
<path d="M109.525 43.2377C109.615 43.8773 110.016 44.3528 110.424 44.3036C110.833 44.2544 111.119 43.6887 111.046 43.0491C110.972 42.4096 110.555 41.9422 110.147 41.9832C109.738 42.0242 109.452 42.631 109.525 43.2377Z" fill="#263238"/>
<path d="M116.711 42.352C116.801 42.9997 117.201 43.4589 117.61 43.4179C118.019 43.3769 118.305 42.7948 118.231 42.1634C118.158 41.5321 117.741 41.0483 117.332 41.1057C116.923 41.1631 116.637 41.7125 116.711 42.352Z" fill="#263238"/>
<path d="M106.386 40.7779C106.458 40.8135 106.54 40.8239 106.618 40.8076C106.697 40.7912 106.768 40.749 106.82 40.6877C107.282 40.2835 107.823 39.9794 108.408 39.7946C108.993 39.6098 109.61 39.5482 110.22 39.6136C110.317 39.6235 110.413 39.5954 110.49 39.5354C110.566 39.4755 110.617 39.3881 110.63 39.2917C110.644 39.1953 110.62 39.0973 110.564 39.0183C110.507 38.9392 110.422 38.8852 110.326 38.8675C109.59 38.7774 108.843 38.8495 108.137 39.0789C107.431 39.3084 106.783 39.6895 106.239 40.1958C106.205 40.2301 106.177 40.2709 106.158 40.316C106.14 40.361 106.13 40.4093 106.13 40.4581C106.13 40.507 106.14 40.5553 106.158 40.6003C106.177 40.6454 106.205 40.6862 106.239 40.7205C106.258 40.7398 106.281 40.7548 106.307 40.7647C106.332 40.7746 106.359 40.7791 106.386 40.7779Z" fill="#263238"/>
<path d="M118.109 38.3753C118.175 38.3625 118.236 38.3321 118.286 38.2874C118.337 38.2427 118.374 38.1853 118.395 38.1212C118.426 38.0254 118.419 37.9212 118.375 37.8308C118.33 37.7404 118.253 37.6709 118.158 37.6374C117.591 37.4241 116.981 37.3537 116.381 37.4324C115.781 37.511 115.209 37.7363 114.716 38.0884C114.639 38.1457 114.588 38.2309 114.572 38.3259C114.557 38.4208 114.579 38.518 114.634 38.5967C114.697 38.673 114.787 38.7218 114.884 38.7325C114.982 38.7433 115.08 38.7151 115.158 38.6541C115.552 38.3918 116.003 38.2268 116.473 38.1726C116.944 38.1185 117.42 38.1767 117.863 38.3425C117.938 38.3844 118.026 38.3962 118.109 38.3753Z" fill="#263238"/>
<path d="M103.092 35.9402C102.427 38.7 101.998 41.5116 101.808 44.3445C100.885 44.6397 101.408 44.5741 100.492 44.8693C100.672 46.3955 101.234 47.8512 102.127 49.1001C101.254 49.5225 100.293 49.7305 99.3232 49.7069C99.0641 48.8327 98.5383 48.062 97.8198 47.5031C97.1013 46.9442 96.2262 46.6253 95.3176 46.5911C94.1639 43.5387 93.8395 40.2337 94.3775 37.0143C97.2993 36.8121 100.208 36.4536 103.092 35.9402Z" fill="#263238"/>
<path d="M112.722 29.1348C113.283 30.1722 113.465 31.3743 113.235 32.5322C113.005 33.6901 112.378 34.7305 111.463 35.4729C111.463 34.6529 111.463 33.833 111.463 33.0131C110.533 34.4357 109.36 35.6821 107.997 36.6946C108.087 35.8746 108.193 35.2843 108.283 34.5053C107.17 35.832 105.773 36.8889 104.195 37.5965C104.803 36.7462 105.216 35.7719 105.405 34.7431C104.019 36.39 102.239 37.6568 100.231 38.4246C100.645 37.8803 100.884 37.2227 100.917 36.5388C99.2251 37.0061 97.5248 37.4489 95.8163 37.8507C95.2891 38.048 94.7086 38.048 94.1813 37.8507C93.3639 37.4079 93.3639 36.2108 93.65 35.3909C94.2032 33.632 95.2863 32.0884 96.7503 30.9725C98.2142 29.8565 99.987 29.2231 101.825 29.1594C103.102 29.169 104.374 28.9951 105.601 28.6428C106.838 28.1931 108.131 27.9172 109.444 27.8229C110.711 27.6917 112.027 27.9951 112.722 29.1348Z" fill="#263238"/>
<path d="M94.6636 49.0509C94.9948 49.7187 95.4542 50.3145 96.0152 50.8041C96.5763 51.2937 97.2282 51.6675 97.9335 51.9042C99.8218 52.511 100.86 50.8383 100.386 48.9935C99.9608 47.3536 98.4812 45.025 96.5519 45.1808C96.1258 45.2277 95.7185 45.3819 95.3678 45.6291C95.0171 45.8763 94.7343 46.2084 94.5459 46.5946C94.3575 46.9808 94.2695 47.4084 94.29 47.8379C94.3106 48.2673 94.4391 48.6846 94.6636 49.0509Z" fill="#FFB573"/>
<path d="M150.726 93.6143L155.631 90.3346L157.634 88.6045C157.634 88.6045 152.958 83.07 152.361 82.7092C152.361 82.7092 148.887 84.7345 147.693 87.8912L146.827 90.9086L150.726 93.6143Z" fill="#FFB573"/>
<path d="M155.95 89.9738L152.107 82.947L153.481 82.127C153.604 82.0286 153.746 81.9576 153.899 81.9189C154.051 81.8801 154.21 81.8746 154.365 81.9025C154.52 81.9305 154.667 81.9913 154.796 82.0809C154.926 82.1706 155.035 82.2869 155.116 82.4222L158.116 85.456C158.598 86.2759 158.933 87.3664 158.337 88.0552L155.95 89.9738Z" fill="#FFB573"/>
<path opacity="0.1" d="M109.82 75.8792C109.82 75.8792 110.147 99.5752 113.637 99.5506C117.128 99.526 123.112 95.1148 122.18 89.2441C121.248 83.3733 109.82 75.8792 109.82 75.8792Z" fill="#191919"/>
<path d="M123.733 72.5666C124.436 74.7886 125.065 77.0352 125.679 79.2818C126.292 81.5284 126.872 83.7832 127.42 86.0545C127.967 88.3257 128.515 90.5887 129.055 92.8763C129.594 95.1639 130.068 97.4351 130.543 99.7227L130.338 99.1652C130.249 99.064 130.132 98.9901 130.003 98.952C129.898 98.9108 129.781 98.9108 129.676 98.952C129.585 98.991 129.506 99.0532 129.447 99.1324C129.365 99.1898 129.21 99.2882 129.218 99.321C129.226 99.3538 129.267 99.3702 129.374 99.321L129.733 99.034C131.564 97.9189 133.436 96.8612 135.284 95.7543C137.131 94.6474 139.036 93.6388 140.9 92.5729C142.764 91.507 144.677 90.4985 146.622 89.5064C148.568 88.5142 150.464 87.5139 152.418 86.5792C152.845 86.3772 153.33 86.3318 153.787 86.451C154.244 86.5702 154.645 86.8464 154.92 87.2316C155.196 87.6168 155.327 88.0865 155.293 88.5591C155.258 89.0316 155.06 89.4771 154.732 89.8179C153.222 91.3758 151.68 92.8982 150.105 94.385C148.551 95.8855 146.957 97.3367 145.371 98.8044C143.786 100.272 142.183 101.707 140.557 103.101C138.93 104.495 137.328 105.954 135.652 107.324L136.011 107.037C135.481 107.543 134.901 107.994 134.278 108.381C133.54 108.835 132.742 109.182 131.908 109.414C130.332 109.852 128.676 109.909 127.074 109.58C125.472 109.25 123.972 108.545 122.695 107.52C121.391 106.466 120.35 105.121 119.654 103.593L119.458 103.027C118.64 100.854 117.749 98.6814 116.94 96.4676C116.13 94.2538 115.305 92.0892 114.536 89.9081C113.768 87.7271 113.008 85.5051 112.272 83.2913C111.536 81.0775 110.85 78.8554 110.212 76.6088C109.706 74.8169 109.922 72.8974 110.814 71.2638C111.706 69.6303 113.202 68.4136 114.979 67.8759C116.757 67.3382 118.674 67.5225 120.318 68.3892C121.961 69.2559 123.2 70.7355 123.766 72.5092L123.733 72.5666Z" fill="#FFB573"/>
<path d="M114.912 67.6799C114.912 67.6799 109.28 69.0574 109.656 74.1246C110.032 79.1918 113.989 95.3281 114.561 95.1723C115.133 95.0165 130.093 89.9739 130.093 89.9739C130.093 89.9739 125.237 62.4898 114.912 67.6799Z" fill="#6B6B6B"/>
<path d="M117.422 50.3874C117.422 50.3874 115.403 49.8052 109.656 49.6904C109.859 50.7604 110.447 51.7184 111.307 52.3832C112.167 53.0481 113.24 53.3736 114.324 53.2981C115.078 53.3482 115.823 53.1 116.397 52.6065C116.972 52.1131 117.331 51.4136 117.397 50.658L117.422 50.3874Z" fill="#263238"/>
<path d="M113.057 51.7239C114.193 51.6767 115.309 52.0371 116.204 52.7406C115.656 53.1214 114.998 53.3115 114.332 53.2817C113.196 53.3275 112.081 52.9672 111.185 52.265C111.726 51.8699 112.389 51.6783 113.057 51.7239Z" fill="#ED893E"/>
<path d="M117.16 50.33C117.097 50.5576 116.976 50.7645 116.808 50.9301C116.64 51.0956 116.432 51.2138 116.204 51.273C114.502 51.2239 112.808 51.018 111.144 50.658C110.871 50.6173 110.614 50.5047 110.398 50.3319C110.183 50.1591 110.017 49.9321 109.917 49.6741C112.346 49.6786 114.77 49.8981 117.16 50.33Z" fill="white"/>
<path d="M114.266 48.1453C114.706 48.015 115.161 47.9401 115.62 47.9221C115.836 47.9221 116.037 47.8672 116.074 47.7245C116.095 47.5055 116.051 47.285 115.946 47.0916C115.752 46.5721 115.554 46.0307 115.346 45.4636C114.515 43.1442 113.915 41.2419 114.01 41.2089C114.105 41.176 114.852 43.0381 115.682 45.3466L116.257 46.9819C116.385 47.2414 116.419 47.5379 116.352 47.8197C116.318 47.8949 116.268 47.9615 116.204 48.0141C116.141 48.0668 116.066 48.1041 115.986 48.1233C115.866 48.1509 115.743 48.1656 115.62 48.1672C115.169 48.2135 114.715 48.2061 114.266 48.1453Z" fill="#263238"/>
</g>
<defs>
<clipPath id="clip0_470_13227">
<rect width="317" height="293.585" fill="white" transform="translate(0 0.20752)"/>
</clipPath>
</defs>
</svg>
