<svg width="80" height="24" viewBox="0 0 80 24" fill="none" xmlns="http://www.w3.org/2000/svg">
<rect width="80" height="24" rx="12" fill="#FFECEF"/>
<path d="M20.2733 16.0601L18.3933 17.9401" stroke="#D72C27" stroke-linecap="round" stroke-linejoin="round"/>
<path d="M20.2733 17.9401L18.3933 16.0601" stroke="#D72C27" stroke-linecap="round" stroke-linejoin="round"/>
<path d="M16.1067 11.2468C16.04 11.2402 15.96 11.2402 15.8867 11.2468C14.3 11.1935 13.04 9.8935 13.04 8.2935C13.04 6.66016 14.36 5.3335 16 5.3335C17.6334 5.3335 18.96 6.66016 18.96 8.2935C18.9534 9.8935 17.6934 11.1935 16.1067 11.2468Z" stroke="#D72C27" stroke-linecap="round" stroke-linejoin="round"/>
<path d="M16 18.54C14.7866 18.54 13.58 18.2333 12.66 17.62C11.0466 16.54 11.0466 14.78 12.66 13.7066C14.4933 12.48 17.5 12.48 19.3333 13.7066" stroke="#D72C27" stroke-linecap="round" stroke-linejoin="round"/>
<path d="M29.2566 8.43359H31.6824C32.7527 8.43359 33.5574 8.59375 34.0965 8.91406C34.6355 9.23438 34.9051 9.7793 34.9051 10.5488C34.9051 10.8809 34.8406 11.1797 34.7117 11.4453C34.5867 11.707 34.4031 11.9238 34.1609 12.0957C33.9188 12.2676 33.6199 12.3867 33.2645 12.4531V12.5117C33.6395 12.5703 33.9715 12.6777 34.2605 12.834C34.5496 12.9902 34.7762 13.209 34.9402 13.4902C35.1043 13.7715 35.1863 14.1289 35.1863 14.5625C35.1863 15.0898 35.0633 15.5352 34.8172 15.8984C34.575 16.2617 34.2313 16.5371 33.7859 16.7246C33.3406 16.9082 32.8133 17 32.2039 17H29.2566V8.43359ZM30.2527 12.1074H31.8934C32.6395 12.1074 33.1551 11.9844 33.4402 11.7383C33.7293 11.4922 33.8738 11.1328 33.8738 10.6602C33.8738 10.1719 33.702 9.82031 33.3582 9.60547C33.0184 9.39062 32.4754 9.2832 31.7293 9.2832H30.2527V12.1074ZM30.2527 12.9453V16.1504H32.034C32.7957 16.1504 33.3348 16.002 33.6512 15.7051C33.9676 15.4043 34.1258 15 34.1258 14.4922C34.1258 14.168 34.0535 13.8906 33.909 13.6602C33.7684 13.4297 33.5379 13.2539 33.2176 13.1328C32.9012 13.0078 32.4773 12.9453 31.9461 12.9453H30.2527ZM39.3903 10.4727C40.1559 10.4727 40.7243 10.6445 41.0954 10.9883C41.4665 11.332 41.652 11.8809 41.652 12.6348V17H40.943L40.7555 16.0508H40.7087C40.529 16.2852 40.3415 16.4824 40.1462 16.6426C39.9509 16.7988 39.7243 16.918 39.4665 17C39.2126 17.0781 38.9001 17.1172 38.529 17.1172C38.1384 17.1172 37.7907 17.0488 37.486 16.9121C37.1852 16.7754 36.947 16.5684 36.7712 16.291C36.5993 16.0137 36.5134 15.6621 36.5134 15.2363C36.5134 14.5957 36.7673 14.1035 37.2751 13.7598C37.7829 13.416 38.5563 13.2285 39.5954 13.1973L40.7028 13.1504V12.7578C40.7028 12.2031 40.5837 11.8145 40.3454 11.5918C40.1071 11.3691 39.7712 11.2578 39.3376 11.2578C39.0016 11.2578 38.6813 11.3066 38.3766 11.4043C38.072 11.502 37.7829 11.6172 37.5095 11.75L37.2106 11.0117C37.4997 10.8633 37.8317 10.7363 38.2067 10.6309C38.5817 10.5254 38.9763 10.4727 39.3903 10.4727ZM40.6911 13.8359L39.7126 13.877C38.9118 13.9082 38.3473 14.0391 38.0192 14.2695C37.6911 14.5 37.527 14.8262 37.527 15.248C37.527 15.6152 37.6384 15.8867 37.861 16.0625C38.0837 16.2383 38.3786 16.3262 38.7458 16.3262C39.3161 16.3262 39.7829 16.168 40.1462 15.8516C40.5095 15.5352 40.6911 15.0605 40.6911 14.4277V13.8359ZM46.817 10.4609C47.5787 10.4609 48.1548 10.6484 48.5455 11.0234C48.9361 11.3945 49.1314 11.9922 49.1314 12.8164V17H48.1705V12.8809C48.1705 12.3457 48.0474 11.9453 47.8013 11.6797C47.5591 11.4141 47.1861 11.2812 46.6822 11.2812C45.9713 11.2812 45.4713 11.4824 45.1822 11.8848C44.8931 12.2871 44.7486 12.8711 44.7486 13.6367V17H43.7759V10.5781H44.5611L44.7076 11.5039H44.7603C44.897 11.2773 45.0709 11.0879 45.2818 10.9355C45.4927 10.7793 45.7291 10.6621 45.9908 10.584C46.2525 10.502 46.5279 10.4609 46.817 10.4609ZM54.2963 10.4609C55.058 10.4609 55.6342 10.6484 56.0248 11.0234C56.4155 11.3945 56.6108 11.9922 56.6108 12.8164V17H55.6498V12.8809C55.6498 12.3457 55.5268 11.9453 55.2807 11.6797C55.0385 11.4141 54.6655 11.2812 54.1616 11.2812C53.4506 11.2812 52.9506 11.4824 52.6616 11.8848C52.3725 12.2871 52.228 12.8711 52.228 13.6367V17H51.2553V10.5781H52.0405L52.187 11.5039H52.2397C52.3764 11.2773 52.5502 11.0879 52.7612 10.9355C52.9721 10.7793 53.2084 10.6621 53.4702 10.584C53.7319 10.502 54.0073 10.4609 54.2963 10.4609ZM61.2073 10.4609C61.7542 10.4609 62.223 10.582 62.6136 10.8242C63.0042 11.0664 63.303 11.4062 63.5101 11.8438C63.7171 12.2773 63.8206 12.7852 63.8206 13.3672V13.9707H59.3851C59.3968 14.7246 59.5843 15.2988 59.9476 15.6934C60.3109 16.0879 60.8226 16.2852 61.4827 16.2852C61.889 16.2852 62.2484 16.248 62.5609 16.1738C62.8734 16.0996 63.1976 15.9902 63.5335 15.8457V16.7012C63.2093 16.8457 62.887 16.9512 62.5667 17.0176C62.2503 17.084 61.8753 17.1172 61.4417 17.1172C60.8245 17.1172 60.2855 16.9922 59.8245 16.7422C59.3675 16.4883 59.012 16.1172 58.7581 15.6289C58.5042 15.1406 58.3773 14.543 58.3773 13.8359C58.3773 13.1445 58.4925 12.5469 58.723 12.043C58.9573 11.5352 59.2855 11.1445 59.7073 10.8711C60.1331 10.5977 60.6331 10.4609 61.2073 10.4609ZM61.1956 11.2578C60.6761 11.2578 60.262 11.4277 59.9534 11.7676C59.6448 12.1074 59.4613 12.582 59.4027 13.1914H62.8011C62.7972 12.8086 62.7366 12.4727 62.6195 12.1836C62.5062 11.8906 62.3323 11.6641 62.098 11.5039C61.8636 11.3398 61.5628 11.2578 61.1956 11.2578ZM67.8781 17.1172C67.0656 17.1172 66.4211 16.8398 65.9445 16.2852C65.4719 15.7305 65.2355 14.9062 65.2355 13.8125C65.2355 12.707 65.4777 11.873 65.9621 11.3105C66.4465 10.7441 67.091 10.4609 67.8957 10.4609C68.2355 10.4609 68.5324 10.5059 68.7863 10.5957C69.0402 10.6855 69.259 10.8066 69.4426 10.959C69.6262 11.1074 69.7805 11.2773 69.9055 11.4688H69.9758C69.9602 11.3477 69.9445 11.1816 69.9289 10.9707C69.9133 10.7598 69.9055 10.5879 69.9055 10.4551V7.88281H70.8781V17H70.093L69.9465 16.0859H69.9055C69.7844 16.2773 69.6301 16.4512 69.4426 16.6074C69.259 16.7637 69.0383 16.8887 68.7805 16.9824C68.5266 17.0723 68.2258 17.1172 67.8781 17.1172ZM68.0305 16.3086C68.718 16.3086 69.2043 16.1133 69.4895 15.7227C69.7746 15.332 69.9172 14.752 69.9172 13.9824V13.8066C69.9172 12.9902 69.7805 12.3633 69.507 11.9258C69.2375 11.4883 68.7453 11.2695 68.0305 11.2695C67.4328 11.2695 66.9855 11.5 66.6887 11.9609C66.3918 12.418 66.2434 13.043 66.2434 13.8359C66.2434 14.625 66.3898 15.2344 66.6828 15.6641C66.9797 16.0938 67.4289 16.3086 68.0305 16.3086Z" fill="#D72C27"/>
</svg>
