<svg width="80" height="44" viewBox="0 0 90 44" fill="none" xmlns="http://www.w3.org/2000/svg">
<rect x="31" width="24" height="24" rx="12" fill="#00902B"/>
<path d="M47.4733 8.80657C47.4114 8.74409 47.3376 8.69449 47.2564 8.66065C47.1752 8.6268 47.088 8.60938 47 8.60938C46.912 8.60938 46.8249 8.6268 46.7436 8.66065C46.6624 8.69449 46.5886 8.74409 46.5267 8.80657L41.56 13.7799L39.4733 11.6866C39.409 11.6244 39.333 11.5755 39.2498 11.5427C39.1666 11.5099 39.0777 11.4938 38.9882 11.4954C38.8988 11.4969 38.8105 11.5161 38.7284 11.5518C38.6464 11.5874 38.5722 11.6389 38.51 11.7032C38.4478 11.7676 38.399 11.8435 38.3662 11.9268C38.3334 12.01 38.3173 12.0989 38.3188 12.1884C38.3204 12.2778 38.3395 12.3661 38.3752 12.4481C38.4109 12.5302 38.4623 12.6044 38.5267 12.6666L41.0867 15.2266C41.1487 15.289 41.2224 15.3385 41.3037 15.3723C41.3849 15.4061 41.472 15.4235 41.56 15.4235C41.648 15.4235 41.7351 15.4061 41.8163 15.3723C41.8976 15.3385 41.9713 15.289 42.0333 15.2266L47.4733 9.78657C47.541 9.72415 47.595 9.64838 47.632 9.56404C47.6689 9.47971 47.688 9.38864 47.688 9.29657C47.688 9.20451 47.6689 9.11344 47.632 9.0291C47.595 8.94477 47.541 8.869 47.4733 8.80657Z" fill="white"/>
<path d="M5.17188 33.1895C4.69922 33.1895 4.27344 33.2715 3.89453 33.4355C3.51953 33.5957 3.19922 33.8301 2.93359 34.1387C2.67188 34.4434 2.4707 34.8125 2.33008 35.2461C2.18945 35.6797 2.11914 36.168 2.11914 36.7109C2.11914 37.4297 2.23047 38.0547 2.45312 38.5859C2.67969 39.1133 3.01562 39.5215 3.46094 39.8105C3.91016 40.0996 4.4707 40.2441 5.14258 40.2441C5.52539 40.2441 5.88477 40.2129 6.2207 40.1504C6.56055 40.084 6.89062 40.002 7.21094 39.9043V40.7715C6.89844 40.8887 6.57031 40.9746 6.22656 41.0293C5.88281 41.0879 5.47461 41.1172 5.00195 41.1172C4.13086 41.1172 3.40234 40.9375 2.81641 40.5781C2.23438 40.2148 1.79688 39.7031 1.50391 39.043C1.21484 38.3828 1.07031 37.6035 1.07031 36.7051C1.07031 36.0566 1.16016 35.4648 1.33984 34.9297C1.52344 34.3906 1.78906 33.9258 2.13672 33.5352C2.48828 33.1445 2.91797 32.8438 3.42578 32.6328C3.9375 32.418 4.52344 32.3105 5.18359 32.3105C5.61719 32.3105 6.03516 32.3535 6.4375 32.4395C6.83984 32.5254 7.20312 32.6484 7.52734 32.8086L7.12891 33.6523C6.85547 33.5273 6.55469 33.4199 6.22656 33.3301C5.90234 33.2363 5.55078 33.1895 5.17188 33.1895ZM11.8398 34.4609C11.9688 34.4609 12.1035 34.4688 12.2441 34.4844C12.3848 34.4961 12.5098 34.5137 12.6191 34.5371L12.4961 35.4395C12.3906 35.4121 12.2734 35.3906 12.1445 35.375C12.0156 35.3594 11.8945 35.3516 11.7812 35.3516C11.5234 35.3516 11.2793 35.4043 11.0488 35.5098C10.8223 35.6113 10.623 35.7598 10.4512 35.9551C10.2793 36.1465 10.1445 36.3789 10.0469 36.6523C9.94922 36.9219 9.90039 37.2227 9.90039 37.5547V41H8.92188V34.5781H9.73047L9.83594 35.7617H9.87695C10.0098 35.5234 10.1699 35.3066 10.3574 35.1113C10.5449 34.9121 10.7617 34.7539 11.0078 34.6367C11.2578 34.5195 11.5352 34.4609 11.8398 34.4609ZM16.3047 34.4609C16.8516 34.4609 17.3203 34.582 17.7109 34.8242C18.1016 35.0664 18.4004 35.4062 18.6074 35.8438C18.8145 36.2773 18.918 36.7852 18.918 37.3672V37.9707H14.4824C14.4941 38.7246 14.6816 39.2988 15.0449 39.6934C15.4082 40.0879 15.9199 40.2852 16.5801 40.2852C16.9863 40.2852 17.3457 40.248 17.6582 40.1738C17.9707 40.0996 18.2949 39.9902 18.6309 39.8457V40.7012C18.3066 40.8457 17.9844 40.9512 17.6641 41.0176C17.3477 41.084 16.9727 41.1172 16.5391 41.1172C15.9219 41.1172 15.3828 40.9922 14.9219 40.7422C14.4648 40.4883 14.1094 40.1172 13.8555 39.6289C13.6016 39.1406 13.4746 38.543 13.4746 37.8359C13.4746 37.1445 13.5898 36.5469 13.8203 36.043C14.0547 35.5352 14.3828 35.1445 14.8047 34.8711C15.2305 34.5977 15.7305 34.4609 16.3047 34.4609ZM16.293 35.2578C15.7734 35.2578 15.3594 35.4277 15.0508 35.7676C14.7422 36.1074 14.5586 36.582 14.5 37.1914H17.8984C17.8945 36.8086 17.834 36.4727 17.7168 36.1836C17.6035 35.8906 17.4297 35.6641 17.1953 35.5039C16.9609 35.3398 16.6602 35.2578 16.293 35.2578ZM22.9727 34.4727C23.7383 34.4727 24.3066 34.6445 24.6777 34.9883C25.0488 35.332 25.2344 35.8809 25.2344 36.6348V41H24.5254L24.3379 40.0508H24.291C24.1113 40.2852 23.9238 40.4824 23.7285 40.6426C23.5332 40.7988 23.3066 40.918 23.0488 41C22.7949 41.0781 22.4824 41.1172 22.1113 41.1172C21.7207 41.1172 21.373 41.0488 21.0684 40.9121C20.7676 40.7754 20.5293 40.5684 20.3535 40.291C20.1816 40.0137 20.0957 39.6621 20.0957 39.2363C20.0957 38.5957 20.3496 38.1035 20.8574 37.7598C21.3652 37.416 22.1387 37.2285 23.1777 37.1973L24.2852 37.1504V36.7578C24.2852 36.2031 24.166 35.8145 23.9277 35.5918C23.6895 35.3691 23.3535 35.2578 22.9199 35.2578C22.584 35.2578 22.2637 35.3066 21.959 35.4043C21.6543 35.502 21.3652 35.6172 21.0918 35.75L20.793 35.0117C21.082 34.8633 21.4141 34.7363 21.7891 34.6309C22.1641 34.5254 22.5586 34.4727 22.9727 34.4727ZM24.2734 37.8359L23.2949 37.877C22.4941 37.9082 21.9297 38.0391 21.6016 38.2695C21.2734 38.5 21.1094 38.8262 21.1094 39.248C21.1094 39.6152 21.2207 39.8867 21.4434 40.0625C21.666 40.2383 21.9609 40.3262 22.3281 40.3262C22.8984 40.3262 23.3652 40.168 23.7285 39.8516C24.0918 39.5352 24.2734 39.0605 24.2734 38.4277V37.8359ZM29.3125 40.3203C29.4727 40.3203 29.6367 40.3066 29.8047 40.2793C29.9727 40.252 30.1094 40.2188 30.2148 40.1797V40.9355C30.1016 40.9863 29.9434 41.0293 29.7402 41.0645C29.541 41.0996 29.3457 41.1172 29.1543 41.1172C28.8145 41.1172 28.5059 41.0586 28.2285 40.9414C27.9512 40.8203 27.7285 40.6172 27.5605 40.332C27.3965 40.0469 27.3145 39.6523 27.3145 39.1484V35.3398H26.4004V34.8652L27.3203 34.4844L27.707 33.0898H28.293V34.5781H30.1738V35.3398H28.293V39.1191C28.293 39.5215 28.3848 39.8223 28.5684 40.0215C28.7559 40.2207 29.0039 40.3203 29.3125 40.3203ZM33.9883 34.4609C34.5352 34.4609 35.0039 34.582 35.3945 34.8242C35.7852 35.0664 36.084 35.4062 36.291 35.8438C36.498 36.2773 36.6016 36.7852 36.6016 37.3672V37.9707H32.166C32.1777 38.7246 32.3652 39.2988 32.7285 39.6934C33.0918 40.0879 33.6035 40.2852 34.2637 40.2852C34.6699 40.2852 35.0293 40.248 35.3418 40.1738C35.6543 40.0996 35.9785 39.9902 36.3145 39.8457V40.7012C35.9902 40.8457 35.668 40.9512 35.3477 41.0176C35.0312 41.084 34.6562 41.1172 34.2227 41.1172C33.6055 41.1172 33.0664 40.9922 32.6055 40.7422C32.1484 40.4883 31.793 40.1172 31.5391 39.6289C31.2852 39.1406 31.1582 38.543 31.1582 37.8359C31.1582 37.1445 31.2734 36.5469 31.5039 36.043C31.7383 35.5352 32.0664 35.1445 32.4883 34.8711C32.9141 34.5977 33.4141 34.4609 33.9883 34.4609ZM33.9766 35.2578C33.457 35.2578 33.043 35.4277 32.7344 35.7676C32.4258 36.1074 32.2422 36.582 32.1836 37.1914H35.582C35.5781 36.8086 35.5176 36.4727 35.4004 36.1836C35.2871 35.8906 35.1133 35.6641 34.8789 35.5039C34.6445 35.3398 34.3438 35.2578 33.9766 35.2578ZM46.8906 41L45.8359 38.2812H42.4023L41.3535 41H40.3457L43.6973 32.3984H44.5938L47.9219 41H46.8906ZM45.5371 37.3965L44.5352 34.6953C44.5117 34.625 44.4727 34.5098 44.418 34.3496C44.3672 34.1895 44.3145 34.0234 44.2598 33.8516C44.2051 33.6797 44.1602 33.541 44.125 33.4355C44.0859 33.5957 44.043 33.7559 43.9961 33.916C43.9531 34.0723 43.9102 34.2188 43.8672 34.3555C43.8242 34.4883 43.7871 34.6016 43.7559 34.6953L42.7363 37.3965H45.5371ZM51.5371 41.1172C50.959 41.1172 50.4492 40.998 50.0078 40.7598C49.5664 40.5215 49.2227 40.1582 48.9766 39.6699C48.7305 39.1816 48.6074 38.5664 48.6074 37.8242C48.6074 37.0469 48.7363 36.4121 48.9941 35.9199C49.2559 35.4238 49.6152 35.0566 50.0723 34.8184C50.5293 34.5801 51.0488 34.4609 51.6309 34.4609C51.9512 34.4609 52.2598 34.4941 52.5566 34.5605C52.8574 34.623 53.1035 34.7031 53.2949 34.8008L53.002 35.6152C52.8066 35.5371 52.5801 35.4668 52.3223 35.4043C52.0684 35.3418 51.8301 35.3105 51.6074 35.3105C51.1621 35.3105 50.791 35.4062 50.4941 35.5977C50.2012 35.7891 49.9805 36.0703 49.832 36.4414C49.6875 36.8125 49.6152 37.2695 49.6152 37.8125C49.6152 38.332 49.6855 38.7754 49.8262 39.1426C49.9707 39.5098 50.1836 39.791 50.4648 39.9863C50.75 40.1777 51.1055 40.2734 51.5312 40.2734C51.8711 40.2734 52.1777 40.2383 52.4512 40.168C52.7246 40.0938 52.9727 40.0078 53.1953 39.9102V40.7773C52.9805 40.8867 52.7402 40.9707 52.4746 41.0293C52.2129 41.0879 51.9004 41.1172 51.5371 41.1172ZM57.291 41.1172C56.7129 41.1172 56.2031 40.998 55.7617 40.7598C55.3203 40.5215 54.9766 40.1582 54.7305 39.6699C54.4844 39.1816 54.3613 38.5664 54.3613 37.8242C54.3613 37.0469 54.4902 36.4121 54.748 35.9199C55.0098 35.4238 55.3691 35.0566 55.8262 34.8184C56.2832 34.5801 56.8027 34.4609 57.3848 34.4609C57.7051 34.4609 58.0137 34.4941 58.3105 34.5605C58.6113 34.623 58.8574 34.7031 59.0488 34.8008L58.7559 35.6152C58.5605 35.5371 58.334 35.4668 58.0762 35.4043C57.8223 35.3418 57.584 35.3105 57.3613 35.3105C56.916 35.3105 56.5449 35.4062 56.248 35.5977C55.9551 35.7891 55.7344 36.0703 55.5859 36.4414C55.4414 36.8125 55.3691 37.2695 55.3691 37.8125C55.3691 38.332 55.4395 38.7754 55.5801 39.1426C55.7246 39.5098 55.9375 39.791 56.2188 39.9863C56.5039 40.1777 56.8594 40.2734 57.2852 40.2734C57.625 40.2734 57.9316 40.2383 58.2051 40.168C58.4785 40.0938 58.7266 40.0078 58.9492 39.9102V40.7773C58.7344 40.8867 58.4941 40.9707 58.2285 41.0293C57.9668 41.0879 57.6543 41.1172 57.291 41.1172ZM66.0098 37.7773C66.0098 38.3047 65.9414 38.7754 65.8047 39.1895C65.668 39.6035 65.4707 39.9531 65.2129 40.2383C64.9551 40.5234 64.6426 40.7422 64.2754 40.8945C63.9121 41.043 63.5 41.1172 63.0391 41.1172C62.6094 41.1172 62.2148 41.043 61.8555 40.8945C61.5 40.7422 61.1914 40.5234 60.9297 40.2383C60.6719 39.9531 60.4707 39.6035 60.3262 39.1895C60.1855 38.7754 60.1152 38.3047 60.1152 37.7773C60.1152 37.0742 60.2344 36.4766 60.4727 35.9844C60.7109 35.4883 61.0508 35.1113 61.4922 34.8535C61.9375 34.5918 62.4668 34.4609 63.0801 34.4609C63.666 34.4609 64.1777 34.5918 64.6152 34.8535C65.0566 35.1152 65.3984 35.4941 65.6406 35.9902C65.8867 36.4824 66.0098 37.0781 66.0098 37.7773ZM61.123 37.7773C61.123 38.293 61.1914 38.7402 61.3281 39.1191C61.4648 39.498 61.6758 39.791 61.9609 39.998C62.2461 40.2051 62.6133 40.3086 63.0625 40.3086C63.5078 40.3086 63.873 40.2051 64.1582 39.998C64.4473 39.791 64.6602 39.498 64.7969 39.1191C64.9336 38.7402 65.002 38.293 65.002 37.7773C65.002 37.2656 64.9336 36.8242 64.7969 36.4531C64.6602 36.0781 64.4492 35.7891 64.1641 35.5859C63.8789 35.3828 63.5098 35.2812 63.0566 35.2812C62.3887 35.2812 61.8984 35.502 61.5859 35.9434C61.2773 36.3848 61.123 36.9961 61.123 37.7773ZM72.9941 34.5781V41H72.1973L72.0566 40.0977H72.0039C71.8711 40.3203 71.6992 40.5078 71.4883 40.6602C71.2773 40.8125 71.0391 40.9258 70.7734 41C70.5117 41.0781 70.2324 41.1172 69.9355 41.1172C69.4277 41.1172 69.002 41.0352 68.6582 40.8711C68.3145 40.707 68.0547 40.4531 67.8789 40.1094C67.707 39.7656 67.6211 39.3242 67.6211 38.7852V34.5781H68.6055V38.7148C68.6055 39.25 68.7266 39.6504 68.9688 39.916C69.2109 40.1777 69.5801 40.3086 70.0762 40.3086C70.5527 40.3086 70.9316 40.2188 71.2129 40.0391C71.498 39.8594 71.7031 39.5957 71.8281 39.248C71.9531 38.8965 72.0156 38.4668 72.0156 37.959V34.5781H72.9941ZM78.0918 34.4609C78.8535 34.4609 79.4297 34.6484 79.8203 35.0234C80.2109 35.3945 80.4062 35.9922 80.4062 36.8164V41H79.4453V36.8809C79.4453 36.3457 79.3223 35.9453 79.0762 35.6797C78.834 35.4141 78.4609 35.2812 77.957 35.2812C77.2461 35.2812 76.7461 35.4824 76.457 35.8848C76.168 36.2871 76.0234 36.8711 76.0234 37.6367V41H75.0508V34.5781H75.8359L75.9824 35.5039H76.0352C76.1719 35.2773 76.3457 35.0879 76.5566 34.9355C76.7676 34.7793 77.0039 34.6621 77.2656 34.584C77.5273 34.502 77.8027 34.4609 78.0918 34.4609ZM84.4844 40.3203C84.6445 40.3203 84.8086 40.3066 84.9766 40.2793C85.1445 40.252 85.2812 40.2188 85.3867 40.1797V40.9355C85.2734 40.9863 85.1152 41.0293 84.9121 41.0645C84.7129 41.0996 84.5176 41.1172 84.3262 41.1172C83.9863 41.1172 83.6777 41.0586 83.4004 40.9414C83.123 40.8203 82.9004 40.6172 82.7324 40.332C82.5684 40.0469 82.4863 39.6523 82.4863 39.1484V35.3398H81.5723V34.8652L82.4922 34.4844L82.8789 33.0898H83.4648V34.5781H85.3457V35.3398H83.4648V39.1191C83.4648 39.5215 83.5566 39.8223 83.7402 40.0215C83.9277 40.2207 84.1758 40.3203 84.4844 40.3203Z" fill="#00902B"/>
</svg>
