<svg width="21" height="20" viewBox="0 0 21 20" fill="none" xmlns="http://www.w3.org/2000/svg">
<path d="M18.6712 8.36775H18V8.33317H10.5V11.6665H15.2095C14.5225 13.6069 12.6762 14.9998 10.5 14.9998C7.73871 14.9998 5.49996 12.7611 5.49996 9.99984C5.49996 7.23859 7.73871 4.99984 10.5 4.99984C11.7745 4.99984 12.9341 5.48067 13.817 6.26609L16.1741 3.909C14.6858 2.52192 12.695 1.6665 10.5 1.6665C5.89788 1.6665 2.16663 5.39775 2.16663 9.99984C2.16663 14.6019 5.89788 18.3332 10.5 18.3332C15.102 18.3332 18.8333 14.6019 18.8333 9.99984C18.8333 9.44109 18.7758 8.89567 18.6712 8.36775Z" fill="#FFC107"/>
<path d="M3.12781 6.12109L5.86572 8.129C6.60656 6.29484 8.40072 4.99984 10.5003 4.99984C11.7749 4.99984 12.9345 5.48067 13.8174 6.26609L16.1745 3.909C14.6861 2.52192 12.6953 1.6665 10.5003 1.6665C7.29947 1.6665 4.52364 3.47359 3.12781 6.12109Z" fill="#FF3D00"/>
<path d="M10.5002 18.3331C12.6527 18.3331 14.6085 17.5094 16.0873 16.1698L13.5081 13.9873C12.6433 14.645 11.5866 15.0007 10.5002 14.9998C8.33267 14.9998 6.49225 13.6177 5.79892 11.689L3.08142 13.7827C4.46059 16.4815 7.26142 18.3331 10.5002 18.3331Z" fill="#4CAF50"/>
<path d="M18.6712 8.36808H18V8.3335H10.5V11.6668H15.2096C14.8809 12.5903 14.2889 13.3973 13.5067 13.9881L13.5079 13.9872L16.0871 16.1697C15.9046 16.3356 18.8333 14.1668 18.8333 10.0002C18.8333 9.44141 18.7758 8.896 18.6712 8.36808Z" fill="#1976D2"/>
</svg>
