<svg width="450" height="330" viewBox="0 0 450 310" fill="none" xmlns="http://www.w3.org/2000/svg">
<path d="M61.6861 296.09C30.0733 262.394 -13.1322 227.602 3.8102 175.047C14.9519 140.479 42.2839 130.843 64.9851 109.527C76.193 99.0081 69.1441 83.6957 68.9352 68.4991C68.4599 29.5797 112.828 -0.620867 153.617 0.00969606C197.799 0.691386 216.925 44.1764 253.987 46.5078C268.541 46.7259 281.573 38.365 294.449 31.7236C332.602 12.0432 393.141 24.5931 396.2 72.1853C396.99 97.8884 367.108 139.238 397.048 152.756C420.909 163.53 445.015 167.497 449.315 206.032C454.943 256.468 425.184 284.143 386.415 297.129L61.6861 296.09Z" fill="#BEEECB"/>
<path d="M37.9639 216.343C39.4898 216.343 40.7267 215.131 40.7267 213.637C40.7267 212.142 39.4898 210.931 37.9639 210.931C36.4381 210.931 35.2012 212.142 35.2012 213.637C35.2012 215.131 36.4381 216.343 37.9639 216.343Z" fill="#F8F8F8"/>
<path d="M408.138 213.637C408.138 214.172 408.3 214.696 408.604 215.141C408.908 215.586 409.34 215.933 409.845 216.137C410.35 216.342 410.906 216.395 411.442 216.29C411.978 216.185 412.471 215.927 412.857 215.548C413.243 215.169 413.505 214.686 413.611 214.161C413.717 213.636 413.662 213.091 413.452 212.597C413.242 212.103 412.887 211.681 412.431 211.384C411.976 211.087 411.442 210.93 410.895 210.931C410.532 210.931 410.173 211.001 409.839 211.137C409.504 211.273 409.2 211.472 408.943 211.724C408.687 211.975 408.484 212.273 408.346 212.602C408.208 212.93 408.137 213.282 408.138 213.637Z" fill="#F8F8F8"/>
<path d="M108.43 189.951L103.013 185.824C103.182 184.379 103.182 182.919 103.013 181.474L108.43 177.347C108.921 176.96 109.254 176.415 109.371 175.809C109.488 175.203 109.381 174.576 109.068 174.04L103.446 164.52C103.132 163.98 102.631 163.568 102.035 163.357C101.438 163.146 100.784 163.151 100.19 163.37L93.8218 165.881C92.6242 165.031 91.3415 164.303 89.9937 163.706L89.0125 157.074C88.9277 156.459 88.6168 155.895 88.1382 155.488C87.6596 155.082 87.0461 154.859 86.4123 154.864H75.1446C74.5152 154.86 73.9061 155.081 73.4302 155.484C72.9542 155.888 72.6437 156.446 72.5563 157.057L71.5752 163.706C70.2323 164.308 68.9523 165.037 67.7531 165.881L61.3608 163.37C60.7757 163.143 60.1263 163.131 59.533 163.337C58.9397 163.543 58.4428 163.953 58.1346 164.49L52.5067 174.034C52.1868 174.571 52.0751 175.203 52.1923 175.813C52.3095 176.424 52.6477 176.973 53.1448 177.359L58.5619 181.486C58.3934 182.931 58.3934 184.391 58.5619 185.836L53.1448 189.963C52.6528 190.35 52.3182 190.896 52.2012 191.504C52.0842 192.111 52.1926 192.74 52.5067 193.276L58.1226 202.767C58.4341 203.308 58.9334 203.721 59.5299 203.932C60.1264 204.143 60.7803 204.138 61.3729 203.916L67.7471 201.405C68.946 202.255 70.2284 202.986 71.5752 203.586L72.5563 210.212C72.641 210.825 72.95 211.387 73.4261 211.794C73.9022 212.201 74.5129 212.424 75.1446 212.423H86.4183C87.0483 212.426 87.6582 212.206 88.1352 211.803C88.6121 211.4 88.9238 210.841 89.0125 210.23L89.9937 203.58C91.3365 202.978 92.6166 202.25 93.8158 201.405L100.214 203.946C100.8 204.17 101.449 204.18 102.042 203.973C102.635 203.766 103.131 203.357 103.44 202.82L109.086 193.24C109.392 192.705 109.494 192.08 109.374 191.478C109.253 190.876 108.919 190.335 108.43 189.951ZM80.7784 195.64C78.3546 195.64 75.9853 194.936 73.97 193.617C71.9547 192.298 70.3839 190.424 69.4564 188.23C68.5289 186.037 68.2862 183.624 68.759 181.296C69.2319 178.968 70.399 176.829 72.1129 175.15C73.8268 173.472 76.0104 172.329 78.3876 171.866C80.7648 171.403 83.2289 171.64 85.4682 172.549C87.7074 173.457 89.6214 174.995 90.968 176.969C92.3146 178.943 93.0333 181.263 93.0333 183.637C93.0333 185.213 92.7163 186.774 92.1005 188.23C91.4846 189.687 90.5819 191.01 89.4439 192.124C88.306 193.239 86.955 194.123 85.4682 194.726C83.9813 195.329 82.3878 195.64 80.7784 195.64Z" fill="white"/>
<path d="M365.186 97.3158L358.21 91.9749C358.427 90.1102 358.427 88.2275 358.21 86.3628L365.192 81.0219C365.826 80.5214 366.256 79.8157 366.405 79.032C366.554 78.2483 366.412 77.4382 366.005 76.7479L358.782 64.4627C358.376 63.7638 357.728 63.2304 356.955 62.959C356.182 62.6876 355.335 62.6961 354.568 62.983L346.346 66.2253C344.8 65.1282 343.144 64.1861 341.405 63.4133L340.123 54.8596C340.012 54.0664 339.609 53.34 338.991 52.816C338.373 52.292 337.581 52.0063 336.764 52.0123H322.24C321.429 52.0075 320.644 52.2911 320.031 52.8105C319.418 53.3299 319.018 54.0496 318.905 54.836L317.641 63.4133C315.906 64.1907 314.253 65.1325 312.706 66.2253L304.466 62.983C303.71 62.6901 302.871 62.6757 302.105 62.9423C301.339 63.209 300.698 63.7387 300.3 64.4332L293.035 76.7421C292.621 77.4335 292.476 78.2484 292.628 79.0362C292.78 79.824 293.217 80.5314 293.86 81.0278L300.836 86.3746C300.619 88.2373 300.619 90.1181 300.836 91.9808L293.854 97.3276C293.219 97.8253 292.786 98.5289 292.634 99.3114C292.482 100.094 292.62 100.904 293.023 101.596L300.282 113.881C300.686 114.583 301.333 115.119 302.107 115.392C302.88 115.664 303.728 115.655 304.496 115.366L312.712 112.124C314.26 113.223 315.917 114.165 317.659 114.936L318.923 123.484C319.03 124.275 319.428 125.001 320.041 125.526C320.655 126.052 321.443 126.34 322.258 126.337H336.806C337.618 126.342 338.405 126.059 339.02 125.54C339.635 125.021 340.038 124.301 340.153 123.513L341.417 114.936C343.151 114.157 344.804 113.216 346.352 112.124L354.568 115.372C355.325 115.663 356.164 115.676 356.93 115.409C357.695 115.141 358.336 114.611 358.734 113.916L366.017 101.537C366.407 100.85 366.538 100.05 366.386 99.2781C366.234 98.5061 365.809 97.8113 365.186 97.3158ZM329.517 104.655C326.389 104.656 323.331 103.749 320.73 102.048C318.129 100.346 316.101 97.9279 314.904 95.0979C313.706 92.2679 313.392 89.1536 314.002 86.149C314.612 83.1444 316.118 80.3845 318.33 78.2184C320.542 76.0522 323.36 74.5772 326.428 73.9798C329.495 73.3824 332.675 73.6896 335.565 74.8625C338.454 76.0353 340.924 78.0212 342.661 80.5688C344.398 83.1164 345.324 86.1113 345.323 89.1747C345.323 93.2804 343.658 97.2179 340.694 100.121C337.729 103.024 333.709 104.655 329.517 104.655Z" fill="white"/>
<path d="M86.5199 78.6023C91.9615 73.2728 91.9615 64.632 86.5199 59.3025C81.0782 53.973 72.2556 53.973 66.8139 59.3025C61.3723 64.632 61.3723 73.2728 66.8139 78.6023C72.2556 83.9318 81.0782 83.9318 86.5199 78.6023Z" fill="#59D887"/>
<path d="M74.7173 61.5798L76.3485 71.5837L84.6127 70.2927" stroke="white" stroke-miterlimit="10"/>
<path d="M258.858 56.168H233.804V85.2345H258.858V56.168Z" fill="white"/>
<path d="M233.692 59.6932V61.8744H236.503V56.4509C235.719 56.5779 235.006 56.9735 234.491 57.5673C233.976 58.161 233.693 58.9143 233.692 59.6932Z" fill="white"/>
<path d="M243.282 65.1118H239.328V68.9849H243.282V65.1118Z" fill="white"/>
<path d="M258.655 65.1118H245.238V66.0786H258.655V65.1118Z" fill="white"/>
<path d="M258.655 68.0173H245.238V68.9841H258.655V68.0173Z" fill="white"/>
<path d="M243.282 73.8706H239.328V77.7437H243.282V73.8706Z" fill="white"/>
<path d="M258.655 73.8706H245.238V74.8374H258.655V73.8706Z" fill="white"/>
<path d="M258.655 76.7773H245.238V77.7441H258.655V76.7773Z" fill="white"/>
<path d="M241.638 67.8518L239.995 66.4606L240.657 65.706L241.499 66.4252L243.221 64.303L244.009 64.922L241.638 67.8518Z" fill="white"/>
<path d="M241.638 76.3887L239.995 74.9974L240.657 74.2488L241.499 74.9621L243.221 72.8398L244.009 73.4588L241.638 76.3887Z" fill="white"/>
<path d="M257.462 53.9988H232.489V83.9692H257.462V53.9988Z" fill="#59D887"/>
<path d="M239.268 62.6704H235.313V66.5435H239.268V62.6704Z" fill="white"/>
<path d="M254.646 62.6704H241.229V63.6372H254.646V62.6704Z" fill="black" fill-opacity="0.25"/>
<path d="M254.646 65.5774H241.229V66.5442H254.646V65.5774Z" fill="black" fill-opacity="0.25"/>
<path d="M239.268 71.4243H235.313V75.2974H239.268V71.4243Z" fill="white"/>
<path d="M254.646 71.4243H241.229V72.3911H254.646V71.4243Z" fill="black" fill-opacity="0.25"/>
<path d="M254.646 74.3362H241.229V75.303H254.646V74.3362Z" fill="black" fill-opacity="0.25"/>
<path d="M237.629 65.4057L235.986 64.0145L236.648 63.2658L237.491 63.9791L239.212 61.8628L240.001 62.4759L237.629 65.4057Z" fill="black" fill-opacity="0.25"/>
<path d="M237.629 73.9475L235.986 72.5563L236.648 71.8017L237.491 72.5209L239.212 70.3987L240.001 71.0177L237.629 73.9475Z" fill="black" fill-opacity="0.25"/>
<path d="M107.124 94.8979H340.111C343.069 94.8979 345.449 97.244 345.449 100.116V250.251C345.449 253.124 343.069 255.47 340.111 255.47H107.124C104.165 255.47 101.785 253.124 101.785 250.251V100.116C101.785 97.244 104.165 94.8979 107.124 94.8979Z" fill="#59D887" stroke="#006F16"/>
<path d="M338.227 248.4V101.967L109.013 101.967V248.4H338.227Z" fill="#F7F6F5"/>
<path d="M306.621 124.645H162.849C158.999 124.645 155.878 127.701 155.878 131.471V231.823C155.878 235.593 158.999 238.649 162.849 238.649H306.621C310.47 238.649 313.591 235.593 313.591 231.823V131.471C313.591 127.701 310.47 124.645 306.621 124.645Z" fill="#E5E1DC"/>
<path d="M94.4586 253.57H351.209C352.775 253.57 354.325 253.872 355.772 254.46C357.218 255.047 358.532 255.908 359.639 256.993C360.745 258.079 361.622 259.367 362.219 260.784C362.817 262.202 363.123 263.721 363.121 265.254V269.681H84.1118V263.704C84.1118 261.016 85.2019 258.439 87.1423 256.538C89.0827 254.638 91.7145 253.57 94.4586 253.57Z" fill="#8A9FA0"/>
<path d="M299.602 117.294H126.005V229.601H299.602V117.294Z" fill="#59D887"/>
<path d="M298.043 114.37H127.649C126.1 114.37 124.844 115.6 124.844 117.117V118.756C124.844 120.273 126.1 121.503 127.649 121.503H298.043C299.592 121.503 300.848 120.273 300.848 118.756V117.117C300.848 115.6 299.592 114.37 298.043 114.37Z" fill="#006F16"/>
<path d="M233.864 191.504C236.701 175.042 225.375 159.444 208.566 156.665C191.757 153.887 175.83 164.98 172.993 181.442C170.156 197.905 181.483 213.503 198.292 216.282C215.101 219.06 231.027 207.967 233.864 191.504Z" fill="#ADBAE3"/>
<path d="M264.714 199.67C268.996 188.28 247.584 170.076 216.891 159.009C186.197 147.943 157.844 148.206 153.563 159.596C149.282 170.986 170.693 189.19 201.387 200.257C232.08 211.323 260.433 211.061 264.714 199.67Z" stroke="white" stroke-miterlimit="10" stroke-dasharray="4 4"/>
<path d="M229.666 221.377H229.714H229.852L238.459 221.412C238.583 221.411 238.705 221.386 238.819 221.339C238.933 221.292 239.035 221.223 239.122 221.136C239.208 221.049 239.276 220.947 239.321 220.834C239.367 220.722 239.389 220.602 239.386 220.481L239.423 211.538C239.541 211.362 239.721 211.236 239.928 211.181C240.136 211.127 240.356 211.149 240.548 211.243C241.335 211.64 242.209 211.843 243.094 211.833C247.428 211.833 250.63 206.916 247.506 202.306C247.343 202.076 247.139 201.877 246.904 201.717C244.647 200.143 242.342 200.131 240.566 201.033C240.383 201.125 240.173 201.152 239.972 201.109C239.771 201.066 239.592 200.956 239.465 200.797L239.501 191.907C239.506 191.671 239.417 191.442 239.253 191.268C239.089 191.094 238.863 190.989 238.622 190.976L238.321 190.923H230.135C229.992 190.897 229.856 190.84 229.74 190.754C229.623 190.669 229.528 190.558 229.463 190.43C229.397 190.303 229.363 190.162 229.363 190.02C229.362 189.877 229.396 189.736 229.461 189.608C229.88 188.794 230.1 187.896 230.105 186.985C230.13 186.224 229.999 185.467 229.719 184.757C229.439 184.047 229.016 183.4 228.476 182.853C227.935 182.306 227.288 181.872 226.573 181.575C225.857 181.278 225.088 181.125 224.312 181.125C223.535 181.125 222.766 181.278 222.05 181.575C221.335 181.872 220.688 182.306 220.147 182.853C219.607 183.4 219.184 184.047 218.904 184.757C218.624 185.467 218.493 186.224 218.518 186.985C218.507 187.893 218.714 188.792 219.12 189.608C219.184 189.736 219.216 189.877 219.215 190.019C219.214 190.161 219.179 190.302 219.113 190.428C219.047 190.555 218.952 190.666 218.835 190.75C218.718 190.835 218.583 190.892 218.44 190.917L210.248 190.881L209.953 190.935C209.783 190.944 209.619 190.999 209.479 191.094C209.339 191.188 209.228 191.319 209.159 191.471C209.209 191.615 209.236 191.767 209.237 191.919V201.098L208.725 200.997C208.607 201.054 208.477 201.084 208.346 201.084C208.214 201.084 208.085 201.054 207.967 200.997L207.81 200.927C207.524 200.931 207.239 200.953 206.956 200.992H206.883H206.805C206.512 200.932 206.214 200.897 205.914 200.885C204.53 200.946 203.222 201.523 202.259 202.499C201.296 203.475 200.752 204.775 200.738 206.132C200.754 207.155 201.029 208.157 201.538 209.05C201.653 209.274 201.78 209.493 201.918 209.704C202.046 209.893 202.209 210.057 202.399 210.188C203.406 210.932 204.628 211.345 205.89 211.367C206.181 211.367 206.471 211.343 206.757 211.296H206.829H206.907C207.148 211.331 207.335 211.373 207.509 211.39C207.657 211.335 207.802 211.272 207.943 211.202C208.08 211.132 208.234 211.101 208.387 211.112C208.541 211.122 208.689 211.174 208.815 211.261L209.225 211.178V220.498C209.224 220.618 209.208 220.736 209.177 220.852C209.249 221.007 209.365 221.138 209.511 221.231C209.657 221.324 209.827 221.374 210.001 221.377H218.608H218.741H218.795C218.963 221.372 219.127 221.322 219.27 221.234C219.412 221.145 219.527 221.021 219.604 220.874C219.68 220.727 219.714 220.562 219.703 220.398C219.693 220.233 219.637 220.074 219.541 219.938C218.404 218.128 218.253 215.635 219.854 213.2C220.199 212.787 220.605 212.428 221.058 212.133C222.021 211.546 223.127 211.222 224.26 211.196C225.395 211.23 226.499 211.557 227.463 212.145C227.916 212.445 228.321 212.808 228.666 213.224C230.249 215.664 230.087 218.158 228.943 219.962C228.857 220.096 228.807 220.25 228.8 220.409C228.792 220.568 228.826 220.726 228.898 220.868C228.971 221.01 229.079 221.132 229.214 221.221C229.348 221.31 229.504 221.364 229.666 221.377Z" fill="#006F16"/>
<path d="M212.662 172.113V172.154L212.584 172.337C212.574 172.441 212.599 172.546 212.654 172.636C212.709 172.726 212.792 172.797 212.891 172.838L220.932 173.964C221.039 173.983 221.142 174.016 221.239 174.064C221.512 174.111 221.763 174.241 221.956 174.435L222.04 174.193L223.388 165.351C223.532 165.196 223.729 165.098 223.941 165.074C224.154 165.05 224.368 165.102 224.544 165.221C225.256 165.728 226.081 166.06 226.952 166.188C231.243 166.778 235.126 162.386 232.712 157.381C232.588 157.127 232.419 156.898 232.212 156.703C230.208 154.828 227.927 154.492 226.037 155.135C225.842 155.2 225.631 155.196 225.439 155.125C225.246 155.054 225.086 154.92 224.983 154.746L226.32 145.95C226.357 145.717 226.302 145.479 226.165 145.285C226.029 145.091 225.821 144.955 225.585 144.907L225.296 144.813L217.195 143.634C217.056 143.588 216.93 143.512 216.827 143.411C216.724 143.31 216.646 143.187 216.6 143.052C216.554 142.916 216.54 142.772 216.561 142.63C216.582 142.489 216.636 142.354 216.719 142.236C217.254 141.492 217.604 140.637 217.742 139.737C217.87 138.992 217.845 138.23 217.668 137.495C217.492 136.76 217.167 136.067 216.713 135.456C216.26 134.846 215.687 134.33 215.027 133.939C214.367 133.548 213.635 133.29 212.872 133.18C212.109 133.07 211.332 133.11 210.585 133.297C209.838 133.485 209.137 133.817 208.523 134.273C207.909 134.73 207.394 135.301 207.008 135.955C206.622 136.609 206.373 137.331 206.276 138.08C206.141 138.983 206.225 139.904 206.523 140.769C206.563 140.903 206.572 141.045 206.548 141.183C206.524 141.321 206.468 141.452 206.384 141.566C206.3 141.68 206.191 141.773 206.065 141.839C205.939 141.905 205.799 141.942 205.656 141.948L197.554 140.769H197.253C197.012 140.747 196.771 140.817 196.581 140.966C196.391 141.114 196.268 141.329 196.236 141.564L194.93 150.36C194.781 150.499 194.586 150.582 194.38 150.595C194.175 150.608 193.971 150.55 193.804 150.431C192.185 149.281 189.898 148.957 187.43 150.189C187.174 150.316 186.944 150.488 186.75 150.696C182.964 154.822 185.384 160.128 189.669 160.753C190.547 160.885 191.444 160.804 192.282 160.517C192.484 160.45 192.705 160.458 192.902 160.541C193.099 160.624 193.257 160.775 193.347 160.965L192.035 169.808C192.017 169.915 192.017 170.024 192.035 170.132C192.276 170.004 192.551 169.95 192.823 169.979C192.929 169.964 193.037 169.964 193.142 169.979L201.184 171.158C201.29 171.146 201.39 171.102 201.468 171.031C201.546 170.96 201.598 170.865 201.617 170.763V170.568V170.491C201.317 169.591 201.231 168.635 201.364 167.697V167.668C201.46 167.086 201.638 166.521 201.894 165.988C202.429 164.794 203.347 163.804 204.507 163.165C205.668 162.527 207.009 162.276 208.329 162.451H208.473H208.599C209.916 162.651 211.131 163.266 212.058 164.204C212.986 165.141 213.576 166.349 213.74 167.644C213.822 168.231 213.822 168.826 213.74 169.413C213.601 170.383 213.232 171.308 212.662 172.113Z" fill="#E4F8EA"/>
<path d="M186.065 187.87C187.024 186.663 188.404 185.844 189.941 185.571L190.025 186.037L189.941 185.571C190.293 185.516 190.65 185.495 191.006 185.506C191.316 185.406 191.631 185.325 191.951 185.265C192.114 185.265 192.27 185.218 192.433 185.206L190.91 176.776C190.891 176.658 190.828 176.551 190.734 176.475C190.64 176.399 190.521 176.359 190.398 176.363H190.368H190.296H190.218H190.073L181.508 177.878H181.466C181.14 177.874 180.823 177.766 180.565 177.571C180.306 177.375 180.12 177.102 180.034 176.794L179.985 176.67C179.95 176.463 179.962 176.252 180.022 176.051V175.998C180.272 175.156 180.322 174.268 180.166 173.404C180.059 172.881 179.879 172.375 179.63 171.901C179.119 170.843 178.271 169.978 177.213 169.434C176.156 168.891 174.946 168.699 173.768 168.888L173.647 168.918H173.617H173.485C172.381 169.113 171.37 169.65 170.602 170.451C169.727 171.344 169.18 172.497 169.049 173.728C169.018 174.03 169.008 174.333 169.019 174.636C169.021 174.863 169.041 175.09 169.079 175.314C169.24 176.169 169.6 176.976 170.132 177.672C170.259 177.848 170.343 178.049 170.379 178.261V178.379C170.412 178.699 170.336 179.02 170.163 179.293C169.99 179.566 169.729 179.776 169.422 179.889H169.38L160.815 181.374H160.742L160.754 181.545L160.688 181.58H160.61C160.547 181.596 160.487 181.623 160.434 181.661C160.382 181.699 160.337 181.746 160.304 181.801C160.27 181.856 160.248 181.917 160.239 181.98C160.229 182.043 160.233 182.108 160.249 182.17L161.958 191.567L161.868 191.72C161.764 191.903 161.62 192.061 161.446 192.183C161.272 192.306 161.073 192.389 160.863 192.427C160.638 192.469 160.406 192.455 160.189 192.386C159.371 192.135 158.504 192.08 157.661 192.227C156.339 192.484 155.134 193.145 154.218 194.113C154.045 194.283 153.906 194.483 153.808 194.703C153.23 195.931 153.037 197.299 153.255 198.635C153.491 200.063 154.296 201.341 155.493 202.188C156.691 203.036 158.182 203.384 159.641 203.156C160.485 203.009 161.28 202.663 161.958 202.148C162.135 202.016 162.341 201.927 162.56 201.889C162.789 201.852 163.023 201.869 163.243 201.938C163.464 202.006 163.665 202.125 163.83 202.284L163.945 202.396L165.684 211.857C165.705 211.985 165.776 212.099 165.881 212.176C165.987 212.253 166.119 212.287 166.25 212.27L175.2 210.69L175.339 210.643H175.375H175.429C175.489 210.635 175.546 210.614 175.596 210.582C175.647 210.551 175.691 210.509 175.724 210.46C175.787 210.349 175.808 210.22 175.784 210.095L175.652 209.818C174.816 208.901 174.257 207.774 174.039 206.564C173.793 205.1 173.984 203.598 174.586 202.237V202.207C174.892 201.677 175.271 201.191 175.712 200.763C176.668 199.92 177.835 199.34 179.095 199.083C180.367 198.896 181.667 199.042 182.863 199.507C183.43 199.758 183.959 200.085 184.434 200.48C185.483 201.552 186.192 202.9 186.474 204.359C186.698 205.567 186.573 206.812 186.113 207.955L186.077 208.256C186.103 208.381 186.171 208.495 186.269 208.58C186.319 208.614 186.374 208.638 186.433 208.652C186.492 208.665 186.553 208.666 186.612 208.656H186.697H186.841L195.774 207.112C195.839 207.099 195.901 207.074 195.957 207.037C196.012 207 196.059 206.953 196.095 206.898C196.131 206.843 196.155 206.781 196.166 206.717C196.177 206.652 196.175 206.586 196.159 206.522L194.618 197.969C194.422 198.035 194.22 198.086 194.016 198.122C193.711 198.164 193.402 198.176 193.095 198.157C192.787 198.262 192.471 198.345 192.15 198.405C190.693 198.636 189.2 198.43 187.864 197.815L187.696 197.751C187.367 197.595 187.069 197.384 186.817 197.126C186.211 196.512 185.704 195.813 185.312 195.051C185.201 194.83 185.103 194.604 185.017 194.373C184.854 193.968 184.73 193.55 184.644 193.123C184.487 192.199 184.532 191.252 184.777 190.347C185.022 189.441 185.461 188.597 186.065 187.87Z" fill="#0CCE6B"/>
<path d="M218.205 72.2798H144.628C144.272 72.2798 143.984 72.5622 143.984 72.9106V128.548C143.984 128.896 144.272 129.179 144.628 129.179H218.205C218.561 129.179 218.849 128.896 218.849 128.548V72.9106C218.849 72.5622 218.561 72.2798 218.205 72.2798Z" fill="#EFEFEF"/>
<path d="M218.205 64.4094H144.628C144.272 64.4094 143.984 64.6918 143.984 65.0402V71.6485C143.984 71.9969 144.272 72.2793 144.628 72.2793H218.205C218.561 72.2793 218.849 71.9969 218.849 71.6485V65.0402C218.849 64.6918 218.561 64.4094 218.205 64.4094Z" fill="white"/>
<path d="M147.994 70.2037C149.001 70.2037 149.817 69.404 149.817 68.4175C149.817 67.4311 149.001 66.6313 147.994 66.6313C146.986 66.6313 146.17 67.4311 146.17 68.4175C146.17 69.404 146.986 70.2037 147.994 70.2037Z" fill="#59D887"/>
<path d="M155.83 70.2037C156.837 70.2037 157.654 69.404 157.654 68.4175C157.654 67.4311 156.837 66.6313 155.83 66.6313C154.823 66.6313 154.006 67.4311 154.006 68.4175C154.006 69.404 154.823 70.2037 155.83 70.2037Z" fill="#EBF7F7"/>
<path d="M165.497 68.4182C165.497 68.768 165.391 69.1099 165.192 69.4007C164.994 69.6915 164.712 69.9182 164.382 70.0521C164.052 70.1859 163.689 70.221 163.339 70.1527C162.988 70.0845 162.667 69.916 162.414 69.6687C162.162 69.4214 161.99 69.1063 161.92 68.7632C161.85 68.4201 161.886 68.0645 162.023 67.7414C162.159 67.4182 162.391 67.142 162.688 66.9477C162.985 66.7534 163.334 66.6497 163.691 66.6497C164.17 66.6497 164.629 66.836 164.968 67.1676C165.306 67.4993 165.497 67.9491 165.497 68.4182Z" fill="#EBF7F7"/>
<path d="M208.473 83.8818L196.356 103.495C196.3 103.584 196.222 103.659 196.129 103.712C196.036 103.764 195.932 103.794 195.824 103.797C195.717 103.801 195.61 103.778 195.514 103.732C195.418 103.685 195.335 103.616 195.273 103.53L186.034 90.6788C185.971 90.5934 185.887 90.5246 185.791 90.4784C185.694 90.4323 185.588 90.4103 185.48 90.4143C185.373 90.4184 185.269 90.4485 185.176 90.5018C185.083 90.5552 185.006 90.6302 184.95 90.7201L171.142 113.304C171.082 113.42 170.985 113.515 170.867 113.576C170.749 113.636 170.615 113.659 170.483 113.642C170.351 113.624 170.228 113.567 170.13 113.478C170.032 113.389 169.966 113.273 169.938 113.145L165.725 97.9474C165.687 97.8254 165.613 97.7173 165.512 97.637C165.411 97.5568 165.288 97.5081 165.158 97.4973C165.028 97.4865 164.898 97.5141 164.785 97.5765C164.671 97.6389 164.579 97.7332 164.521 97.8472L154.776 118.468" stroke="#006F16" stroke-linecap="round" stroke-linejoin="round"/>
<path d="M187.792 88.7327C187.792 89.2527 187.634 89.761 187.339 90.1934C187.044 90.6258 186.625 90.9628 186.135 91.1618C185.644 91.3608 185.104 91.4128 184.584 91.3114C184.063 91.2099 183.585 90.9595 183.209 90.5918C182.834 90.2241 182.578 89.7557 182.474 89.2456C182.371 88.7356 182.424 88.207 182.627 87.7266C182.83 87.2461 183.174 86.8355 183.616 86.5466C184.057 86.2577 184.576 86.1035 185.107 86.1035C185.819 86.1035 186.502 86.3805 187.006 86.8736C187.509 87.3667 187.792 88.0354 187.792 88.7327Z" fill="#59D887"/>
<path d="M211.158 82.0059C211.158 82.5259 211 83.0342 210.705 83.4666C210.41 83.899 209.991 84.236 209.5 84.435C209.01 84.634 208.47 84.686 207.949 84.5846C207.429 84.4831 206.95 84.2327 206.575 83.865C206.199 83.4973 205.944 83.0288 205.84 82.5188C205.737 82.0088 205.79 81.4802 205.993 80.9998C206.196 80.5193 206.54 80.1087 206.982 79.8198C207.423 79.5309 207.942 79.3767 208.473 79.3767C209.185 79.3767 209.868 79.6537 210.371 80.1468C210.875 80.6399 211.158 81.3086 211.158 82.0059Z" fill="#59D887"/>
<path d="M212.806 117.288H196.211C196.126 117.288 196.042 117.272 195.964 117.24C195.885 117.208 195.814 117.161 195.754 117.101C195.694 117.042 195.647 116.972 195.615 116.895C195.583 116.818 195.567 116.735 195.567 116.652C195.567 116.484 195.635 116.324 195.756 116.205C195.877 116.087 196.041 116.021 196.211 116.021H212.806C212.977 116.021 213.141 116.087 213.262 116.205C213.382 116.324 213.45 116.484 213.45 116.652C213.451 116.735 213.435 116.818 213.403 116.895C213.371 116.972 213.324 117.042 213.264 117.101C213.204 117.161 213.132 117.208 213.054 117.24C212.975 117.272 212.891 117.288 212.806 117.288Z" fill="#59D887"/>
<path d="M212.806 120.342H196.211C196.04 120.341 195.876 120.273 195.756 120.154C195.635 120.034 195.567 119.873 195.567 119.705C195.567 119.538 195.635 119.378 195.756 119.259C195.877 119.141 196.041 119.075 196.211 119.075H212.806C212.977 119.075 213.141 119.141 213.261 119.259C213.382 119.378 213.45 119.538 213.45 119.705C213.45 119.873 213.382 120.034 213.262 120.154C213.141 120.273 212.977 120.341 212.806 120.342Z" fill="#59D887"/>
<path d="M212.806 123.42H196.211C196.041 123.42 195.877 123.353 195.756 123.235C195.635 123.116 195.567 122.956 195.567 122.789C195.567 122.705 195.583 122.623 195.615 122.546C195.647 122.468 195.694 122.398 195.754 122.339C195.814 122.28 195.885 122.233 195.964 122.201C196.042 122.169 196.126 122.152 196.211 122.152H212.806C212.891 122.152 212.975 122.169 213.054 122.201C213.132 122.233 213.204 122.28 213.264 122.339C213.324 122.398 213.371 122.468 213.403 122.546C213.435 122.623 213.451 122.705 213.45 122.789C213.45 122.956 213.382 123.116 213.262 123.235C213.141 123.353 212.977 123.42 212.806 123.42Z" fill="#59D887"/>
<path d="M119.932 284.92C119.292 287.987 118.816 291.084 118.505 294.199V294.788V296.663L121.84 296.716L122.514 294.694L122.803 293.798L123.405 294.665L124.825 296.763L141.968 297.04L142.004 294.594C141.986 294.468 141.96 294.344 141.926 294.222C141.88 294.047 141.797 293.884 141.683 293.742C141.569 293.599 141.426 293.482 141.264 293.397C139.771 292.631 134.281 290.214 132.837 288.905C131.705 287.885 130.754 285.734 130.381 284.826L119.932 284.92Z" fill="black"/>
<path d="M129.274 288.669L129.226 288.751C129.106 288.963 129.033 289.293 129.298 289.429C129.445 289.476 129.603 289.476 129.75 289.429C130.266 289.315 130.759 289.116 131.206 288.84C131.734 288.591 132.194 288.223 132.549 287.767C132.616 287.666 132.65 287.548 132.647 287.428C132.644 287.308 132.603 287.191 132.53 287.094C132.457 286.998 132.356 286.925 132.24 286.886C132.124 286.847 131.998 286.844 131.88 286.877C130.806 287.117 129.87 287.76 129.274 288.669Z" fill="#252727"/>
<path d="M131.019 290.014C131.019 290.043 131.019 290.073 130.971 290.096C130.857 290.308 130.778 290.639 131.049 290.774C131.194 290.819 131.35 290.819 131.495 290.774C132.011 290.66 132.504 290.461 132.951 290.185C133.479 289.936 133.939 289.568 134.294 289.112C134.631 288.599 134.185 288.115 133.625 288.222C132.551 288.462 131.615 289.105 131.019 290.014Z" fill="#252727"/>
<path d="M133.18 290.91L133.132 290.992C133.018 291.204 132.94 291.534 133.21 291.664C133.357 291.714 133.516 291.714 133.662 291.664C134.176 291.549 134.666 291.35 135.112 291.075C135.642 290.826 136.102 290.456 136.455 289.996C136.792 289.489 136.346 289 135.787 289.112C134.711 289.354 133.775 289.999 133.18 290.91Z" fill="#252727"/>
<path d="M141.896 294.205L123.375 294.647L124.796 296.745L141.938 297.022L141.975 294.576C141.957 294.451 141.93 294.327 141.896 294.205Z" fill="#252727"/>
<path d="M118.5 294.771L118.481 296.645L121.816 296.698L122.49 294.676L118.5 294.771Z" fill="#252727"/>
<path d="M93.8091 294.581C93.8091 294.581 98.8832 298.272 100.292 298.419C101.7 298.566 109.14 296.91 109.164 295.99C109.164 295.666 109.037 294.522 108.851 293.137C108.496 290.573 107.93 287.201 107.647 286.747C107.196 286.045 107.767 281.913 107.767 281.913C107.767 281.913 100.177 280.003 99.1119 280.327C98.2873 280.575 95.5847 288.934 94.3929 292.707C94.0258 293.856 93.8091 294.581 93.8091 294.581Z" fill="black"/>
<path d="M93.8091 294.582C93.8091 294.582 98.8832 298.272 100.292 298.42C101.7 298.567 109.14 296.91 109.164 295.991C109.164 295.667 109.037 294.523 108.851 293.138C106.443 294.004 101.219 295.708 99.5332 295.071C98.3896 294.635 96.2167 293.621 94.3809 292.713C94.0258 293.857 93.8091 294.582 93.8091 294.582Z" fill="#252727"/>
<path d="M100.136 288.51C100.754 288.744 101.402 288.892 102.062 288.952C102.779 289.082 103.516 289.07 104.229 288.917C104.939 288.716 104.831 288.038 104.162 287.773C102.896 287.291 101.505 287.223 100.196 287.578L100.088 287.614C99.8106 287.714 99.4856 287.932 99.6842 288.203C99.8016 288.346 99.9583 288.452 100.136 288.51Z" fill="#252727"/>
<path d="M104.101 289.906C102.835 289.425 101.444 289.357 100.135 289.712L100.02 289.747C99.7496 289.847 99.4185 290.065 99.6172 290.337C99.7354 290.477 99.892 290.581 100.069 290.637C100.687 290.871 101.335 291.02 101.995 291.079C102.712 291.209 103.449 291.197 104.162 291.044C104.878 290.849 104.776 290.172 104.101 289.906Z" fill="#252727"/>
<path d="M103.789 291.859C102.524 291.375 101.132 291.304 99.8228 291.658L99.7145 291.699C99.4376 291.8 99.1126 292.018 99.3112 292.289C99.4282 292.43 99.5852 292.535 99.7626 292.589C100.381 292.824 101.029 292.973 101.689 293.032C102.405 293.156 103.138 293.144 103.85 292.996C104.566 292.796 104.451 292.118 103.789 291.859Z" fill="#252727"/>
<path d="M94.1104 282.539L97.1199 282.845L109.64 284.118C109.64 284.118 117.386 248.235 117.765 245.801C117.976 244.427 118.614 233.68 119.138 224.478C119.288 221.808 119.427 219.267 119.541 217.127C119.746 213.454 119.878 210.943 119.878 210.943L116.826 211.12L103.584 211.88L104.186 243.631L94.1104 282.539Z" fill="#939393"/>
<path d="M116.814 211.049V211.108C116.887 211.497 117.29 213.843 117.862 217.139C118.235 219.267 118.668 221.802 119.126 224.466C120.727 233.898 122.569 244.94 122.515 245.901C122.418 247.599 117.976 285.987 117.976 285.987L133.325 286.358C133.325 286.358 136.677 250.021 136.936 248.206C137.117 246.838 135.251 225.952 134.324 215.818C134.029 212.541 133.83 210.383 133.83 210.383L121.142 210.89L116.814 211.049Z" fill="#6B6B6B"/>
<path d="M108.953 160.776C109.964 162.621 112.564 166.671 116.055 167.473L117.109 166.029L118.601 167.443C121.177 166.854 122.447 164.903 123.067 163.14L122.526 162.828C121.984 162.515 121.436 162.238 120.882 161.99L120.359 161.766H120.305L119.775 161.56C119.402 161.419 119.035 161.295 118.673 161.171L118.312 161.059C117.951 160.949 117.596 160.849 117.247 160.758C116.783 160.635 116.326 160.529 115.899 160.44L115.574 160.375C115.327 160.328 115.074 160.281 114.839 160.246L114.478 160.181C113.936 160.098 113.449 160.045 113.034 159.998L112.468 159.945C111.776 159.892 111.372 159.892 111.372 159.892L108.953 160.776Z" fill="#FFA07F"/>
<path d="M111.397 159.868C111.571 160.033 119.017 165.427 119.017 165.427C119.017 165.427 118.849 162.102 118.764 160.375C118.764 159.833 118.722 159.45 118.722 159.367C118.722 158.677 119.324 155.677 119.324 155.677L111.806 152.311C111.806 152.311 111.686 153.826 111.571 155.5C111.43 156.952 111.371 158.41 111.397 159.868Z" fill="#FFA07F"/>
<path d="M111.547 155.501C113.636 156.986 118.235 160.217 118.692 160.364H118.734C118.734 159.822 118.692 159.439 118.692 159.356C118.692 158.666 119.294 155.666 119.294 155.666L111.776 152.3C111.776 152.3 111.662 153.838 111.547 155.501Z" fill="#FF7D6F"/>
<path d="M110.753 152.564C110.991 153.057 111.343 153.489 111.782 153.825C111.974 153.991 112.175 154.147 112.384 154.291C113.263 154.916 121.521 158.376 122.791 158.211C124.061 158.046 125.265 153.766 125.331 153.312C125.741 150.553 126.866 142.017 126.866 142.017C123.724 132.715 112.535 137.531 111.259 138.445C109.983 139.359 110.753 152.564 110.753 152.564Z" fill="#FFA07F"/>
<path d="M111.782 153.837C111.974 154.003 112.175 154.158 112.384 154.303C113.263 154.928 121.521 158.388 122.791 158.223C124.061 158.058 125.265 153.778 125.331 153.324C124.537 155.205 123.646 157.804 122.743 157.722C121.389 157.586 112.781 154.338 111.782 153.837Z" fill="#FFBF90"/>
<path d="M126.005 143.928C126.005 143.928 123.765 142.749 123.338 143.816C122.911 144.883 123.29 144.795 123.29 144.795L126.005 143.928Z" fill="#FFDD9D"/>
<path d="M113.805 143.227C113.805 143.227 117.116 140.574 118.055 141.871C118.602 142.631 118.055 142.991 118.055 142.991L113.805 143.227Z" fill="#FFDD9D"/>
<path d="M115.49 146.58C115.49 147.441 115.93 148.137 116.477 148.137C117.025 148.137 117.464 147.441 117.464 146.58C117.464 145.72 117.025 145.03 116.477 145.03C115.93 145.03 115.49 145.726 115.49 146.58Z" fill="#252727"/>
<path d="M124.843 147.165C124.843 147.813 124.506 148.344 124.097 148.344C123.688 148.344 123.351 147.819 123.351 147.165C123.351 146.51 123.682 145.986 124.097 145.986C124.512 145.986 124.843 146.522 124.843 147.165Z" fill="#252727"/>
<path d="M117.416 153.838C117.793 154.019 118.206 154.119 118.627 154.132C119.047 154.144 119.465 154.068 119.853 153.909C119.737 154.094 119.573 154.246 119.377 154.35C119.182 154.453 118.962 154.504 118.74 154.498C118.231 154.444 117.76 154.209 117.416 153.838Z" fill="#FC5B68"/>
<path d="M115.641 151.539L115.785 151.733C115.918 151.906 116.067 152.065 116.23 152.211C116.778 152.704 117.442 153.057 118.163 153.237C118.884 153.413 119.638 153.413 120.36 153.237C120.566 153.179 120.767 153.106 120.962 153.018L121.184 152.912L120.943 152.96C120.733 152.998 120.52 153.024 120.305 153.036C119.612 153.082 118.915 153.021 118.241 152.853C117.568 152.689 116.925 152.421 116.339 152.058C116.155 151.949 115.98 151.827 115.815 151.692L115.641 151.539Z" fill="#FC5B68"/>
<path d="M120.829 151.061C121.073 151.021 121.308 150.937 121.521 150.814C121.641 150.754 121.746 150.671 121.831 150.569C121.916 150.468 121.978 150.35 122.015 150.224C122.038 150.11 122.024 149.991 121.974 149.886C121.924 149.78 121.842 149.692 121.738 149.635C121.599 149.544 121.44 149.486 121.275 149.464H121.088C121.088 149.387 121.088 149.31 121.088 149.216C121.098 148.71 121.161 148.206 121.275 147.713C121.439 146.995 121.713 146.305 122.087 145.667C122.033 146.392 121.923 147.111 121.756 147.819C121.642 148.344 121.497 148.809 121.377 149.181C121.574 149.168 121.771 149.207 121.949 149.293C122.131 149.38 122.285 149.515 122.394 149.682C122.515 149.878 122.552 150.113 122.497 150.336C122.445 150.529 122.346 150.706 122.209 150.853C122.071 151 121.899 151.112 121.708 151.179C121.433 151.285 121.136 151.326 120.841 151.297C120.648 151.28 120.459 151.233 120.281 151.156L120.107 151.067C120.347 151.102 120.59 151.1 120.829 151.061Z" fill="#FC5B68"/>
<path d="M129.455 149.121C129.096 149.326 128.69 149.437 128.275 149.446C127.86 149.454 127.45 149.359 127.083 149.169C126.711 148.965 126.394 148.678 126.158 148.33C125.923 147.983 125.775 147.585 125.729 147.17C125.626 146.274 125.981 145.402 126.144 144.523C126.307 143.645 126.21 142.572 125.476 142.083C124.958 141.821 124.378 141.701 123.797 141.735C122.471 141.679 121.201 141.196 120.185 140.361C119.673 139.927 119.261 139.391 118.974 138.79C118.688 138.189 118.534 137.535 118.524 136.871C118.466 137.297 118.312 137.706 118.074 138.066C117.836 138.427 117.518 138.732 117.145 138.958C115.791 139.748 113.883 139.353 112.782 140.479C112.005 141.281 111.951 142.537 111.921 143.663C111.891 144.788 111.758 146.068 110.892 146.775C110.523 147.038 110.089 147.2 109.634 147.242C109.18 147.285 108.722 147.207 108.309 147.017C107.588 146.686 106.936 146.228 106.383 145.667C106.287 145.584 106.203 145.496 106.106 145.407C107.051 144.942 107.346 143.751 107.31 142.678C107.31 141.198 106.865 139.731 107.112 138.274C107.357 136.649 108.243 135.183 109.58 134.191C110.917 133.198 112.598 132.76 114.262 132.969C114.806 133.001 115.336 133.145 115.819 133.391C116.302 133.637 116.727 133.979 117.067 134.396C117.067 134.307 117.446 134.024 117.796 133.806C117.972 133.677 118.154 133.557 118.343 133.446C119.646 132.804 121.103 132.522 122.557 132.633C123.976 132.608 125.378 132.936 126.632 133.588C128.389 134.596 129.382 136.671 129.569 138.728C129.666 140.795 129.341 142.859 128.612 144.8C128.576 144.912 128.546 145.018 128.51 145.124C128.251 145.797 128.121 146.51 128.124 147.229C128.124 147.639 128.251 148.04 128.488 148.378C128.726 148.716 129.063 148.975 129.455 149.121Z" fill="#FBCA8C"/>
<path d="M129.455 141.558C129.254 142.645 128.977 143.716 128.624 144.765C128.588 144.877 128.558 144.983 128.522 145.089C128.021 144.65 127.625 144.109 127.36 143.504C126.891 142.442 126.758 141.199 126.12 140.249C125.23 138.988 123.598 138.593 122.154 138.092C120.709 137.591 119.144 136.642 118.964 135.085C118.362 136.406 116.803 136.854 115.406 137.084C114.01 137.314 112.445 137.467 111.524 138.563C110.675 139.56 110.627 140.998 110.495 142.313C110.362 143.627 109.965 145.107 108.81 145.679C108.427 145.837 108.016 145.915 107.601 145.908C107.187 145.9 106.778 145.808 106.402 145.638C106.306 145.555 106.221 145.467 106.125 145.378C106.488 145.153 106.788 144.842 106.998 144.475C107.208 144.107 107.322 143.695 107.329 143.274C107.341 143.066 107.341 142.857 107.329 142.649C107.329 141.169 106.883 139.701 107.13 138.245C107.375 136.62 108.261 135.153 109.599 134.161C110.936 133.169 112.617 132.731 114.281 132.94C114.824 132.972 115.355 133.116 115.838 133.362C116.321 133.607 116.746 133.95 117.086 134.366C117.086 134.278 117.465 133.995 117.814 133.777C117.99 133.648 118.173 133.528 118.362 133.417C119.664 132.774 121.121 132.493 122.575 132.604C123.994 132.578 125.396 132.907 126.65 133.559C128.408 134.567 129.401 136.642 129.587 138.699C129.663 139.654 129.619 140.614 129.455 141.558Z" fill="#FFDD9D"/>
<path d="M129.454 141.559C129.127 141.145 128.829 140.71 128.564 140.256C127.552 138.487 126.758 136.565 125.319 135.21C124.161 134.183 122.658 133.608 121.096 133.595C119.533 133.582 118.02 134.131 116.844 135.139C115.454 134.424 113.847 134.225 112.318 134.579C111.552 134.772 110.843 135.14 110.249 135.652C109.655 136.164 109.192 136.806 108.899 137.526C108.629 138.414 108.469 139.33 108.424 140.256C108.378 141.181 108.107 142.082 107.635 142.885C107.543 143.017 107.441 143.141 107.328 143.256C107.34 143.048 107.34 142.84 107.328 142.631C107.328 141.152 106.883 139.684 107.13 138.228C107.375 136.602 108.261 135.136 109.598 134.144C110.935 133.152 112.616 132.713 114.28 132.922C114.824 132.955 115.354 133.099 115.837 133.344C116.32 133.59 116.745 133.932 117.085 134.349C117.085 134.26 117.464 133.977 117.814 133.759C117.99 133.63 118.172 133.51 118.361 133.4C119.664 132.757 121.121 132.476 122.575 132.586C123.994 132.561 125.396 132.89 126.65 133.541C128.407 134.549 129.4 136.624 129.587 138.682C129.664 139.642 129.62 140.609 129.454 141.559Z" fill="#FFEAAC"/>
<path d="M111.999 152.895C111.294 152.829 110.609 152.622 109.988 152.288C109.367 151.953 108.823 151.498 108.388 150.949C108.258 150.782 108.139 150.607 108.033 150.425C107.545 149.564 107.431 146.569 108.635 145.874C109.508 145.39 110.146 146.098 110.441 146.563C110.513 146.678 110.58 146.796 110.639 146.917L111.999 152.895Z" fill="#FFBF90"/>
<path d="M111.998 152.895C111.293 152.829 110.608 152.623 109.987 152.288C109.366 151.953 108.821 151.498 108.387 150.95C108.333 150.861 108.285 150.784 108.242 150.708C107.755 149.847 107.64 146.852 108.844 146.157C109.115 146.008 109.434 145.967 109.734 146.043C110.035 146.119 110.294 146.305 110.457 146.564C110.53 146.678 110.596 146.796 110.656 146.917L111.998 152.895Z" fill="#FFA07F"/>
<path d="M108.236 148.249C108.184 148.491 108.205 148.743 108.296 148.974C108.639 149.982 109.663 150.742 110.638 151.455C110.352 150.983 110.231 150.433 110.295 149.887C110.33 149.693 110.352 149.496 110.361 149.298C110.367 148.573 108.609 146.834 108.236 148.249Z" fill="#FF7D6F"/>
<path d="M111.133 151.745L111.079 151.709C111.024 151.684 110.972 151.654 110.922 151.621C110.74 151.501 110.575 151.356 110.435 151.191C110.24 150.96 110.104 150.687 110.037 150.395C109.962 150.039 110.006 149.669 110.164 149.34C110.182 149.293 110.206 149.25 110.236 149.21V149.174V149.145V149.086L110.164 148.974C110.074 148.831 109.975 148.693 109.869 148.561C109.772 148.437 109.668 148.319 109.556 148.208C109.447 148.102 109.345 148.001 109.249 147.925C109.156 147.853 109.046 147.806 108.93 147.789C108.837 147.78 108.744 147.794 108.659 147.83C108.61 147.855 108.568 147.891 108.539 147.936C108.539 147.972 108.539 147.99 108.539 147.99C108.533 147.972 108.533 147.954 108.539 147.936C108.545 147.908 108.558 147.882 108.575 147.858C108.593 147.835 108.615 147.815 108.641 147.801C108.73 147.738 108.838 147.705 108.948 147.707C109.096 147.707 109.241 147.745 109.369 147.819C109.502 147.9 109.629 147.99 109.748 148.09C109.882 148.198 110.009 148.314 110.128 148.438C110.255 148.568 110.371 148.708 110.477 148.856C110.499 148.898 110.525 148.937 110.555 148.974L110.591 149.033L110.639 149.121L110.675 149.18L110.639 149.239L110.591 149.328C110.567 149.363 110.547 149.401 110.531 149.44C110.39 149.73 110.336 150.052 110.374 150.371C110.403 150.64 110.491 150.9 110.633 151.132C110.734 151.302 110.858 151.459 111 151.597L111.133 151.709V151.745Z" fill="#CF4A57"/>
<path d="M102.043 216.326L134.848 215.046C134.848 215.046 134.312 209.876 133.475 202.891C132.229 192.498 130.303 178.132 128.425 170.769C128.129 169.379 127.662 168.029 127.035 166.748C125.809 165.46 124.494 164.257 123.098 163.146L123.038 163.111C122.882 163.011 122.719 162.916 122.557 162.834C122.015 162.521 121.461 162.244 120.913 161.997L120.39 161.773H120.336L119.806 161.566C119.433 161.425 119.065 161.301 118.704 161.177L118.343 161.065C117.982 160.955 117.627 160.855 117.278 160.765C116.814 160.635 116.357 160.535 115.93 160.446L115.605 160.382C115.358 160.334 115.105 160.287 114.87 160.252L114.509 160.187C113.967 160.105 113.48 160.051 113.064 160.004L112.499 159.951C111.806 159.898 111.403 159.898 111.403 159.898L108.996 160.806C108.006 161.301 107.045 161.85 106.118 162.451C101.809 165.44 100.466 175.868 100.328 186.762C100.31 196.641 100.883 206.512 102.043 216.326Z" fill="#575757"/>
<path d="M101.46 210.932C101.46 210.932 98.9985 214.994 102.062 216.338C105.126 217.682 121.221 217.9 121.221 217.9C121.221 217.9 135.143 216.184 135.703 214.416C136.263 212.647 133.988 209.806 133.988 209.806L101.46 210.932Z" fill="#575757"/>
<path d="M137.081 184.527L135.504 185.087L127.011 188.105L123.068 177.765V163.14C123.375 163.37 134.348 171.752 137.081 184.527Z" fill="#575757"/>
<path d="M121.335 159.191C121.299 160.93 122.918 162.286 123.309 163.983C123.47 164.919 123.412 165.878 123.141 166.789C122.779 168.304 122.214 169.867 120.986 170.851C119.403 172.119 117.079 172.113 115.165 171.441C113.089 170.682 111.336 169.256 110.193 167.397C108.857 165.204 108.689 162.804 108.99 160.323C109.038 159.933 108.936 158.684 109.188 158.43C109.441 158.177 110.994 158.242 111.445 158.224C112.995 158.147 114.547 158.177 116.092 158.312C117.86 158.471 119.613 158.765 121.335 159.191Z" fill="#575757"/>
<path d="M108.953 160.776C108.953 160.776 98.6065 163.641 96.8188 167.472C95.0311 171.304 89.3371 192.745 90.0112 195.592C90.6853 198.439 93.5805 201.605 95.0372 202.371C96.4938 203.137 110.524 200.52 110.524 200.52L110.109 193.446L100.527 190.611L105.456 168.009L108.953 160.776Z" fill="#575757"/>
<path d="M126.222 170.934L126.969 172.891L128.738 177.607C129.412 179.44 130.02 181.108 130.466 182.323C130.911 183.537 131.176 184.298 131.176 184.298C131.176 184.298 131.104 183.496 130.857 182.223C130.542 180.56 130.09 178.926 129.503 177.336C128.909 175.747 128.186 174.207 127.342 172.732C126.692 171.594 126.222 170.934 126.222 170.934Z" fill="#393939"/>
<path d="M105.456 168.864L105.107 169.453C104.884 169.854 104.577 170.438 104.222 171.169C102.364 175.002 101.181 179.116 100.725 183.336C100.635 184.144 100.587 184.798 100.562 185.252C100.538 185.706 100.526 185.959 100.526 185.959L101.128 183.407C101.501 181.833 102.061 179.681 102.735 177.323C103.41 174.965 104.09 172.849 104.607 171.316C105.125 169.783 105.456 168.864 105.456 168.864Z" fill="#393939"/>
<path d="M116.694 189.143C111.06 187.292 104.62 187.787 99.1426 189.733C98.8597 189.839 99.0884 190.216 99.3713 190.116C105.071 188.129 110.645 188.259 116.508 189.644C116.543 189.669 116.584 189.686 116.627 189.693C116.67 189.7 116.714 189.697 116.756 189.684C116.798 189.672 116.836 189.65 116.868 189.62C116.9 189.591 116.924 189.555 116.939 189.514C116.954 189.474 116.959 189.431 116.954 189.389C116.949 189.346 116.934 189.305 116.911 189.269C116.887 189.233 116.855 189.203 116.818 189.181C116.78 189.159 116.738 189.146 116.694 189.143Z" fill="#393939"/>
<path d="M141.637 203.292H112.342L117.236 183.637H146.531L141.637 203.292Z" fill="#EFEFEF"/>
<path d="M132.848 192.78C132.498 192.784 132.154 192.69 131.856 192.509C131.558 192.328 131.318 192.068 131.165 191.759C131.013 191.45 130.953 191.105 130.993 190.764C131.033 190.423 131.171 190.1 131.392 189.833C131.14 189.757 130.879 189.718 130.615 189.715C130.046 189.713 129.488 189.875 129.012 190.182C128.536 190.488 128.163 190.925 127.938 191.438C127.714 191.95 127.649 192.517 127.751 193.065C127.853 193.614 128.118 194.122 128.512 194.524C128.907 194.926 129.414 195.206 129.969 195.329C130.525 195.451 131.105 195.41 131.638 195.212C132.17 195.013 132.631 194.666 132.963 194.212C133.295 193.759 133.483 193.22 133.504 192.662C133.296 192.744 133.073 192.784 132.848 192.78Z" fill="#59D887"/>
<path d="M141.637 203.291H107.262V202.401C107.261 202.154 107.31 201.909 107.406 201.681C107.502 201.453 107.643 201.246 107.821 201.071C107.999 200.896 108.21 200.758 108.442 200.663C108.675 200.569 108.924 200.52 109.176 200.52H141.637V203.291Z" fill="#DDDDDD"/>
<path d="M136.84 200.963C137.315 200.851 139.049 202.578 138.519 202.053C137.99 201.529 136.948 198.84 137.424 198.563C137.899 198.286 140.891 201.187 140.891 201.187C140.891 201.187 139.085 198.416 140.114 198.051C140.451 197.933 140.975 198.222 141.535 198.64C141.469 197.856 141.535 197.213 142.082 197.343C143.328 197.644 143.972 201.087 143.972 201.087C144.298 205.136 137.815 203.975 137.815 203.975C137.815 203.975 136.364 201.075 136.84 200.963Z" fill="#FFA07F"/>
<path d="M245.623 151.869C245.669 151.898 245.724 151.908 245.777 151.897C245.83 151.886 245.877 151.855 245.906 151.81L246.641 150.678L247.796 152.341C247.818 152.369 247.85 152.389 247.885 152.395C247.921 152.402 247.958 152.395 247.989 152.376L248.777 151.846L248.813 151.81C248.813 151.81 248.813 151.781 248.813 151.763C248.825 151.731 248.825 151.695 248.813 151.663L247.61 149.947L248.91 149.576C248.958 149.561 248.998 149.53 249.024 149.488C249.039 149.466 249.048 149.442 249.053 149.416C249.058 149.391 249.058 149.365 249.052 149.34C249.046 149.314 249.036 149.291 249.021 149.269C249.006 149.248 248.986 149.23 248.964 149.216L244.714 146.558C244.681 146.539 244.643 146.53 244.604 146.531C244.566 146.533 244.528 146.544 244.496 146.565C244.463 146.586 244.438 146.615 244.421 146.649C244.404 146.683 244.398 146.721 244.401 146.758L245.527 151.745C245.534 151.771 245.545 151.796 245.562 151.817C245.579 151.838 245.599 151.856 245.623 151.869Z" fill="#F7F6F5"/>
<path d="M330.252 114.194H319.358C318.041 114.194 316.974 115.239 316.974 116.528V127.198C316.974 128.487 318.041 129.533 319.358 129.533H330.252C331.569 129.533 332.636 128.487 332.636 127.198V116.528C332.636 115.239 331.569 114.194 330.252 114.194Z" fill="#E5E1DC"/>
<path d="M330.252 135.716H319.358C318.041 135.716 316.974 136.761 316.974 138.051V148.721C316.974 150.01 318.041 151.055 319.358 151.055H330.252C331.569 151.055 332.636 150.01 332.636 148.721V138.051C332.636 136.761 331.569 135.716 330.252 135.716Z" fill="#E5E1DC"/>
<path d="M330.252 157.928H319.358C318.041 157.928 316.974 158.974 316.974 160.263V170.933C316.974 172.222 318.041 173.267 319.358 173.267H330.252C331.569 173.267 332.636 172.222 332.636 170.933V160.263C332.636 158.974 331.569 157.928 330.252 157.928Z" fill="#E5E1DC"/>
<path d="M330.252 179.452H319.358C318.041 179.452 316.974 180.498 316.974 181.787V192.457C316.974 193.746 318.041 194.791 319.358 194.791H330.252C331.569 194.791 332.636 193.746 332.636 192.457V181.787C332.636 180.498 331.569 179.452 330.252 179.452Z" fill="#E5E1DC"/>
<path d="M330.252 201.445H319.358C318.041 201.445 316.974 202.49 316.974 203.78V214.45C316.974 215.739 318.041 216.784 319.358 216.784H330.252C331.569 216.784 332.636 215.739 332.636 214.45V203.78C332.636 202.49 331.569 201.445 330.252 201.445Z" fill="#E5E1DC"/>
<path d="M330.252 222.969H319.358C318.041 222.969 316.974 224.014 316.974 225.303V235.973C316.974 237.263 318.041 238.308 319.358 238.308H330.252C331.569 238.308 332.636 237.263 332.636 235.973V225.303C332.636 224.014 331.569 222.969 330.252 222.969Z" fill="#E5E1DC"/>
<path d="M346.292 182.253H291.819V207.324H346.292V182.253Z" fill="#91E3AA"/>
<path d="M360.75 293.072C360.639 292.896 360.577 292.694 360.571 292.487C360.565 292.28 360.614 292.075 360.714 291.893C361.455 290.626 364.398 286.234 364.849 284.607C365.204 283.339 364.849 281.376 364.681 280.557L372.572 275.517C374.566 277.329 376.459 279.246 378.242 281.258L360.75 293.072Z" fill="#00902B"/>
<path d="M361.984 294.765L379.476 282.939L378.242 281.247L360.75 293.073L361.984 294.765Z" fill="white"/>
<path d="M366.666 284.071L366.744 284.107C366.943 284.195 367.16 284.384 367.027 284.614C366.943 284.723 366.828 284.805 366.696 284.85C366.255 285.027 365.788 285.132 365.312 285.162C364.798 285.247 364.272 285.219 363.771 285.08C363.265 284.891 363.362 284.331 363.837 284.13C364.739 283.763 365.749 283.742 366.666 284.071Z" fill="white"/>
<path d="M366.006 285.886L366.084 285.922C366.277 286.01 366.499 286.199 366.361 286.429C366.28 286.539 366.167 286.621 366.036 286.664C365.595 286.842 365.127 286.947 364.651 286.977C364.138 287.062 363.611 287.034 363.11 286.894C362.599 286.706 362.695 286.146 363.171 285.945C364.075 285.578 365.086 285.557 366.006 285.886Z" fill="white"/>
<path d="M364.837 287.555L364.915 287.591C365.108 287.679 365.33 287.868 365.192 288.092C365.108 288.202 364.993 288.286 364.861 288.333C364.421 288.508 363.956 288.613 363.482 288.646C362.967 288.732 362.438 288.702 361.935 288.557C361.43 288.369 361.526 287.809 362.002 287.614C362.905 287.245 363.918 287.223 364.837 287.555Z" fill="white"/>
<path d="M343.084 253.145L353.69 243.112L374.775 274.615L363.435 282.314L343.084 253.145Z" fill="#393939"/>
<path d="M337.925 216.207H352.455C351.709 223.87 350.571 237.736 351.805 240.63C351.847 240.713 352.124 241.172 352.588 241.909L340.724 252.214C340.724 252.214 336.468 245.393 335.957 242.817C334.633 236.274 337.895 217.504 337.925 216.207Z" fill="#393939"/>
<path d="M323.763 290.467C323.807 290.26 323.904 290.069 324.046 289.91C324.187 289.751 324.367 289.63 324.57 289.559C326.008 289.099 331.251 287.749 332.732 286.829C333.875 286.116 334.989 284.436 335.428 283.723L344.8 285.073C345.013 287.706 345.076 290.349 344.987 292.99L323.763 290.467Z" fill="#00902B"/>
<path d="M323.504 292.52L344.721 295.043L344.986 292.991L323.763 290.468L323.504 292.52Z" fill="white"/>
<path d="M334.44 287.614L334.476 287.691C334.555 287.885 334.591 288.168 334.326 288.245C334.189 288.274 334.046 288.262 333.917 288.21C333.469 288.058 333.05 287.835 332.677 287.549C332.234 287.286 331.862 286.922 331.593 286.488C331.347 286.023 331.81 285.669 332.304 285.834C333.222 286.139 333.986 286.775 334.44 287.614Z" fill="white"/>
<path d="M332.707 288.522L332.743 288.599C332.821 288.793 332.851 289.076 332.592 289.153C332.455 289.182 332.313 289.17 332.183 289.118C331.735 288.967 331.316 288.744 330.943 288.457C330.498 288.195 330.125 287.831 329.854 287.396C329.613 286.931 330.076 286.577 330.564 286.742C331.485 287.045 332.252 287.682 332.707 288.522Z" fill="white"/>
<path d="M330.648 289.011L330.684 289.088C330.762 289.282 330.792 289.565 330.534 289.642C330.397 289.671 330.254 289.659 330.124 289.607C329.676 289.455 329.257 289.232 328.884 288.946C328.441 288.683 328.069 288.319 327.801 287.885C327.554 287.42 328.018 287.066 328.505 287.231C329.426 287.534 330.193 288.171 330.648 289.011Z" fill="white"/>
<path fill-rule="evenodd" clip-rule="evenodd" d="M350.252 255.28C353.364 247.964 366.124 216.991 366.124 216.991L366.124 216.991C366.124 216.991 366.124 216.991 366.124 216.991L365.573 216.99L362.429 216.98L348.061 216.915L337.112 249.998L334.542 280.298L334.542 280.298V280.298L334.241 283.835V283.835L346.424 286.317V286.316L350.252 255.28Z" fill="#575757"/>
<path d="M334.705 216.796C335.83 209.25 339.321 185.387 339.189 180.948C339.032 175.643 342.897 168.091 342.897 168.091L347.712 167.077L351.263 166.34L357.035 165.279L360.099 165.615L363.44 165.969L364.553 185.706L366.088 218.128L334.705 216.796Z" fill="#B3B3B3"/>
<path d="M320.014 200.874C320.616 201.363 319.911 205.083 320.116 203.945C320.321 202.808 322.861 199.094 323.655 199.43C324.45 199.766 323.39 206.115 323.39 206.115C323.39 206.115 325.359 201.399 326.749 202.318C327.207 202.625 327.309 203.539 327.249 204.629C328.2 203.839 329.121 203.368 329.428 204.14C330.162 205.956 326.286 209.876 326.286 209.876C321.32 213.943 316.974 204.83 316.974 204.83C316.974 204.83 319.436 200.408 320.014 200.874Z" fill="#FFA07F"/>
<path d="M333.881 191.443C334.068 190.853 344.487 191.673 344.487 191.673C343.32 190.494 342.594 188.962 342.429 187.328V187.281C342.415 187.211 342.42 187.139 342.444 187.072C342.467 187.005 342.507 186.945 342.561 186.898C342.621 186.861 342.69 186.843 342.76 186.845C343.056 186.851 343.348 186.919 343.615 187.044C343.883 187.169 344.121 187.348 344.313 187.57C344.686 188.02 345.035 188.488 345.36 188.973C346.088 189.821 346.977 190.524 347.978 191.042C349.609 192.026 349.706 195.422 349.706 195.422L350.338 195.593L349.326 200.68L347.051 200.226L345.703 200.816C344.68 201.117 334.826 199.348 334.754 198.694C334.741 198.497 334.741 198.3 334.754 198.104C334.761 197.854 334.781 197.604 334.814 197.355C334.82 197.282 334.83 197.209 334.844 197.137C334.735 196.898 334.64 196.652 334.562 196.4C334.478 196.161 334.419 195.914 334.387 195.664C334.363 195.563 334.361 195.458 334.382 195.356C334.403 195.254 334.445 195.158 334.507 195.074C335.014 194.887 335.55 194.789 336.09 194.785C338.137 194.591 341.405 194.49 341.261 194.302C341.116 194.113 334.038 192.492 334.038 192.492C333.954 192.345 333.901 192.182 333.881 192.015C333.84 191.826 333.84 191.631 333.881 191.443Z" fill="#FFA07F"/>
<path d="M334.488 195.103C334.995 194.916 335.53 194.818 336.071 194.814C336.402 195.303 336.619 195.946 336.962 196.376C337.493 197.056 338.177 197.607 338.961 197.986C340.276 198.54 341.709 198.779 343.138 198.681C344.564 198.652 345.991 198.481 347.411 198.557C348.177 198.6 348.938 198.703 349.687 198.864L349.307 200.909L347.05 200.22L345.702 200.809C344.679 201.11 334.825 199.341 334.753 198.687C334.74 198.491 334.74 198.294 334.753 198.097C334.76 197.847 334.78 197.597 334.813 197.349C334.819 197.276 334.829 197.203 334.843 197.131C334.734 196.891 334.639 196.645 334.561 196.394C334.477 196.155 334.418 195.908 334.386 195.657C334.364 195.563 334.362 195.465 334.38 195.37C334.398 195.275 334.434 195.184 334.488 195.103Z" fill="#FFBF90"/>
<path d="M334.543 196.442C334.729 196.442 334.922 196.471 335.115 196.477C336.081 196.522 337.05 196.48 338.01 196.353C338.702 196.259 339.147 196.159 339.214 196.147C339.165 196.147 338.714 196.059 338.01 195.976C337.305 195.894 336.264 195.781 335.151 195.728L334.368 195.699C334.401 195.952 334.46 196.2 334.543 196.442Z" fill="#CF4A57"/>
<path d="M334.736 198.139C335.854 198.211 336.977 198.178 338.088 198.039C337.013 197.717 335.909 197.5 334.79 197.39C334.772 197.573 334.742 197.85 334.736 198.139Z" fill="#CF4A57"/>
<path d="M363.477 165.969C363.477 165.969 368.341 166.83 369.659 169.382C370.532 171.08 376.804 198.168 373.469 203.067C370.134 207.966 348.454 202.631 348.454 202.631L349.766 192.609L363.417 194.212L363.477 165.969Z" fill="#B3B3B3"/>
<path d="M364.844 168.675C364.976 168.551 365.223 168.722 365.108 168.875C364.018 170.347 363.423 172.115 363.405 173.933C363.394 174.012 363.354 174.085 363.293 174.138C363.231 174.19 363.153 174.219 363.071 174.219C362.989 174.219 362.911 174.19 362.849 174.138C362.788 174.085 362.748 174.012 362.737 173.933C362.67 172.959 362.824 171.982 363.188 171.073C363.553 170.164 364.118 169.345 364.844 168.675Z" fill="#939393"/>
<path d="M350.433 192.904C351.938 191.92 354.129 192.604 355.85 192.769C358.053 192.981 360.25 193.199 362.471 193.458C362.808 188.984 363.236 184.221 364.692 179.982C364.723 179.912 364.843 179.917 364.837 179.982C364.656 184.698 363.874 189.414 363.711 194.13C363.71 194.298 363.642 194.458 363.521 194.577C363.401 194.696 363.238 194.764 363.067 194.767C360.515 194.578 357.969 194.337 355.423 194.083C353.81 193.924 351.655 194.113 350.457 192.934C350.409 192.945 350.415 192.916 350.433 192.904Z" fill="#939393"/>
<path d="M350.458 200.734C353.185 201.359 355.761 202.549 358.488 203.221C361.401 203.941 364.362 204.035 367.318 204.459C367.709 204.518 367.583 205.084 367.228 205.108C361.302 205.42 355.403 204.131 350.175 201.382C350.106 201.335 350.054 201.266 350.031 201.186C350.007 201.106 350.012 201.021 350.046 200.944C350.079 200.868 350.138 200.805 350.214 200.767C350.289 200.728 350.375 200.717 350.458 200.734Z" fill="#939393"/>
<path d="M289.075 292.46C288.957 292.288 288.886 292.088 288.872 291.881C288.857 291.674 288.898 291.467 288.991 291.281C289.671 289.99 292.41 285.521 292.795 283.882C293.09 282.615 292.663 280.675 292.458 279.874L300.078 274.568C302.134 276.288 304.092 278.119 305.941 280.051L289.075 292.46Z" fill="#00902B"/>
<path d="M290.368 294.081L307.234 281.654L305.94 280.033L289.074 292.454L290.368 294.081Z" fill="white"/>
<path d="M294.576 283.288L294.655 283.317C294.853 283.4 295.082 283.582 294.95 283.812C294.874 283.925 294.765 284.011 294.637 284.06C294.205 284.249 293.746 284.372 293.276 284.425C292.771 284.537 292.247 284.537 291.741 284.425C291.23 284.254 291.302 283.7 291.741 283.482C292.627 283.069 293.64 282.999 294.576 283.288Z" fill="white"/>
<path d="M294.005 285.09L294.083 285.12C294.275 285.202 294.504 285.385 294.378 285.615C294.301 285.726 294.192 285.813 294.065 285.863C293.633 286.052 293.174 286.175 292.705 286.228C292.199 286.34 291.675 286.34 291.17 286.228C290.658 286.057 290.73 285.503 291.17 285.285C292.056 284.871 293.068 284.802 294.005 285.09Z" fill="white"/>
<path d="M292.897 286.818L292.981 286.847C293.174 286.93 293.403 287.107 293.276 287.337C293.199 287.45 293.087 287.536 292.957 287.584C292.53 287.78 292.072 287.903 291.603 287.95C291.096 288.068 290.569 288.068 290.062 287.95C289.556 287.785 289.623 287.225 290.092 287.007C290.97 286.6 291.971 286.533 292.897 286.818Z" fill="white"/>
<path d="M269.897 253.529L280.01 243.153L302.232 273.584L291.289 281.672L269.897 253.529Z" fill="#393939"/>
<path d="M263.26 217.074L277.675 216.485C277.248 224.148 276.694 237.925 278.036 240.749C278.079 240.831 278.38 241.279 278.867 241.987L267.497 252.698C267.497 252.698 262.995 246.102 262.381 243.567C260.816 237.123 263.278 218.359 263.26 217.074Z" fill="#393939"/>
<path d="M291.272 216.737C291.272 216.737 279.884 247.981 277.103 255.362L274.575 286.317L262.386 284.336L262.537 280.799L263.819 250.64L273.341 217.374L287.606 216.873L291.272 216.737Z" fill="#575757"/>
<path d="M252.244 291.334C252.279 291.128 252.368 290.934 252.502 290.77C252.636 290.607 252.81 290.481 253.009 290.403C254.417 289.884 259.563 288.334 260.99 287.367C262.097 286.618 263.133 284.903 263.542 284.177L272.896 285.15C273.221 287.754 273.392 290.374 273.407 292.996L252.244 291.334Z" fill="#00902B"/>
<path d="M252.088 293.374L273.251 295.042L273.426 292.997L252.262 291.334L252.088 293.374Z" fill="white"/>
<path d="M262.741 288.079L262.777 288.156C262.867 288.338 262.909 288.621 262.656 288.71C262.523 288.748 262.381 288.748 262.247 288.71C261.797 288.579 261.37 288.38 260.983 288.12C260.537 287.871 260.154 287.527 259.864 287.112C259.605 286.658 260.05 286.287 260.544 286.428C261.463 286.686 262.249 287.276 262.741 288.079Z" fill="white"/>
<path d="M261.056 289.046L261.092 289.123C261.182 289.311 261.224 289.588 260.971 289.677C260.838 289.718 260.695 289.718 260.562 289.677C260.112 289.55 259.687 289.351 259.304 289.087C258.854 288.844 258.47 288.498 258.185 288.079C257.92 287.625 258.365 287.254 258.859 287.396C259.778 287.653 260.564 288.243 261.056 289.046Z" fill="white"/>
<path d="M259.033 289.613C259.047 289.638 259.059 289.663 259.069 289.689C259.16 289.878 259.202 290.155 258.949 290.244C258.816 290.285 258.673 290.285 258.54 290.244C258.09 290.115 257.665 289.916 257.282 289.654C256.833 289.409 256.449 289.063 256.162 288.646C255.897 288.192 256.343 287.827 256.836 287.962C257.756 288.219 258.541 288.81 259.033 289.613Z" fill="white"/>
<path d="M291.272 216.737C291.272 216.737 279.884 247.981 277.103 255.362L274.575 286.317L262.386 284.336L262.537 280.799L272.077 281.388C272.077 281.388 274.16 256.264 274.755 253.575C275.303 251.123 285.758 222.019 287.606 216.879L291.272 216.737Z" fill="#575757"/>
<path d="M265.69 167.649C264.146 168.659 262.761 169.885 261.579 171.287C260.195 173.155 255.927 191.471 256.463 194.867C257.095 198.917 261.88 205.684 261.88 205.684L265.69 167.649Z" fill="#B3B3B3"/>
<path d="M261.465 190.447C261.724 188.425 262.001 186.408 262.368 184.404C263.169 180.042 263.945 175.685 265.089 171.394C265.155 171.146 265.51 171.252 265.468 171.494C264.709 175.986 263.831 180.466 263.283 184.988C263.024 187.11 262.711 189.232 262.47 191.354C262.254 193.217 262.272 195.151 261.748 196.949C261.718 197.047 261.654 197.132 261.566 197.188C261.478 197.244 261.373 197.267 261.269 197.254C261.165 197.24 261.069 197.191 260.999 197.114C260.929 197.038 260.89 196.939 260.887 196.837C260.671 194.744 261.2 192.528 261.465 190.447Z" fill="#939393"/>
<path d="M366.215 221.276C366.215 221.276 358.793 221.153 351.029 220.221C343.264 219.29 334.458 217.81 334.458 217.81C334.458 217.81 333.152 214.326 334.735 213.577C334.735 213.577 359.293 212.729 366.401 216.207C367.593 216.79 366.215 221.276 366.215 221.276Z" fill="#91E3AA"/>
<path d="M353.606 192.345L349.362 191.566L348.454 202.631L351.83 203.374L353.606 192.345Z" fill="#91E3AA"/>
<path d="M361.407 164.402C361.862 164.862 362.266 165.367 362.611 165.911C362.611 165.911 356.971 172.248 355.081 172.579L351.56 169.755L347.382 171.028C347.382 171.028 348.959 167.774 349.965 166.725C349.965 166.725 352.053 164.868 353.221 164.773C354.389 164.679 359.499 163.689 361.407 164.402Z" fill="#91E3AA"/>
<path d="M360.124 164.89C359.919 165.002 351.643 168.239 351.643 168.239C351.643 168.239 352.636 165.185 353.142 163.593C353.298 163.098 353.413 162.744 353.431 162.668C353.605 162.025 353.798 159.09 353.798 159.09L361.623 157.763C361.623 157.763 361.352 159.202 361.021 160.787C360.803 162.171 360.503 163.541 360.124 164.89Z" fill="#FFA07F"/>
<path d="M361.045 160.787C358.734 161.672 353.642 163.587 353.184 163.593H353.142C353.299 163.098 353.413 162.744 353.431 162.668C353.606 162.025 353.798 159.09 353.798 159.09L361.623 157.763C361.623 157.763 361.358 159.202 361.045 160.787Z" fill="#FF7D6F"/>
<path d="M362.52 158.246C362.175 158.647 361.74 158.964 361.25 159.172C361.051 159.272 360.828 159.366 360.569 159.467C359.594 159.826 351.053 161.07 349.91 160.61C348.766 160.15 348.706 155.894 348.778 155.446C349.085 152.782 350.174 144.57 350.174 144.57C355.423 136.676 364.62 143.839 365.583 144.994C366.546 146.15 362.52 158.246 362.52 158.246Z" fill="#FFA07F"/>
<path d="M357.578 155.871L352.077 155.783C352.077 155.783 352.125 158.371 354.617 158.542C357.109 158.713 357.578 155.871 357.578 155.871Z" fill="#FFEEDE"/>
<path d="M361.25 159.172C361.051 159.273 360.828 159.367 360.569 159.467C359.594 159.827 351.053 161.071 349.91 160.611C348.766 160.151 348.706 155.895 348.778 155.447C349.043 157.386 349.223 160.021 350.084 160.163C351.372 160.369 360.19 159.414 361.25 159.172Z" fill="#FFBF90"/>
<path d="M350.078 148.09C350.078 148.09 351.992 146.598 352.582 147.535C353.171 148.473 352.798 148.461 352.798 148.461L350.078 148.09Z" fill="#55062C"/>
<path d="M361.521 149.369C361.521 149.369 359.54 145.832 358.222 146.669C357.458 147.153 357.801 147.665 357.801 147.665L361.521 149.369Z" fill="#55062C"/>
<path d="M358.662 151.296C358.463 152.022 357.928 152.517 357.458 152.399C356.989 152.281 356.778 151.591 356.971 150.86C357.163 150.129 357.699 149.64 358.174 149.764C358.65 149.888 358.854 150.566 358.662 151.296Z" fill="#161818"/>
<path d="M350.181 149.841C350.019 150.431 350.181 151.02 350.578 151.115C350.976 151.209 351.403 150.802 351.565 150.201C351.728 149.6 351.565 149.022 351.168 148.933C350.771 148.845 350.356 149.24 350.181 149.841Z" fill="#161818"/>
<path d="M351.824 153.956C352.832 152.856 353.565 151.543 353.967 150.118C353.967 150.118 354.021 150.118 354.021 150.118C353.921 151.565 353.313 152.934 352.3 153.991C352.811 154.133 353.323 154.215 353.835 154.351C353.997 154.386 353.949 154.599 353.835 154.616C353.185 154.655 352.536 154.535 351.945 154.269C351.911 154.263 351.879 154.248 351.853 154.227C351.826 154.205 351.806 154.177 351.794 154.146C351.782 154.114 351.778 154.08 351.784 154.047C351.789 154.014 351.803 153.982 351.824 153.956Z" fill="#FC5B68"/>
<path d="M361.31 158.265C361.981 158.371 362.667 158.342 363.327 158.179C363.986 158.015 364.605 157.722 365.144 157.316C365.311 157.197 365.466 157.063 365.607 156.915C366.275 156.231 367.154 153.484 366.167 152.535C365.475 151.875 364.704 152.376 364.307 152.741C364.21 152.829 364.119 152.923 364.036 153.024L361.31 158.265Z" fill="#FFBF90"/>
<path d="M361.31 158.265C361.981 158.371 362.667 158.342 363.327 158.179C363.986 158.016 364.605 157.722 365.144 157.316C365.216 157.259 365.282 157.196 365.342 157.127C366.01 156.443 366.889 153.696 365.902 152.747C365.688 152.545 365.402 152.432 365.105 152.432C364.807 152.432 364.521 152.545 364.307 152.747C364.21 152.835 364.119 152.929 364.036 153.03L361.31 158.265Z" fill="#FFA07F"/>
<path d="M365.938 154.84C365.926 155.078 365.845 155.307 365.703 155.5C365.137 156.355 363.994 156.821 362.904 157.269C363.286 156.896 363.535 156.412 363.615 155.889C363.615 155.713 363.651 155.53 363.693 155.353C363.873 154.628 365.95 153.437 365.938 154.84Z" fill="#FF7D6F"/>
<path d="M362.393 157.375H362.453C362.511 157.366 362.568 157.35 362.622 157.328C362.821 157.263 363.007 157.167 363.176 157.045C363.426 156.881 363.632 156.661 363.777 156.402C363.936 156.091 363.989 155.737 363.928 155.394C363.919 155.346 363.907 155.299 363.892 155.253V155.217L363.94 155.17L364.03 155.082C364.151 154.971 364.277 154.867 364.409 154.769C364.536 154.675 364.662 154.593 364.789 154.516C364.904 154.444 365.025 154.381 365.15 154.327C365.254 154.282 365.368 154.264 365.481 154.274C365.567 154.289 365.648 154.325 365.716 154.38C365.757 154.415 365.788 154.46 365.806 154.51C365.809 154.527 365.809 154.546 365.806 154.563C365.811 154.546 365.811 154.527 365.806 154.51C365.803 154.454 365.782 154.4 365.746 154.357C365.676 154.279 365.583 154.223 365.481 154.198C365.343 154.162 365.198 154.162 365.06 154.198C364.914 154.238 364.773 154.291 364.638 154.357C364.489 154.424 364.344 154.501 364.205 154.587C364.051 154.678 363.906 154.783 363.771 154.899L363.669 154.987L363.597 155.017L363.531 155.082L363.483 155.129C363.48 155.15 363.48 155.172 363.483 155.194V155.282C363.488 155.323 363.488 155.365 363.483 155.406C363.541 155.71 363.512 156.025 363.398 156.314C363.3 156.555 363.152 156.773 362.965 156.956C362.83 157.091 362.676 157.207 362.507 157.298L362.357 157.375H362.393Z" fill="#CF4A57"/>
<path d="M350.06 143.433L347.417 142.802C348.056 144.689 350.313 145.591 352.341 145.614C354.37 145.638 356.362 145.025 358.39 145.025C360.419 145.025 362.694 145.779 363.464 147.613L362.682 150.401L363.747 151.58L363.181 154.669C363.181 154.669 364.728 151.857 366.366 152.8C366.366 152.8 367.058 151.621 367.828 150.189C368.815 148.385 369.929 146.233 369.893 145.738C369.839 144.848 367.365 143.445 367.365 143.445C367.365 143.445 366.649 138.729 359.69 138.263C357.945 138.157 356.211 138.699 354.466 138.705C352.72 138.711 350.788 138.116 349.933 136.624C349.769 137.112 349.716 137.629 349.78 138.138C349.843 138.648 350.021 139.137 350.301 139.572C350.482 139.868 350.712 140.133 350.981 140.356C349.845 140.246 348.783 139.757 347.971 138.97C347.868 139.83 348.008 140.702 348.376 141.489C348.744 142.276 349.327 142.949 350.06 143.433Z" fill="#3F0727"/>
<path d="M349.934 136.612C349.769 137.099 349.717 137.617 349.78 138.126C349.844 138.636 350.021 139.125 350.301 139.56C351.432 140.534 352.712 141.329 354.093 141.918L351.878 142.165C353.034 143.108 354.743 142.914 356.206 142.548C357.668 142.183 359.215 141.694 360.63 142.189C362.044 142.684 362.923 144.028 363.748 145.26C364.572 146.492 365.553 147.801 367.028 148.119L364.62 149.888L367.817 150.165C368.418 149.057 369.081 147.807 369.484 146.905C369.682 146.536 369.816 146.138 369.881 145.726C369.827 144.836 367.353 143.433 367.353 143.433C367.353 143.433 366.637 138.717 359.679 138.251C357.933 138.145 356.2 138.687 354.454 138.693C353.93 138.696 353.407 138.642 352.895 138.534C352.291 138.438 351.714 138.217 351.203 137.885C350.693 137.554 350.26 137.12 349.934 136.612Z" fill="#55062C"/>
<path d="M356.868 139.973L355.447 140.698C356.753 140.409 358.087 140.264 359.426 140.268C360.774 140.279 362.077 140.746 363.116 141.588C364.055 142.419 364.584 143.604 365.397 144.536C366.209 145.467 367.564 146.239 368.719 145.715C368.455 146.192 368.184 146.664 367.919 147.135L369.496 146.894C369.694 146.525 369.829 146.127 369.893 145.715C369.839 144.825 367.365 143.422 367.365 143.422C367.365 143.422 366.649 138.706 359.691 138.24C357.945 138.134 356.212 138.676 354.466 138.682C353.942 138.685 353.419 138.631 352.907 138.523C354.102 139.286 355.455 139.781 356.868 139.973Z" fill="#6F0A32"/>
<path d="M292.921 202.807C292.921 202.807 291.254 205.754 291.175 206.379C291.097 207.004 294.962 211.868 295.654 212.097C296.346 212.327 304.032 209.928 304.08 207.458L299.608 207.334L292.921 202.807Z" fill="#FFA07F"/>
<path d="M291.82 219.361C291.766 198.009 289.165 166.406 289.165 166.406L280.739 163.712L273.335 164.006C273.335 164.006 266.317 166.6 265.697 167.65C265.282 168.345 260.882 200.408 259.985 219.361H291.82Z" fill="#B3B3B3"/>
<path d="M289.165 166.407C289.165 166.407 291.53 166.643 293.649 169.195C295.238 171.099 306.602 190.571 306.596 194.945C306.596 196.955 299.59 207.324 299.59 207.324L291.807 202.797L296.255 196.413L287.431 182.854L289.165 166.407Z" fill="#B3B3B3"/>
<path d="M290.478 171.847C290.51 171.766 290.573 171.699 290.653 171.66C290.733 171.621 290.824 171.612 290.911 171.636C290.997 171.659 291.071 171.713 291.119 171.787C291.167 171.861 291.185 171.949 291.17 172.036C290.704 174.372 290.385 176.735 290.213 179.11C290.104 180.99 290.393 182.93 289.936 184.769C289.858 185.099 289.418 185.04 289.334 184.769C287.829 181.085 289.226 175.478 290.478 171.847Z" fill="#939393"/>
<path d="M298.127 195.758L298.97 194.785C299.241 194.479 299.427 194.143 299.879 194.143C299.968 194.144 300.054 194.174 300.124 194.227C300.194 194.28 300.246 194.354 300.27 194.437C300.348 194.909 300.071 195.121 299.777 195.457L299.355 195.929L299.578 196.023C299.915 196.141 300.27 196.229 300.613 196.33C300.698 196.353 300.769 196.409 300.812 196.484C300.855 196.559 300.866 196.648 300.842 196.731C300.818 196.813 300.761 196.884 300.685 196.926C300.608 196.968 300.517 196.978 300.433 196.955C300.083 196.878 299.734 196.784 299.385 196.725C299.036 196.666 298.699 196.666 298.356 196.613C298.013 196.56 297.899 196.017 298.127 195.758Z" fill="#939393"/>
<path d="M273.16 164.938C273.371 165.067 282.086 168.687 282.086 168.687C282.086 168.687 281.105 165.421 280.6 163.717C280.449 163.193 280.335 162.815 280.317 162.733C280.148 162.043 280.016 158.919 280.016 158.919L271.728 157.333C271.728 157.333 271.98 158.872 272.269 160.564C272.479 162.037 272.776 163.498 273.16 164.938Z" fill="#FFA07F"/>
<path d="M272.269 160.564C274.707 161.548 280.094 163.7 280.558 163.723H280.6C280.449 163.199 280.335 162.822 280.317 162.739C280.148 162.049 280.016 158.925 280.016 158.925L271.728 157.339C271.728 157.339 271.98 158.872 272.269 160.564Z" fill="#FF7D6F"/>
<path d="M270.764 157.829C271.122 158.262 271.578 158.609 272.094 158.843C272.305 158.949 272.54 159.061 272.811 159.167C273.834 159.574 282.887 161.089 284.109 160.623C285.33 160.157 285.475 155.63 285.433 155.164C285.168 152.329 284.229 143.58 284.229 143.58C278.812 135.074 268.892 142.478 267.851 143.681C266.81 144.883 270.764 157.829 270.764 157.829Z" fill="#FFA07F"/>
<path d="M272.107 158.842C272.318 158.948 272.553 159.06 272.824 159.167C273.847 159.573 282.9 161.088 284.122 160.623C285.343 160.157 285.488 155.63 285.446 155.164C285.121 157.221 284.844 160.01 283.947 160.139C282.557 160.322 273.221 159.143 272.107 158.842Z" fill="#FFBF90"/>
<path d="M277.693 157.551C278.113 157.643 278.547 157.645 278.968 157.559C279.388 157.473 279.785 157.299 280.131 157.05C280.06 157.261 279.934 157.449 279.765 157.597C279.596 157.745 279.39 157.847 279.168 157.893C278.65 157.961 278.125 157.84 277.693 157.551Z" fill="#FC5B68"/>
<path d="M275.375 155.665L275.562 155.824C275.736 155.965 275.923 156.089 276.121 156.196C276.785 156.559 277.531 156.754 278.291 156.762C279.051 156.77 279.802 156.592 280.473 156.243C280.673 156.139 280.863 156.017 281.039 155.877L281.232 155.73L281.003 155.824C280.807 155.913 280.606 155.99 280.401 156.054C279.038 156.469 277.577 156.455 276.224 156.013C276.018 155.946 275.816 155.865 275.622 155.771L275.375 155.665Z" fill="#FC5B68"/>
<path d="M279.059 152.729C279.009 152.483 279.047 152.227 279.167 152.004C279.244 152.194 279.37 152.362 279.532 152.49C279.695 152.618 279.888 152.703 280.094 152.735C280.268 152.772 280.448 152.772 280.622 152.737C280.796 152.701 280.961 152.631 281.105 152.529L280.955 153.425C280.788 153.462 280.616 153.462 280.449 153.425L279.432 153.16C279.31 153.143 279.198 153.082 279.119 152.989C279.073 152.91 279.052 152.82 279.059 152.729Z" fill="#FF7D6F"/>
<path d="M279.029 152.977C279.706 153.469 280.553 153.681 281.388 153.567C281.279 151.818 280.818 150.107 280.034 148.532C280.421 149.997 280.635 151.5 280.672 153.013C280.215 152.96 279.486 153.042 279.029 152.977Z" fill="#FC5B68"/>
<path d="M283.844 146.988C283.844 146.988 281.936 145.502 281.34 146.44C280.745 147.377 281.136 147.353 281.136 147.353L283.844 146.988Z" fill="#7E3A2D"/>
<path d="M272.407 148.273C272.407 148.273 274.388 144.736 275.7 145.567C276.464 146.05 276.121 146.563 276.121 146.563L272.407 148.273Z" fill="#7E3A2D"/>
<path d="M275.267 150.195C275.46 150.926 275.996 151.416 276.471 151.298C276.947 151.18 277.151 150.49 276.953 149.765C276.754 149.04 276.224 148.545 275.749 148.663C275.273 148.781 275.069 149.47 275.267 150.195Z" fill="#161818"/>
<path d="M283.748 148.744C283.911 149.334 283.748 149.923 283.345 150.012C282.941 150.1 282.52 149.711 282.34 149.122C282.159 148.532 282.34 147.943 282.743 147.854C283.146 147.766 283.586 148.143 283.748 148.744Z" fill="#161818"/>
<path d="M272.053 157.876C271.337 157.973 270.608 157.926 269.912 157.737C269.215 157.549 268.565 157.223 268.002 156.779C267.829 156.647 267.668 156.501 267.52 156.343C266.828 155.6 265.955 152.665 267.033 151.68C267.779 150.99 268.586 151.545 269.001 151.934C269.105 152.027 269.199 152.13 269.284 152.24L272.053 157.876Z" fill="#FFBF90"/>
<path d="M272.052 157.876C271.336 157.973 270.608 157.926 269.911 157.737C269.214 157.549 268.565 157.223 268.001 156.779L267.791 156.579C267.098 155.836 266.232 152.894 267.303 151.91C267.529 151.69 267.834 151.567 268.152 151.567C268.47 151.567 268.775 151.69 269 151.91C269.104 152.003 269.199 152.106 269.283 152.216L272.052 157.876Z" fill="#FFA07F"/>
<path d="M267.219 154.133C267.225 154.385 267.305 154.63 267.447 154.84C268.049 155.754 269.253 156.279 270.385 156.756C269.985 156.354 269.731 155.834 269.663 155.276C269.663 155.082 269.632 154.893 269.59 154.687C269.41 153.956 267.237 152.659 267.219 154.133Z" fill="#FF7D6F"/>
<path d="M270.945 156.927H270.879L270.705 156.868C270.488 156.795 270.285 156.69 270.103 156.555C269.849 156.373 269.643 156.135 269.501 155.859C269.337 155.524 269.289 155.146 269.362 154.781C269.371 154.73 269.385 154.681 269.405 154.633V154.598L269.356 154.551L269.26 154.456C269.136 154.333 269.004 154.219 268.863 154.115C268.736 154.014 268.604 153.922 268.466 153.837C268.346 153.76 268.221 153.689 268.092 153.625C267.983 153.579 267.863 153.558 267.743 153.566C267.649 153.577 267.559 153.614 267.485 153.672C267.439 153.707 267.406 153.754 267.388 153.808C267.388 153.843 267.388 153.861 267.388 153.861C267.386 153.843 267.386 153.826 267.388 153.808C267.389 153.749 267.413 153.692 267.454 153.649C267.528 153.564 267.627 153.504 267.737 153.478C267.884 153.443 268.036 153.443 268.183 153.478C268.335 153.527 268.484 153.586 268.628 153.655C268.786 153.732 268.938 153.819 269.086 153.914C269.244 154.016 269.395 154.128 269.537 154.25L269.645 154.35L269.694 154.403L269.766 154.474L269.814 154.527V154.592L269.784 154.686C269.771 154.729 269.761 154.772 269.754 154.816C269.685 155.136 269.708 155.469 269.82 155.777C269.919 156.036 270.07 156.273 270.265 156.473C270.408 156.619 270.57 156.745 270.747 156.85L270.903 156.932L270.945 156.927Z" fill="#CF4A57"/>
<path d="M284.464 145.938L284.061 145.443C284.061 145.443 283.525 143.143 282.905 142.642C282.285 142.141 280.25 143.314 278.908 143.727C277.566 144.14 270.897 142.908 270.385 143.261C269.874 143.615 270.782 146.126 270.782 146.126C270.415 146.545 268.929 148.06 268.929 148.06L270.132 153.077L268.748 152.069C268.568 151.923 268.349 151.832 268.117 151.807C267.885 151.781 267.651 151.822 267.442 151.924C267.234 152.027 267.06 152.186 266.943 152.383C266.825 152.581 266.768 152.807 266.78 153.035V154.881C265.905 154.127 265.147 153.253 264.529 152.287C263.349 150.509 262.643 148.47 262.476 146.356C262.277 142.978 265.696 141.964 265.696 141.964C267.598 135.203 277.133 134.036 279.829 134.69C281.337 135.001 282.667 135.863 283.549 137.101C283.212 136.871 281.141 136.789 281.141 136.789C282.459 137.291 283.521 138.283 284.097 139.547C284.446 140.503 284.626 141.51 284.626 142.524C284.653 143.665 284.599 144.805 284.464 145.938Z" fill="#7C3127"/>
<path d="M284.59 142.525C283.525 141.252 282.183 139.878 281.388 139.843C279.847 139.79 279.835 141.611 278.764 142.124C277.692 142.637 270.481 140.945 269.169 141.888C267.857 142.832 269.705 145.213 269.428 145.425C269.151 145.638 267.213 146.54 267.213 146.54L268.796 150.383C268.083 150.079 267.295 149.982 266.527 150.106C265.744 150.212 265.034 151.315 264.547 152.27C263.747 151.053 263.147 149.72 262.771 148.32C262.607 147.67 262.502 147.007 262.458 146.339C262.259 142.961 265.678 141.947 265.678 141.947C267.58 135.186 277.115 134.018 279.811 134.673C281.319 134.984 282.649 135.846 283.531 137.084C283.194 136.854 281.123 136.771 281.123 136.771C282.441 137.274 283.503 138.265 284.079 139.53C284.109 139.591 284.133 139.654 284.151 139.719C284.442 140.627 284.59 141.573 284.59 142.525Z" fill="#87342E"/>
<path d="M284.146 139.736C282.839 138.94 280.925 137.838 280.221 137.685C279.108 137.455 278.114 139.671 277.061 139.842C276.008 140.013 270.374 138.663 268.815 139.365C267.256 140.066 267.99 144.275 267.99 144.275H265.968L266.811 147.777C266.153 147.554 265.47 147.415 264.776 147.364C264.387 147.348 264 147.429 263.652 147.599C263.303 147.769 263.005 148.023 262.784 148.337C262.62 147.687 262.515 147.024 262.471 146.356C262.272 142.978 265.691 141.964 265.691 141.964C267.593 135.203 277.127 134.036 279.824 134.69C281.332 135.001 282.662 135.863 283.544 137.101C283.207 136.871 281.136 136.789 281.136 136.789C282.454 137.291 283.516 138.283 284.091 139.547C284.115 139.609 284.134 139.672 284.146 139.736Z" fill="#913434"/>
<path d="M280.479 164.414C280.753 164.228 281.079 164.129 281.412 164.131C281.774 164.226 282.083 164.457 282.273 164.773C283.08 165.824 283.736 166.979 284.223 168.204C284.411 168.569 284.456 168.988 284.349 169.383C284.115 169.932 283.416 170.091 282.814 170.132C280.319 170.202 277.842 169.687 275.591 168.629C274.559 168.222 273.593 167.668 272.726 166.984C272.028 166.395 272.124 166.813 271.805 165.947C271.486 165.08 271.486 164.602 272.094 165.039C273.593 166.118 275.423 165.628 277.211 165.41C278.352 165.273 279.46 164.936 280.479 164.414Z" fill="#B3B3B3"/>
<path d="M334.507 174.104C333.752 174.109 333.007 173.931 332.34 173.585C332.177 173.506 331.99 173.488 331.815 173.535C331.639 173.581 331.488 173.69 331.389 173.839V181.438C331.39 181.54 331.371 181.641 331.333 181.736C331.294 181.831 331.237 181.918 331.165 181.991C331.092 182.065 331.005 182.123 330.909 182.164C330.814 182.204 330.711 182.226 330.606 182.228H323.269H323.155H323.106C322.967 182.217 322.832 182.171 322.717 182.093C322.601 182.016 322.508 181.91 322.447 181.787C322.386 181.663 322.36 181.526 322.37 181.39C322.38 181.253 322.426 181.121 322.504 181.007C323.032 180.131 323.289 179.124 323.244 178.108C323.199 177.093 322.854 176.111 322.252 175.283C321.957 174.936 321.615 174.63 321.234 174.375C320.417 173.876 319.477 173.599 318.514 173.574C317.55 173.604 316.612 173.882 315.793 174.381C315.414 174.638 315.074 174.946 314.782 175.295C314.181 176.124 313.838 177.105 313.794 178.121C313.75 179.137 314.008 180.143 314.535 181.019C314.617 181.134 314.665 181.269 314.674 181.409C314.684 181.549 314.655 181.688 314.59 181.813C314.525 181.938 314.427 182.044 314.307 182.119C314.186 182.194 314.046 182.235 313.903 182.239H313.867H313.753H306.44C306.228 182.236 306.027 182.151 305.879 182.003C305.731 181.855 305.649 181.656 305.651 181.449V177.093V173.88C305.552 173.731 305.4 173.623 305.225 173.576C305.049 173.529 304.863 173.547 304.7 173.627C304.032 173.97 303.288 174.149 302.533 174.145C298.855 174.145 296.141 169.966 298.801 166.057C298.933 165.858 299.102 165.686 299.301 165.55C301.221 164.212 303.177 164.206 304.718 164.961C304.872 165.038 305.049 165.06 305.218 165.024C305.387 164.987 305.538 164.894 305.645 164.76V157.209C305.642 157.007 305.718 156.813 305.858 156.665C305.999 156.518 306.192 156.43 306.397 156.419L306.644 156.372H313.602C313.724 156.35 313.839 156.3 313.938 156.227C314.037 156.154 314.118 156.06 314.173 155.951C314.229 155.843 314.258 155.723 314.258 155.602C314.258 155.48 314.229 155.36 314.174 155.252C313.817 154.563 313.631 153.802 313.632 153.029C313.609 152.382 313.719 151.737 313.956 151.133C314.193 150.528 314.552 149.977 315.011 149.511C315.47 149.045 316.021 148.675 316.629 148.422C317.238 148.169 317.892 148.039 318.553 148.039C319.214 148.039 319.868 148.169 320.477 148.422C321.085 148.675 321.636 149.045 322.095 149.511C322.554 149.977 322.913 150.528 323.15 151.133C323.387 151.737 323.497 152.382 323.474 153.029C323.472 153.804 323.284 154.567 322.926 155.258C322.872 155.368 322.845 155.49 322.847 155.612C322.85 155.735 322.882 155.855 322.94 155.963C322.999 156.072 323.082 156.165 323.184 156.236C323.286 156.307 323.404 156.353 323.528 156.372H330.486L330.739 156.413C330.879 156.419 331.015 156.464 331.13 156.543C331.242 156.615 331.333 156.713 331.396 156.828C331.459 156.943 331.492 157.072 331.491 157.203V164.755C331.6 164.889 331.753 164.982 331.925 165.018C332.096 165.053 332.275 165.029 332.43 164.949C333.929 164.177 335.891 164.183 337.811 165.539C338.013 165.672 338.185 165.845 338.317 166.046C340.887 169.913 338.19 174.098 334.507 174.104Z" fill="#00902B"/>
<path d="M48.2323 111.889H87.3564C87.7271 111.874 88.0886 112.003 88.3624 112.248C88.6363 112.494 88.8004 112.834 88.8191 113.197V128.224C88.8019 128.588 88.6385 128.93 88.3644 129.176C88.0904 129.423 87.7281 129.553 87.3564 129.538H82.3847L84.1904 135.846L73.7413 129.538H48.2323C47.8597 129.554 47.4958 129.425 47.2205 129.178C46.9451 128.932 46.7808 128.589 46.7637 128.224V113.197C46.7824 112.833 46.9473 112.492 47.2225 112.246C47.4977 112.001 47.8607 111.873 48.2323 111.889Z" fill="#59D887"/>
<path d="M81.5848 122.252C82.6286 122.252 83.4748 121.424 83.4748 120.401C83.4748 119.379 82.6286 118.55 81.5848 118.55C80.541 118.55 79.6948 119.379 79.6948 120.401C79.6948 121.424 80.541 122.252 81.5848 122.252Z" fill="#FCF1EB"/>
<path d="M66.585 120.401C66.585 120.767 66.6958 121.125 66.9035 121.43C67.1112 121.734 67.4063 121.971 67.7517 122.111C68.097 122.252 68.4771 122.288 68.8437 122.217C69.2103 122.145 69.5471 121.969 69.8114 121.71C70.0757 121.451 70.2557 121.122 70.3286 120.762C70.4016 120.403 70.3641 120.031 70.2211 119.693C70.078 119.355 69.8358 119.066 69.525 118.862C69.2142 118.659 68.8488 118.55 68.475 118.55C67.9742 118.552 67.4944 118.747 67.1403 119.094C66.7862 119.441 66.5865 119.911 66.585 120.401Z" fill="#FCF1EB"/>
<path d="M53.4756 120.401C53.4756 120.767 53.5864 121.125 53.7941 121.43C54.0018 121.734 54.297 121.971 54.6423 122.111C54.9877 122.252 55.3677 122.288 55.7343 122.217C56.1009 122.145 56.4377 121.969 56.702 121.71C56.9663 121.451 57.1463 121.122 57.2193 120.762C57.2922 120.403 57.2548 120.031 57.1117 119.693C56.9687 119.355 56.7264 119.066 56.4156 118.862C56.1048 118.659 55.7394 118.55 55.3656 118.55C54.8648 118.552 54.385 118.747 54.0309 119.094C53.6768 119.441 53.4772 119.911 53.4756 120.401Z" fill="#FCF1EB"/>
<path d="M418.105 130.552H378.981C378.61 130.536 378.248 130.665 377.974 130.91C377.699 131.155 377.536 131.497 377.519 131.861V146.887C377.536 147.25 377.699 147.592 377.974 147.838C378.248 148.083 378.61 148.212 378.981 148.196H383.947L382.141 154.509L392.59 148.196H418.093C418.277 148.204 418.462 148.178 418.635 148.116C418.809 148.055 418.968 147.961 419.105 147.84C419.241 147.718 419.352 147.572 419.43 147.408C419.509 147.245 419.553 147.068 419.562 146.887V131.861C419.545 131.498 419.382 131.157 419.109 130.912C418.836 130.667 418.475 130.537 418.105 130.552Z" fill="#59D887"/>
<path d="M386.645 139.065C386.645 139.431 386.534 139.789 386.327 140.093C386.119 140.397 385.824 140.635 385.479 140.775C385.133 140.915 384.753 140.952 384.387 140.88C384.02 140.809 383.683 140.632 383.419 140.374C383.154 140.115 382.974 139.785 382.902 139.426C382.829 139.067 382.866 138.695 383.009 138.356C383.152 138.018 383.394 137.729 383.705 137.526C384.016 137.322 384.381 137.214 384.755 137.214C385.004 137.213 385.25 137.26 385.479 137.353C385.709 137.446 385.918 137.582 386.093 137.754C386.269 137.926 386.408 138.13 386.503 138.355C386.598 138.58 386.646 138.821 386.645 139.065Z" fill="#FCF1EB"/>
<path d="M399.755 139.065C399.755 139.431 399.644 139.789 399.436 140.093C399.228 140.397 398.933 140.635 398.588 140.775C398.243 140.915 397.863 140.952 397.496 140.88C397.129 140.809 396.792 140.632 396.528 140.374C396.264 140.115 396.084 139.785 396.011 139.426C395.938 139.067 395.975 138.695 396.118 138.356C396.262 138.018 396.504 137.729 396.815 137.526C397.125 137.322 397.491 137.214 397.865 137.214C398.113 137.213 398.359 137.26 398.589 137.353C398.818 137.446 399.027 137.582 399.203 137.754C399.378 137.926 399.518 138.13 399.612 138.355C399.707 138.58 399.755 138.821 399.755 139.065Z" fill="#FCF1EB"/>
<path d="M412.864 139.065C412.864 139.431 412.753 139.789 412.545 140.093C412.338 140.397 412.043 140.635 411.697 140.775C411.352 140.915 410.972 140.952 410.605 140.88C410.239 140.809 409.902 140.632 409.638 140.374C409.373 140.115 409.193 139.785 409.12 139.426C409.047 139.067 409.085 138.695 409.228 138.356C409.371 138.018 409.613 137.729 409.924 137.526C410.235 137.322 410.6 137.214 410.974 137.214C411.222 137.213 411.469 137.26 411.698 137.353C411.928 137.446 412.137 137.582 412.312 137.754C412.488 137.926 412.627 138.13 412.722 138.355C412.816 138.58 412.865 138.821 412.864 139.065Z" fill="#FCF1EB"/>
<path d="M403.163 103.452C405.426 98.7808 403.395 93.1974 398.626 90.9805C393.857 88.7637 388.156 90.753 385.892 95.4237C383.629 100.094 385.66 105.678 390.429 107.895C395.198 110.112 400.899 108.122 403.163 103.452Z" fill="white"/>
<path d="M390.569 98.3471C390.498 98.5956 390.354 98.8178 390.154 98.9857C389.953 99.1535 389.707 99.2594 389.445 99.2899C389.184 99.3203 388.919 99.2741 388.684 99.1569C388.449 99.0397 388.256 98.8569 388.127 98.6317C387.999 98.4065 387.941 98.149 387.962 97.8918C387.983 97.6346 388.082 97.3893 388.246 97.1871C388.409 96.9849 388.63 96.8348 388.881 96.7558C389.132 96.6769 389.401 96.6727 389.654 96.7437C389.822 96.7899 389.979 96.8681 390.116 96.9738C390.252 97.0794 390.367 97.2105 390.452 97.3594C390.537 97.5084 390.591 97.6723 390.611 97.8418C390.631 98.0113 390.617 98.183 390.569 98.3471Z" fill="#FCF1EB"/>
<path d="M395.817 99.8032C395.746 100.051 395.601 100.272 395.4 100.44C395.2 100.607 394.954 100.712 394.693 100.742C394.432 100.772 394.168 100.726 393.933 100.609C393.699 100.492 393.505 100.31 393.377 100.085C393.248 99.8606 393.191 99.6037 393.211 99.3469C393.232 99.0902 393.329 98.8451 393.492 98.6428C393.654 98.4404 393.875 98.2897 394.125 98.2098C394.375 98.1299 394.643 98.1243 394.896 98.1938C395.065 98.2401 395.222 98.3185 395.36 98.4244C395.497 98.5304 395.612 98.6619 395.698 98.8114C395.783 98.9609 395.838 99.1254 395.858 99.2956C395.879 99.4658 395.865 99.6383 395.817 99.8032Z" fill="#FCF1EB"/>
<path d="M401.06 101.254C400.987 101.5 400.842 101.719 400.642 101.884C400.442 102.049 400.197 102.153 399.937 102.182C399.677 102.211 399.415 102.164 399.182 102.047C398.95 101.93 398.758 101.748 398.631 101.524C398.503 101.301 398.447 101.045 398.468 100.79C398.488 100.535 398.586 100.291 398.748 100.09C398.91 99.8891 399.129 99.7395 399.377 99.6602C399.626 99.5809 399.893 99.5754 400.145 99.6445C400.313 99.6907 400.47 99.7691 400.608 99.8751C400.745 99.9812 400.859 100.113 400.945 100.262C401.03 100.412 401.084 100.577 401.103 100.747C401.123 100.917 401.108 101.089 401.06 101.254Z" fill="#FCF1EB"/>
<path d="M386.006 103.676L382.858 108.811L390.617 107.986C390.617 107.986 388.474 104.342 386 103.676" fill="white"/>
<path d="M61.481 243.702C66.238 243.702 70.0943 239.925 70.0943 235.266C70.0943 230.607 66.238 226.831 61.481 226.831C56.724 226.831 52.8677 230.607 52.8677 235.266C52.8677 239.925 56.724 243.702 61.481 243.702Z" fill="white"/>
<path d="M65.0499 234.282C65.1138 234.507 65.2445 234.708 65.4253 234.86C65.6061 235.012 65.829 235.108 66.0657 235.136C66.3023 235.164 66.5421 235.123 66.7547 235.017C66.9672 234.911 67.143 234.746 67.2596 234.542C67.3762 234.339 67.4285 234.106 67.4098 233.873C67.3911 233.64 67.3023 233.418 67.1546 233.235C67.0069 233.052 66.807 232.916 66.5801 232.844C66.3533 232.772 66.1099 232.768 65.8806 232.832C65.5746 232.917 65.3154 233.117 65.1598 233.389C65.0041 233.661 64.9646 233.982 65.0499 234.282Z" fill="#FCF1EB"/>
<path d="M60.3257 235.585C60.3886 235.811 60.5185 236.013 60.699 236.166C60.8794 236.319 61.1022 236.416 61.3391 236.445C61.576 236.473 61.8162 236.432 62.0293 236.327C62.2424 236.222 62.4188 236.057 62.5359 235.853C62.653 235.649 62.7057 235.416 62.6872 235.183C62.6687 234.95 62.5799 234.728 62.4321 234.544C62.2842 234.361 62.084 234.224 61.8568 234.152C61.6297 234.081 61.3859 234.077 61.1564 234.141C60.8517 234.226 60.5936 234.425 60.4381 234.696C60.2827 234.966 60.2423 235.286 60.3257 235.585Z" fill="#FCF1EB"/>
<path d="M55.6002 236.893C55.663 237.118 55.7929 237.32 55.9734 237.473C56.1538 237.626 56.3766 237.723 56.6135 237.752C56.8504 237.781 57.0907 237.74 57.3038 237.635C57.5169 237.529 57.6932 237.364 57.8103 237.161C57.9275 236.957 57.9801 236.724 57.9616 236.491C57.9432 236.258 57.8543 236.035 57.7065 235.852C57.5586 235.668 57.3584 235.532 57.1313 235.46C56.9041 235.388 56.6603 235.384 56.4308 235.448C56.1261 235.534 55.8681 235.733 55.7126 236.003C55.5571 236.274 55.5167 236.593 55.6002 236.893Z" fill="#FCF1EB"/>
<path d="M69.1615 239.073L71.9905 243.701L65.0083 242.958C65.0083 242.958 66.9344 239.675 69.1615 239.073Z" fill="white"/>
<path d="M42.5148 148.904L45.2475 150.207C45.3073 150.231 45.3585 150.271 45.3945 150.324C45.4305 150.376 45.4498 150.438 45.4498 150.502C45.4498 150.565 45.4305 150.627 45.3945 150.679C45.3585 150.732 45.3073 150.772 45.2475 150.796L42.5148 152.07C42.4495 152.101 42.3966 152.153 42.3644 152.217L41.0341 154.899C41.0122 154.96 40.9715 155.013 40.9176 155.051C40.8637 155.088 40.7993 155.108 40.7332 155.108C40.6671 155.108 40.6027 155.088 40.5488 155.051C40.4949 155.013 40.4541 154.96 40.4322 154.899L39.102 152.229C39.0714 152.164 39.018 152.111 38.9515 152.081L36.2189 150.779C36.1591 150.755 36.1079 150.714 36.0719 150.661C36.0358 150.609 36.0166 150.547 36.0166 150.484C36.0166 150.421 36.0358 150.359 36.0719 150.306C36.1079 150.254 36.1591 150.213 36.2189 150.189L38.9515 148.886C39.018 148.856 39.0714 148.804 39.102 148.739L40.4322 146.068C40.4541 146.007 40.4949 145.955 40.5488 145.917C40.6027 145.88 40.6671 145.86 40.7332 145.86C40.7993 145.86 40.8637 145.88 40.9176 145.917C40.9715 145.955 41.0122 146.007 41.0341 146.068L42.3644 148.739C42.3932 148.809 42.4465 148.868 42.5148 148.904Z" fill="white"/>
<path d="M405.869 168.575L408.602 169.878C408.662 169.902 408.713 169.943 408.749 169.995C408.785 170.048 408.804 170.11 408.804 170.173C408.804 170.236 408.785 170.298 408.749 170.35C408.713 170.403 408.662 170.444 408.602 170.468L405.869 171.77C405.806 171.801 405.753 171.851 405.719 171.912L404.389 174.588C404.367 174.649 404.326 174.702 404.272 174.74C404.218 174.777 404.154 174.797 404.088 174.797C404.022 174.797 403.957 174.777 403.903 174.74C403.849 174.702 403.809 174.649 403.787 174.588L402.457 171.912C402.422 171.851 402.37 171.801 402.306 171.77L399.573 170.468C399.514 170.444 399.462 170.403 399.426 170.35C399.39 170.298 399.371 170.236 399.371 170.173C399.371 170.11 399.39 170.048 399.426 169.995C399.462 169.943 399.514 169.902 399.573 169.878L402.306 168.575C402.371 168.544 402.424 168.492 402.457 168.428L403.787 165.752C403.809 165.69 403.849 165.638 403.903 165.6C403.957 165.563 404.022 165.543 404.088 165.543C404.154 165.543 404.218 165.563 404.272 165.6C404.326 165.638 404.367 165.69 404.389 165.752L405.719 168.428C405.751 168.492 405.804 168.544 405.869 168.575Z" fill="white"/>
<path d="M115.574 67.3984L118.301 68.7012C118.363 68.7227 118.417 68.7626 118.456 68.8154C118.494 68.8682 118.514 68.9313 118.514 68.996C118.514 69.0607 118.494 69.1238 118.456 69.1766C118.417 69.2294 118.363 69.2693 118.301 69.2907L115.574 70.5936C115.509 70.6251 115.456 70.6769 115.424 70.7409L114.094 73.4173C114.069 73.4759 114.028 73.526 113.974 73.5613C113.921 73.5965 113.857 73.6154 113.793 73.6154C113.728 73.6154 113.665 73.5965 113.612 73.5613C113.558 73.526 113.516 73.4759 113.492 73.4173L112.18 70.7173C112.148 70.655 112.098 70.6035 112.035 70.57L109.303 69.2672C109.24 69.2457 109.186 69.2058 109.148 69.153C109.11 69.1002 109.089 69.0371 109.089 68.9724C109.089 68.9077 109.11 68.8446 109.148 68.7918C109.186 68.739 109.24 68.6991 109.303 68.6777L112.035 67.3749C112.099 67.343 112.15 67.2911 112.18 67.2275L113.51 64.5511C113.534 64.4926 113.576 64.4424 113.63 64.4072C113.683 64.3719 113.746 64.353 113.811 64.353C113.875 64.353 113.939 64.3719 113.992 64.4072C114.046 64.4424 114.087 64.4926 114.112 64.5511L115.442 67.2275C115.463 67.2985 115.51 67.3593 115.574 67.3984Z" fill="white"/>
<path d="M191.56 44.8329L194.293 46.1298C194.353 46.1537 194.404 46.1945 194.44 46.247C194.476 46.2995 194.495 46.3613 194.495 46.4245C194.495 46.4878 194.476 46.5496 194.44 46.6021C194.404 46.6546 194.353 46.6954 194.293 46.7193L191.56 48.0221C191.495 48.0537 191.442 48.1055 191.41 48.1695L190.085 50.8458C190.061 50.9044 190.019 50.9545 189.966 50.9898C189.912 51.0251 189.849 51.0439 189.784 51.0439C189.72 51.0439 189.657 51.0251 189.603 50.9898C189.55 50.9545 189.508 50.9044 189.484 50.8458L188.153 48.1695C188.123 48.1043 188.069 48.0521 188.003 48.0221L185.27 46.7193C185.21 46.6954 185.159 46.6546 185.123 46.6021C185.087 46.5496 185.068 46.4878 185.068 46.4245C185.068 46.3613 185.087 46.2995 185.123 46.247C185.159 46.1945 185.21 46.1537 185.27 46.1298L188.003 44.8329C188.068 44.8013 188.121 44.7495 188.153 44.6855L189.484 42.0091C189.508 41.9506 189.55 41.9004 189.603 41.8652C189.657 41.8299 189.72 41.811 189.784 41.811C189.849 41.811 189.912 41.8299 189.966 41.8652C190.019 41.9004 190.061 41.9506 190.085 42.0091L191.41 44.6855C191.444 44.7483 191.496 44.7997 191.56 44.8329Z" fill="white"/>
<path d="M293.257 47.6088C293.83 48.8939 294.089 50.2916 294.016 51.6917C293.942 53.0918 293.537 54.456 292.833 55.6768C292.129 56.8975 291.145 57.9413 289.959 58.7259C288.773 59.5104 287.417 60.0143 285.997 60.1977C284.578 60.3812 283.135 60.2391 281.781 59.7828C280.428 59.3265 279.201 58.5684 278.198 57.5683C277.195 56.5683 276.443 55.3536 276.001 54.0201C275.559 52.6866 275.439 51.2708 275.652 49.8843L284.782 51.2284L279.714 43.6709C280.152 43.3849 280.616 43.1383 281.099 42.934C282.211 42.4587 283.407 42.2026 284.62 42.1803C285.833 42.158 287.038 42.37 288.167 42.8041C289.296 43.2382 290.327 43.886 291.2 44.7104C292.074 45.5348 292.773 46.5197 293.257 47.6088Z" fill="white"/>
<path d="M274.822 39.762L275.978 41.6012L280.299 48.4513L271.794 47.7262L269.26 47.5022C268.821 41.7073 274.822 39.762 274.822 39.762Z" fill="white"/>
<path d="M385.837 299.135H62.4496C62.1987 299.135 61.9503 299.089 61.7186 299C61.4869 298.912 61.2764 298.782 61.0991 298.618C60.9218 298.454 60.7812 298.26 60.6854 298.046C60.5895 297.832 60.5403 297.602 60.5405 297.371C60.5403 297.139 60.5895 296.91 60.6854 296.696C60.7812 296.482 60.9218 296.288 61.0991 296.124C61.2764 295.96 61.4869 295.83 61.7186 295.741C61.9503 295.653 62.1987 295.607 62.4496 295.607H385.837C386.344 295.607 386.83 295.793 387.189 296.124C387.547 296.455 387.748 296.903 387.748 297.371C387.748 297.839 387.547 298.287 387.189 298.618C386.83 298.949 386.344 299.135 385.837 299.135Z" fill="#006F16"/>
</svg>
