<svg width="450" height="310" viewBox="0 0 450 320" fill="none" xmlns="http://www.w3.org/2000/svg">
<path d="M61.6861 316.636C30.0733 280.601 -13.1322 243.396 3.8102 187.194C14.9519 150.227 42.2839 139.922 64.9851 117.127C76.193 105.878 69.1441 89.5033 68.9352 73.2523C68.4599 31.6323 112.828 -0.663949 153.617 0.0103689C197.799 0.739362 216.925 47.2418 253.987 49.735C268.541 49.9682 281.573 41.0271 294.449 33.9249C332.602 12.8789 393.141 26.2997 396.2 77.1943C396.99 104.681 367.108 148.9 397.048 163.356C420.909 174.878 445.015 179.12 449.315 220.328C454.943 274.265 425.184 303.86 386.415 317.747L61.6861 316.636Z" fill="#BEEECB"/>
<path d="M438.547 180.283C437.053 180.283 435.594 179.843 434.352 179.019C433.11 178.196 432.143 177.025 431.571 175.655C431 174.285 430.85 172.778 431.142 171.323C431.433 169.869 432.152 168.533 433.208 167.485C434.264 166.436 435.609 165.722 437.074 165.433C438.538 165.144 440.056 165.292 441.436 165.86C442.815 166.427 443.995 167.388 444.824 168.621C445.654 169.854 446.097 171.303 446.097 172.786C446.095 174.774 445.299 176.679 443.883 178.085C442.468 179.49 440.548 180.281 438.547 180.283ZM438.547 167.353C437.464 167.353 436.406 167.671 435.506 168.268C434.606 168.864 433.905 169.713 433.49 170.706C433.076 171.698 432.967 172.791 433.178 173.845C433.389 174.899 433.91 175.867 434.675 176.627C435.44 177.387 436.415 177.905 437.477 178.114C438.538 178.324 439.638 178.217 440.638 177.806C441.638 177.394 442.493 176.698 443.094 175.805C443.695 174.911 444.016 173.861 444.016 172.786C444.014 171.346 443.438 169.965 442.412 168.947C441.387 167.929 439.997 167.355 438.547 167.353Z" fill="#E3EAFF"/>
<path d="M41.5628 103.448C41.5628 104.872 41.1375 106.264 40.3406 107.448C39.5438 108.633 38.4112 109.556 37.0861 110.101C35.7609 110.646 34.3028 110.789 32.896 110.511C31.4892 110.233 30.1969 109.547 29.1825 108.54C28.1681 107.534 27.4773 106.25 27.1972 104.854C26.9172 103.457 27.0605 102.009 27.6092 100.693C28.1578 99.377 29.0871 98.2522 30.2795 97.4607C31.472 96.6691 32.874 96.2465 34.3084 96.2461C35.2609 96.2459 36.2042 96.432 37.0844 96.7938C37.9645 97.1556 38.7642 97.686 39.4379 98.3547C40.1115 99.0235 40.6459 99.8174 41.0105 100.691C41.3751 101.565 41.5628 102.502 41.5628 103.448Z" fill="#E3EAFF"/>
<path d="M254.91 39.3764C254.91 40.4474 254.591 41.4945 253.992 42.3852C253.393 43.2759 252.541 43.9702 251.545 44.3803C250.548 44.7904 249.452 44.8979 248.394 44.6892C247.336 44.4804 246.364 43.9649 245.601 43.2077C244.838 42.4505 244.319 41.4856 244.108 40.4352C243.898 39.3848 244.006 38.296 244.418 37.3064C244.831 36.3169 245.53 35.4711 246.427 34.8761C247.324 34.281 248.378 33.9634 249.457 33.9634C250.903 33.9634 252.289 34.5336 253.312 35.5487C254.335 36.5638 254.909 37.9406 254.91 39.3764Z" fill="#E3EAFF"/>
<path d="M427.383 166.135C427.384 167.049 427.111 167.943 426.6 168.703C426.088 169.464 425.362 170.056 424.511 170.406C423.661 170.756 422.725 170.848 421.822 170.67C420.919 170.492 420.089 170.052 419.438 169.406C418.787 168.759 418.344 167.936 418.164 167.039C417.984 166.143 418.076 165.213 418.428 164.369C418.781 163.524 419.377 162.802 420.143 162.294C420.908 161.786 421.808 161.515 422.729 161.515C423.963 161.515 425.146 162.002 426.019 162.868C426.892 163.735 427.383 164.91 427.383 166.135Z" fill="#E3EAFF"/>
<path d="M324.888 302.23H315.746V302.492H324.888V302.23Z" fill="#EBEBEB"/>
<path d="M413.848 289.688H393.659V289.95H413.848V289.688Z" fill="#EBEBEB"/>
<path d="M77.063 291.444H31.626V291.706H77.063V291.444Z" fill="#EBEBEB"/>
<path d="M93.0949 291.444H86.4355V291.706H93.0949V291.444Z" fill="#EBEBEB"/>
<path d="M213.3 295.854H114.746V296.116H213.3V295.854Z" fill="#EBEBEB"/>
<path d="M133.64 90.3389H126.56V282.821H133.64V90.3389Z" fill="#F5F5F5"/>
<path d="M161.634 114.786H154.554V282.831H161.634V114.786Z" fill="#F5F5F5"/>
<path d="M189.366 139.222H182.286V282.831H189.366V139.222Z" fill="#F5F5F5"/>
<path d="M217.107 122.928H210.027V282.831H217.107V122.928Z" fill="#F5F5F5"/>
<path d="M244.85 114.786H237.77V282.831H244.85V114.786Z" fill="#F5F5F5"/>
<path d="M272.581 98.4915H265.501V282.831H272.581V98.4915Z" fill="#F5F5F5"/>
<path d="M300.323 106.634H293.243V282.821H300.323V106.634Z" fill="#F5F5F5"/>
<path d="M328.065 98.4915H320.985V282.831H328.065V98.4915Z" fill="#F5F5F5"/>
<path d="M355.796 82.197H348.716V282.821H355.796V82.197Z" fill="#F5F5F5"/>
<path d="M383.539 65.9023H376.458V282.821H383.539V65.9023Z" fill="#F5F5F5"/>
<path d="M411.27 49.6184H404.19V282.831H411.27V49.6184Z" fill="#F5F5F5"/>
<path d="M185.79 127.778C185.395 127.762 185.021 127.602 184.738 127.328L125.466 69.916C125.167 69.625 124.995 69.2275 124.99 68.8109C124.985 68.3944 125.147 67.993 125.44 67.695C125.733 67.397 126.133 67.2269 126.553 67.222C126.972 67.2171 127.376 67.3778 127.676 67.6689L185.99 124.161L268.121 64.5856C268.439 64.3603 268.829 64.2592 269.218 64.3017C269.606 64.3441 269.964 64.527 270.225 64.8155L297.115 95.0633L408.42 31.7039C408.6 31.6017 408.799 31.5357 409.005 31.5098C409.211 31.4838 409.42 31.4985 409.62 31.5528C409.82 31.6072 410.008 31.7002 410.172 31.8265C410.336 31.9529 410.473 32.1101 410.576 32.2892C410.679 32.4684 410.746 32.6659 410.772 32.8705C410.798 33.0751 410.783 33.2828 410.728 33.4818C410.674 33.6807 410.58 33.867 410.453 34.0301C410.326 34.1931 410.167 34.3296 409.987 34.4319L297.568 98.4393C297.252 98.6165 296.884 98.6811 296.526 98.6221C296.169 98.5632 295.842 98.3843 295.6 98.1152L268.816 68.0138L186.758 127.475C186.477 127.679 186.137 127.785 185.79 127.778Z" fill="#F0F0F0"/>
<path d="M179.108 281.63L127.38 78.957L129.968 68.8291H127.275V10.936H120.332V68.8291H117.638L120.226 78.957L68.4878 281.63H75.6521L120.332 106.581V282.696H127.275V106.581L171.955 281.63H179.108Z" fill="#006F16"/>
<path d="M162.78 76.9433C167.861 55.5554 154.528 34.1248 133 29.0768C111.472 24.0287 89.9012 37.2749 84.8202 58.6628C79.7391 80.0508 93.0719 101.481 114.6 106.529C136.128 111.577 157.698 98.3313 162.78 76.9433Z" fill="#91E3AA"/>
<path d="M123.804 101.773C142.687 101.773 157.995 86.565 157.995 67.8046C157.995 49.0442 142.687 33.8359 123.804 33.8359C104.921 33.8359 89.6128 49.0442 89.6128 67.8046C89.6128 86.565 104.921 101.773 123.804 101.773Z" fill="#F5F5F5"/>
<path d="M123.804 94.3943C138.585 94.3943 150.568 82.4897 150.568 67.8047C150.568 53.1197 138.585 41.2151 123.804 41.2151C109.023 41.2151 97.0405 53.1197 97.0405 67.8047C97.0405 82.4897 109.023 94.3943 123.804 94.3943Z" fill="#91E3AA"/>
<path d="M132.204 87.9441C143.396 83.3383 148.711 70.5905 144.075 59.4712C139.439 48.3518 126.608 43.0715 115.415 47.6773C104.223 52.2831 98.9085 65.0309 103.544 76.1502C108.18 87.2695 121.012 92.5498 132.204 87.9441Z" fill="#F5F5F5"/>
<path d="M138.617 71.2771C140.548 63.1478 135.48 55.0022 127.298 53.0835C119.115 51.1648 110.916 56.1995 108.985 64.3289C107.054 72.4582 112.122 80.6037 120.304 82.5224C128.487 84.4411 136.685 79.4064 138.617 71.2771Z" fill="#91E3AA"/>
<path d="M127.992 77.8436C133.57 75.5485 136.218 69.196 133.908 63.655C131.598 58.114 125.204 55.4827 119.626 57.7778C114.049 60.073 111.401 66.4255 113.711 71.9665C116.021 77.5075 122.415 80.1388 127.992 77.8436Z" fill="#F5F5F5"/>
<path d="M128.759 67.8151C128.759 68.7913 128.467 69.7455 127.921 70.557C127.375 71.3685 126.599 72.0008 125.691 72.3739C124.783 72.747 123.784 72.8441 122.821 72.6529C121.857 72.4617 120.972 71.9908 120.278 71.2998C119.584 70.6088 119.112 69.7288 118.922 68.7711C118.731 67.8135 118.831 66.8212 119.209 65.92C119.586 65.0187 120.224 64.249 121.042 63.7082C121.86 63.1673 122.821 62.8798 123.804 62.8818C124.455 62.8818 125.101 63.0095 125.702 63.2576C126.304 63.5056 126.851 63.8692 127.311 64.3274C127.771 64.7856 128.136 65.3296 128.385 65.928C128.633 66.5265 128.76 67.1678 128.759 67.8151Z" fill="#91E3AA"/>
<path d="M72.4011 34.9961L73.4847 42.187L65.9521 44.7059L73.4847 48.6358L80.9961 46.0124L79.6811 38.9156L72.4011 34.9961Z" fill="#00A137"/>
<path d="M123.804 67.8046L69.9087 40.3684" stroke="#E0E0E0" stroke-width="2" stroke-linecap="round" stroke-linejoin="round"/>
<path d="M122.014 118.644L129.231 114.546C129.231 114.546 132.008 110.292 132.839 110.094C133.67 109.895 142.823 110.094 142.823 110.094C142.823 110.094 141.445 115.989 141.297 117.149C141.15 118.309 132.418 117.149 132.418 117.149L125.349 121.33L122.014 118.644Z" fill="#EBB376"/>
<path d="M54.8008 309.328L47.2472 307.833C47.1123 307.832 46.9813 307.878 46.876 307.961C46.7707 308.045 46.6975 308.162 46.6686 308.293L44.6382 315.797C44.5954 316.054 44.6504 316.317 44.7924 316.535C44.9344 316.754 45.1532 316.912 45.4062 316.978H45.6271C48.2992 316.978 50.2455 316.769 53.5909 316.769C55.695 316.769 61.8809 316.989 64.7319 316.989C67.5829 316.989 67.9616 314.188 66.8359 313.937C61.5758 312.798 57.6623 311.23 55.9895 309.756C55.6656 309.463 55.2384 309.309 54.8008 309.328Z" fill="#263238"/>
<path d="M147.241 309.077H138.993C138.858 309.074 138.726 309.119 138.62 309.203C138.515 309.287 138.442 309.405 138.415 309.537L137.068 315.599C137.029 315.855 137.087 316.117 137.23 316.333C137.374 316.549 137.594 316.705 137.847 316.769H138.068C140.74 316.717 142.676 316.56 146.032 316.56C148.136 316.56 154.322 316.769 157.173 316.769C160.024 316.769 160.392 313.979 159.224 313.717C153.964 312.589 150.05 311.01 148.378 309.537C148.229 309.388 148.052 309.271 147.857 309.192C147.661 309.113 147.452 309.074 147.241 309.077Z" fill="#263238"/>
<path d="M69.3602 171.018L104.287 162.217C112.209 179.4 141.277 249.95 148.325 308.648L136.501 311.627C136.501 311.627 115.565 225.065 98.0069 199.792C98.0069 199.792 97.0706 238.213 95.1664 243.805C93.5989 248.404 57.6511 309.934 57.6511 309.934L45.9736 308.627C45.9736 308.627 75.3252 245.832 77.0505 238.004C78.2709 232.674 72.9266 193.521 72.9266 193.521C71.9903 190.03 70.5805 175.575 70.5805 175.575C70.5805 175.575 69.5285 171.739 69.3602 171.018Z" fill="#6B6B6B"/>
<path opacity="0.2" d="M98.0173 199.813C100.981 204.267 103.568 208.959 105.75 213.839C103.33 200.314 95.8291 187.218 95.8291 187.218L98.0173 199.813Z" fill="black"/>
<path opacity="0.3" d="M69.3602 171.018L104.287 162.217C112.209 179.4 141.277 249.95 148.325 308.648L136.501 311.627C136.501 311.627 115.565 225.065 98.0069 199.792C98.0069 199.792 97.0706 238.213 95.1664 243.805C93.5989 248.404 57.6511 309.934 57.6511 309.934L45.9736 308.627C45.9736 308.627 75.3252 245.832 77.0505 238.004C78.2709 232.674 72.9266 193.521 72.9266 193.521C71.9903 190.03 70.5805 175.575 70.5805 175.575C70.5805 175.575 69.5285 171.739 69.3602 171.018Z" fill="#6B6B6B"/>
<path d="M130.083 119.239C130.083 119.239 114.155 129.921 109.957 130.485C108.285 130.715 104.834 130.151 101.268 129.44C95.8602 128.29 90.2213 126.681 90.2213 126.681L89.5165 121.382L88.7695 115.717C90.032 115.299 106.507 121.988 108.968 123.033C111.43 124.078 127.347 114.672 127.347 114.672L130.083 119.239Z" fill="#939393"/>
<path d="M80.8276 168.572L81.8586 172.586L70.5808 175.575L69.5288 171.415L80.8276 168.572Z" fill="black"/>
<path d="M98.6179 164.088L99.5963 167.893L83.1111 172.262L82.0801 168.258L98.6179 164.088Z" fill="black"/>
<path d="M106.087 166.179L100.837 167.569L99.8691 163.775L104.687 162.562L106.087 166.179Z" fill="black"/>
<path d="M89.6483 170.521L96.1543 168.881L94.9647 164.221L88.4587 165.86L89.6483 170.521Z" fill="white"/>
<path d="M104.677 162.552L69.5178 171.415C67.803 166.806 66.0566 162.165 64.3523 157.639C63.1004 154.326 61.8695 151.076 60.6702 147.93C60.3686 147.121 60.0635 146.327 59.7549 145.547L58.7029 142.766C57.9244 140.732 57.174 138.77 56.4516 136.882L54.5159 131.855L53.6006 129.472L51.8647 124.977L88.7804 115.675C100.952 136.777 104.677 162.552 104.677 162.552Z" fill="#939393"/>
<path d="M65.2672 124.078C69.0651 125.887 76.0716 122.699 76.0716 122.699C76.0716 122.699 78.3965 120.149 77.0079 119.02C74.1884 119.386 74.3673 118.466 73.3468 117.034C72.7633 116.13 72.363 115.122 72.1685 114.066C72.0423 113.482 71.9475 112.893 71.8845 112.299L60.8066 108.348C63.321 112.383 67.224 120.023 65.2672 124.078Z" fill="#EBB376"/>
<path opacity="0.2" d="M64.1738 111.954C66.1727 117.232 71.0751 117.389 73.3475 117.034C72.764 116.13 72.3637 115.122 72.1692 114.065L64.1738 111.954Z" fill="black"/>
<path d="M78.6074 91.9285C78.6074 91.9285 81.5004 100.604 77.3239 104.837C73.1473 109.07 70.3174 92.4824 70.3174 92.4824L78.6074 91.9285Z" fill="#263238"/>
<path d="M64.7203 114.285C65.9701 115.581 67.6129 116.433 69.3971 116.713C71.1814 116.992 73.0086 116.683 74.5989 115.832C76.6839 114.761 78.2792 112.941 79.0595 110.742C79.1647 110.449 79.2594 110.136 79.3435 109.822C80.7532 103.979 79.8695 94.3323 73.4627 91.7403C72.0506 91.1619 70.513 90.952 68.9963 91.1307C67.4795 91.3094 66.034 91.8706 64.7972 92.761C63.5603 93.6514 62.5734 94.8414 61.9302 96.2178C61.287 97.5941 61.0089 99.1111 61.1224 100.624C61.5011 107.136 61.417 110.961 64.7203 114.285Z" fill="#EBB376"/>
<path d="M71.043 102.474C71.043 102.997 71.3165 103.425 71.6742 103.425C72.0319 103.425 72.2949 102.997 72.3054 102.474C72.3159 101.952 72.0214 101.513 71.6742 101.513C71.327 101.513 71.043 101.941 71.043 102.474Z" fill="#263238"/>
<path d="M77.0605 102.474C77.0605 103.007 77.3446 103.436 77.6918 103.436C78.0389 103.436 78.3125 102.997 78.323 102.474C78.3335 101.952 78.0284 101.523 77.6918 101.523C77.3551 101.523 77.0605 101.973 77.0605 102.474Z" fill="#263238"/>
<path d="M79.2605 100.029C79.21 100.054 79.1541 100.068 79.0974 100.068C79.0407 100.068 78.9848 100.054 78.9344 100.029C78.6232 99.7911 78.2602 99.6294 77.8746 99.5568C77.489 99.4842 77.0917 99.5026 76.7146 99.6106C76.6378 99.6398 76.5526 99.6374 76.4777 99.6041C76.4027 99.5707 76.3441 99.5092 76.3148 99.433C76.2855 99.3567 76.2879 99.2721 76.3214 99.1976C76.355 99.1231 76.4169 99.0649 76.4936 99.0358C76.9654 98.8877 77.4662 98.8551 77.9535 98.9406C78.4407 99.0261 78.8999 99.2273 79.292 99.527C79.3265 99.5492 79.3561 99.578 79.3791 99.6117C79.4021 99.6455 79.418 99.6835 79.4258 99.7235C79.4337 99.7635 79.4333 99.8047 79.4248 99.8446C79.4163 99.8844 79.3998 99.9222 79.3762 99.9555C79.3409 99.9847 79.302 100.009 79.2605 100.029Z" fill="#263238"/>
<path d="M69.8542 100.102C69.7941 100.094 69.7365 100.072 69.6859 100.039C69.6281 99.9805 69.5957 99.9017 69.5957 99.8196C69.5957 99.7375 69.6281 99.6587 69.6859 99.6001C70.0536 99.2657 70.4972 99.0245 70.979 98.8971C71.4607 98.7697 71.9664 98.7599 72.4527 98.8685C72.5295 98.8927 72.5941 98.9451 72.6332 99.0151C72.6723 99.085 72.683 99.1672 72.6632 99.2448C72.6387 99.3238 72.5848 99.3905 72.5124 99.4313C72.4401 99.4721 72.3547 99.4839 72.2739 99.4643C71.8902 99.3876 71.4936 99.4026 71.1168 99.508C70.7401 99.6134 70.3939 99.8062 70.1067 100.07C70.0691 100.093 70.0273 100.107 69.9838 100.113C69.9403 100.118 69.8962 100.114 69.8542 100.102Z" fill="#263238"/>
<path d="M65.9193 92.5554L66.5505 93.7574C64.4465 94.5622 64.9725 97.0288 65.4985 98.1263C66.5505 100.488 65.3407 104.282 63.5628 105.861C63.5628 105.861 63.447 104.815 62.5739 105.108C61.7007 105.401 62.2057 110.815 64.0572 113.323C64.0572 113.323 61.3325 111.097 59.5861 105.474C57.9765 100.248 57.5978 95.8896 58.5972 93.7992L65.9193 92.5554Z" fill="#263238"/>
<path d="M58.2607 105.976C58.6186 106.706 59.1178 107.358 59.7297 107.896C60.3417 108.434 61.0544 108.847 61.827 109.111C63.9311 109.801 64.9831 107.993 64.5623 105.976C64.1205 104.209 62.5319 101.649 60.3542 101.847C59.895 101.898 59.4559 102.062 59.0765 102.324C58.6972 102.586 58.3896 102.938 58.1818 103.348C57.9739 103.758 57.8722 104.213 57.886 104.672C57.8998 105.131 58.0286 105.579 58.2607 105.976Z" fill="#EBB376"/>
<path d="M65.8565 116.898C68.9495 119.051 74.9776 119.751 77.9338 115.853C80.89 111.954 79.9431 105.694 79.9431 105.694C79.6036 107.092 78.9569 108.398 78.0495 109.519C76.3768 107.512 73.5363 108.651 73.5363 108.651C72.9377 107.877 72.0789 107.343 71.1166 107.146C69.7385 107.01 65.8565 107.24 65.8565 107.24C64.6151 106.457 64.5625 102.966 64.5625 102.966L63.805 103.593C63.805 103.593 62.753 114.734 65.8565 116.898Z" fill="#263238"/>
<path d="M74.1263 94.7713C74.1263 94.7713 81.4905 91.2176 80.6173 87.664C79.7441 84.1103 77.598 88.1657 77.598 88.1657C77.598 88.1657 78.5869 85.4691 76.6511 85.0301C74.7154 84.5911 75.3256 86.3157 74.2736 87.3504C73.2215 88.3851 63.0169 86.8801 59.724 88.9077C56.4312 90.9354 58.9455 97.9486 58.9455 97.9486C60.8903 96.0089 63.3624 94.6751 66.0589 94.1107C68.7555 93.5463 71.5591 93.7759 74.1263 94.7713Z" fill="#263238"/>
<path opacity="0.2" d="M65.8565 116.898C68.9495 119.051 74.9776 119.751 77.9338 115.853C80.89 111.954 79.9431 105.694 79.9431 105.694C79.6036 107.092 78.9569 108.398 78.0495 109.519C76.3768 107.512 73.5363 108.651 73.5363 108.651C72.9377 107.877 72.0789 107.343 71.1166 107.146C69.7385 107.01 65.8565 107.24 65.8565 107.24C64.6151 106.457 64.5625 102.966 64.5625 102.966L63.805 103.593C63.805 103.593 62.753 114.734 65.8565 116.898Z" fill="white"/>
<path d="M73.8521 110.637C73.2859 111.39 72.7761 112.183 72.3266 113.01L71.8532 112.832C69.7492 112.069 68.9917 111.024 68.8234 110.083C68.7553 109.628 68.7949 109.162 68.9391 108.725C69.0158 108.471 69.1254 108.229 69.2652 108.003C70.3718 109.053 71.692 109.855 73.1367 110.355C73.568 110.543 73.8521 110.637 73.8521 110.637Z" fill="#263238"/>
<path d="M73.137 110.366L72.6636 111.055C70.6648 110.334 69.3497 109.561 68.9395 108.735C69.0161 108.482 69.1257 108.239 69.2656 108.014C70.3722 109.064 71.6923 109.865 73.137 110.366Z" fill="white"/>
<path d="M71.8536 112.832C69.7495 112.069 68.9921 111.024 68.8237 110.083C69.6272 110.394 70.3709 110.839 71.0225 111.4C71.4441 111.779 71.7349 112.28 71.8536 112.832Z" fill="#DE5753"/>
<path d="M77.4608 122.709L76.8401 128.123L88.202 152.173L87.0764 155.361L83.3627 153.647L75.2621 129.127L69.3076 125.124L73.642 122.761L77.4608 122.709Z" fill="#575757"/>
<path d="M65.5204 119.009L73.0424 122.093L73.3475 117.034L78.8917 118.393L79.3651 126.096L74.0313 123.932L71.801 128.865L62.3223 122.573L65.5204 119.009Z" fill="#263238"/>
<path opacity="0.2" d="M65.5204 119.009L73.0424 122.093L73.3475 117.034L78.8917 118.393L79.3651 126.096L74.0313 123.932L71.801 128.865L62.3223 122.573L65.5204 119.009Z" fill="white"/>
<path opacity="0.2" d="M58.6922 142.766C57.9137 140.732 57.1632 138.77 56.4408 136.882L54.5051 131.855L53.5898 129.472C54.6419 128.959 57.3245 129.263 58.0715 130.517C60.8068 135.262 58.6922 142.766 58.6922 142.766Z" fill="black"/>
<path opacity="0.2" d="M71.874 148.076C71.4247 150.129 70.515 152.056 69.2126 153.711C67.9103 155.367 66.2489 156.71 64.352 157.639C63.1001 154.326 61.8692 151.076 60.6699 147.93C60.3683 147.121 60.0633 146.327 59.7547 145.547L58.7026 142.766L70.8851 144.303L71.874 148.076Z" fill="black"/>
<path opacity="0.2" d="M101.268 129.399C95.8603 128.249 90.2215 126.639 90.2215 126.639L89.5166 121.34C89.5166 121.34 99.4583 122.396 101.268 129.399Z" fill="black"/>
<path d="M51.8548 252.888C51.525 252.898 51.2 252.806 50.9256 252.624C50.6512 252.442 50.4412 252.179 50.3251 251.872C50.2089 251.565 50.1926 251.23 50.2783 250.914C50.3639 250.597 50.5474 250.315 50.8028 250.107C68.3611 235.788 68.0244 213.348 67.6983 191.639C67.4458 175.272 67.2144 159.803 74.9678 149.288C85.8458 134.509 129.6 111.066 136.848 110.397C142.035 109.885 300.228 66.2063 383.159 43.1808C383.562 43.0685 383.994 43.1199 384.359 43.3238C384.724 43.5277 384.992 43.8672 385.105 44.2678C385.218 44.6683 385.167 45.0971 384.961 45.4597C384.756 45.8223 384.414 46.0891 384.011 46.2014C374.196 48.9293 143.644 112.926 137.143 113.522C130.904 114.097 87.5921 137.446 77.5137 151.149C70.3915 160.817 70.6124 175.773 70.8544 191.598C71.17 213.003 71.5382 237.272 52.8016 252.543C52.5332 252.759 52.2002 252.88 51.8548 252.888Z" fill="#263238"/>
<g opacity="0.4">
<path d="M384.063 46.1908L362.433 52.211C302.941 68.7041 142.559 113.041 137.194 113.532C130.956 114.107 87.6436 137.457 77.5652 151.159C70.443 160.827 70.6639 175.784 70.9059 191.608C71.2215 213.013 71.5897 237.283 52.8531 252.553C52.5584 252.796 52.1838 252.922 51.8011 252.908C51.4713 252.919 51.1463 252.827 50.8719 252.645C50.5975 252.463 50.3875 252.2 50.2713 251.893C50.1552 251.586 50.1389 251.251 50.2245 250.934C50.3102 250.618 50.4937 250.336 50.749 250.128C68.3074 235.809 67.9707 213.369 67.6446 191.66C67.3921 175.293 67.1607 159.824 74.9141 149.309C85.7921 134.53 129.546 111.087 136.794 110.418C141.676 109.937 281.827 71.2857 367.483 47.539L383.105 43.2015C383.509 43.0893 383.94 43.1407 384.305 43.3445C384.67 43.5484 384.939 43.888 385.052 44.2885C385.165 44.6891 385.113 45.1178 384.908 45.4804C384.703 45.8431 384.361 46.1098 383.958 46.2221L384.063 46.1908Z" fill="#006F16"/>
</g>
<path opacity="0.2" d="M384.063 46.191L362.433 52.2112C363.949 50.4442 365.681 48.8713 367.588 47.5288L383.211 43.1913C383.614 43.079 384.045 43.1304 384.41 43.3343C384.775 43.5382 385.044 43.8777 385.157 44.2783C385.27 44.6788 385.218 45.1076 385.013 45.4702C384.808 45.8328 384.466 46.0996 384.063 46.2119V46.191Z" fill="black"/>
<path d="M62.606 145.024L70.8749 144.303C70.8749 144.303 75.1987 141.585 76.0298 141.763C76.8609 141.941 85.0983 145.944 85.0983 145.944C85.0983 145.944 81.3636 150.72 80.7429 151.713C80.1222 152.706 72.6844 148.024 72.6844 148.024L64.4891 148.891L62.606 145.024Z" fill="#EBB376"/>
<path d="M51.8545 124.977C48.0988 127.643 38.3149 149.372 39.3564 152.727C40.3979 156.082 70.8436 149.466 70.8436 149.466L69.497 143.812H53.117L57.0094 137.708C57.0094 137.708 59.4081 135.387 57.9352 129.994C56.8727 126.106 51.8545 124.977 51.8545 124.977Z" fill="#939393"/>
<path d="M369.065 127.162L362.826 124.225C362.826 124.225 359.67 118.226 358.745 117.264C357.819 116.303 353.348 120.034 353.348 120.682C353.348 121.33 356.588 127.392 357.43 127.758C358.682 127.941 359.954 127.941 361.206 127.758L367.14 130.611L369.065 127.162Z" fill="#9F5B53"/>
<path d="M383.626 89.9848L384.878 85.5427C384.878 85.5427 386.856 79.7524 386.645 78.4145C386.258 76.8311 385.759 75.2768 385.151 73.7634C385.151 73.7634 379.681 80.3795 379.681 81.2052C379.681 82.0309 381.848 85.0306 381.848 85.0306L380.796 89.9848H383.626Z" fill="#9F5B53"/>
<path d="M388.433 123.075C388.433 123.075 383.72 117.254 382.331 111.84C380.942 106.426 385.14 88.8454 385.14 88.8454L380.711 87.6748C380.711 87.6748 375.451 105.663 375.272 112.226C375.093 118.79 384.919 138.053 384.919 138.053L388.433 123.075Z" fill="#575757"/>
<path opacity="0.2" d="M385.582 135.158L384.908 138.011C384.908 138.011 381.521 131.374 378.754 124.56C381.633 126.614 383.804 129.501 384.971 132.827C385.238 133.586 385.443 134.366 385.582 135.158Z" fill="black"/>
<path d="M413.388 135.827C413.328 137.041 413.181 138.25 412.946 139.443C412.462 142.056 411.641 145.139 410.705 148.536C410.2 150.324 409.653 152.236 409.169 154.254C406.823 163.315 405.55 166.921 403.814 178.491L370.518 170.642C372.317 160.738 375.061 151.026 378.713 141.638C379.681 139.14 380.817 136.642 381.964 134.175C383.802 130.308 385.967 126.602 388.434 123.096C388.434 123.096 393.82 127.988 410.737 130.925C412.788 131.238 413.493 133.015 413.388 135.827Z" fill="#575757"/>
<path opacity="0.2" d="M409.2 132.054C409.2 133.099 413.187 138.074 412.945 139.37C412.493 139.673 411.956 140.007 411.346 140.415C400.079 146.927 385.298 143.624 378.733 141.607C379.701 139.109 381.889 134.52 383.026 132.054L390.926 133.799C390.926 133.799 403.845 130.872 409.2 132.054Z" fill="black"/>
<path d="M395.66 125.072C396.87 124.612 406.801 127.068 406.065 127.277C405.328 127.486 401.625 138.774 396.439 137.928C391.252 137.081 391.347 126.702 395.66 125.072Z" fill="#939393"/>
<path d="M350.696 310.018L344.447 311.366L340.796 297.079L347.056 295.741L350.696 310.018Z" fill="#9F5B53"/>
<path d="M342.89 308.774H350.665C350.791 308.774 350.914 308.818 351.012 308.898C351.11 308.978 351.177 309.09 351.201 309.213L352.464 314.868C352.491 314.988 352.494 315.114 352.473 315.236C352.451 315.358 352.405 315.474 352.338 315.579C352.27 315.683 352.182 315.773 352.079 315.842C351.976 315.912 351.86 315.961 351.738 315.986H351.527C349.013 315.986 347.182 315.787 344.026 315.787C342.08 315.787 336.21 315.986 333.506 315.986C330.802 315.986 330.476 313.352 331.57 313.112C336.504 312.067 340.218 310.561 341.796 309.161C341.944 309.028 342.116 308.925 342.304 308.858C342.492 308.792 342.691 308.763 342.89 308.774Z" fill="#263238"/>
<path d="M404.087 179.359C404.087 179.359 398.69 204.924 386.066 211.76C384.617 212.569 383.03 213.105 381.384 213.338C381.384 213.338 368.581 218.564 357.514 223.508C350.781 226.528 344.689 229.476 342.512 231.127C336.747 235.486 350.865 303.528 350.865 303.528L341.27 303.632C341.27 303.632 321.082 243.387 324.438 227.574C327.794 211.76 364.026 187.553 364.026 187.553L369.601 172.314L404.087 179.359Z" fill="#575757"/>
<path opacity="0.2" d="M386.065 211.791C384.616 212.601 383.029 213.136 381.384 213.369C381.384 213.369 368.581 218.595 357.513 223.539C364.635 210.526 377.333 202.071 377.333 202.071L386.065 211.791Z" fill="black"/>
<path d="M431.135 310.018L424.886 311.366L421.235 297.079L427.495 295.741L431.135 310.018Z" fill="#9F5B53"/>
<path d="M423.328 308.774H431.103C431.229 308.774 431.352 308.818 431.45 308.898C431.548 308.978 431.615 309.09 431.639 309.213L432.902 314.868C432.929 314.988 432.932 315.114 432.911 315.236C432.889 315.358 432.843 315.474 432.776 315.579C432.708 315.683 432.62 315.773 432.517 315.842C432.414 315.912 432.298 315.961 432.176 315.986H431.965C429.451 315.986 427.62 315.787 424.464 315.787C422.518 315.787 416.648 315.986 413.944 315.986C411.24 315.986 410.914 313.352 412.008 313.112C416.942 312.067 420.656 310.561 422.234 309.161C422.382 309.028 422.554 308.925 422.742 308.858C422.93 308.792 423.129 308.763 423.328 308.774Z" fill="#263238"/>
<path d="M406.244 130.486C404.677 131.531 397.449 131.134 397.449 131.134L394.093 134.782L393.767 128.751C393.767 128.751 391.505 127.821 392.126 127.173C392.913 127.231 393.703 127.132 394.451 126.883C395.199 126.633 395.889 126.238 396.481 125.72C397.944 124.298 398.228 122.009 398.207 119.741C398.207 119.741 398.207 119.679 398.207 119.658L404.382 116.522L408.653 114.338C406.644 118.644 403.772 126.723 406.244 130.486Z" fill="#9F5B53"/>
<path opacity="0.2" d="M406.423 117.954C404.382 123.086 399.059 125.375 396.439 125.709C397.901 124.288 398.185 121.999 398.164 119.731C398.169 119.7 398.169 119.668 398.164 119.637L404.34 116.501C404.35 117.337 406.717 117.17 406.423 117.954Z" fill="black"/>
<path d="M410.347 117.745C410.347 117.745 414.355 119.835 415.691 117.337C417.028 114.839 415.123 114.693 417.091 113.794C419.058 112.895 421.856 112.268 421.215 110.376C420.573 108.485 418.585 108.286 420.794 106.196C423.003 104.105 423.487 101.158 420.184 100.583C416.88 100.008 418.143 97.4474 417.974 96.4022C417.806 95.357 415.954 94.6254 413.945 95.0434C411.936 95.4615 411.094 92.5036 409.853 91.5839C408.611 90.6641 406.896 91.7929 406.444 93.0367C405.992 94.2804 404.803 92.6291 403.036 92.42C401.268 92.211 401.678 94.061 401.131 95.7855C400.584 97.5101 399.501 96.3917 398.238 97.8132C396.976 99.2347 396.86 108.934 410.347 117.745Z" fill="#913434"/>
<path d="M412.092 111.787C409.073 116.491 407.358 119.595 403.971 121.121C403.514 121.33 403.043 121.504 402.561 121.643C395.975 123.567 390.547 117.264 392.283 111.024C392.613 109.898 393.035 108.8 393.545 107.742C395.902 102.841 400.436 97.8236 405.854 98.4821C406.985 98.6105 408.08 98.9594 409.075 99.5088C410.071 100.058 410.947 100.797 411.655 101.684C412.362 102.57 412.887 103.586 413.198 104.674C413.51 105.763 413.602 106.901 413.47 108.025C413.311 109.368 412.839 110.656 412.092 111.787Z" fill="#9F5B53"/>
<path d="M402.824 108.652C402.603 109.122 402.13 109.331 401.835 109.174C401.54 109.018 401.509 108.505 401.751 108.067C401.993 107.628 402.456 107.387 402.74 107.544C403.024 107.701 403.076 108.223 402.824 108.652Z" fill="#263238"/>
<path d="M397.722 105.861C397.657 106.058 397.517 106.221 397.332 106.317C397.147 106.413 396.933 106.433 396.733 106.373C396.449 106.206 396.407 105.715 396.659 105.265C396.912 104.816 397.354 104.586 397.648 104.753C397.943 104.921 397.964 105.433 397.722 105.861Z" fill="#263238"/>
<path d="M405.875 107.481C405.82 107.49 405.764 107.483 405.712 107.463C405.66 107.443 405.615 107.41 405.58 107.366C405.367 107.054 405.083 106.796 404.75 106.615C404.417 106.433 404.045 106.332 403.666 106.321C403.622 106.329 403.576 106.328 403.533 106.317C403.489 106.306 403.449 106.285 403.415 106.257C403.38 106.228 403.352 106.193 403.333 106.152C403.314 106.112 403.304 106.068 403.304 106.023C403.304 105.979 403.314 105.935 403.333 105.894C403.352 105.854 403.38 105.818 403.415 105.79C403.449 105.762 403.489 105.741 403.533 105.73C403.576 105.719 403.622 105.717 403.666 105.725C404.145 105.729 404.617 105.847 405.04 106.071C405.463 106.295 405.826 106.618 406.096 107.011C406.121 107.042 406.139 107.077 406.15 107.115C406.161 107.153 406.164 107.192 406.159 107.231C406.154 107.27 406.141 107.308 406.121 107.342C406.102 107.376 406.075 107.406 406.043 107.429C405.992 107.46 405.935 107.478 405.875 107.481Z" fill="#263238"/>
<path d="M398.09 114.014C398.797 114.242 399.548 114.297 400.28 114.175C401.013 114.053 401.705 113.758 402.298 113.313C402.325 113.283 402.34 113.244 402.34 113.204C402.34 113.163 402.325 113.124 402.298 113.094C402.269 113.065 402.229 113.049 402.188 113.049C402.146 113.049 402.107 113.065 402.077 113.094C401.516 113.495 400.868 113.761 400.185 113.869C399.502 113.978 398.803 113.927 398.143 113.721C398.124 113.713 398.104 113.709 398.084 113.709C398.064 113.71 398.044 113.714 398.026 113.723C398.007 113.732 397.992 113.745 397.979 113.761C397.967 113.777 397.958 113.795 397.953 113.815C397.945 113.833 397.941 113.853 397.941 113.874C397.942 113.894 397.947 113.913 397.956 113.931C397.965 113.949 397.978 113.965 397.994 113.978C398.01 113.99 398.028 113.999 398.048 114.003L398.09 114.014Z" fill="#263238"/>
<path d="M397.248 101.524C397.232 101.466 397.232 101.404 397.248 101.346C397.283 101.275 397.344 101.219 397.418 101.192C397.493 101.165 397.576 101.167 397.648 101.2C398.09 101.396 398.477 101.695 398.777 102.072C399.078 102.448 399.282 102.891 399.374 103.363C399.382 103.442 399.36 103.521 399.311 103.584C399.262 103.646 399.19 103.687 399.11 103.698C399.031 103.707 398.951 103.684 398.888 103.635C398.826 103.586 398.784 103.515 398.774 103.436C398.691 103.067 398.522 102.723 398.281 102.431C398.04 102.138 397.733 101.907 397.385 101.754C397.348 101.727 397.316 101.692 397.293 101.653C397.269 101.613 397.254 101.569 397.248 101.524Z" fill="#263238"/>
<path d="M401.583 98.9213C403.119 99.1094 403.877 101.012 403.877 101.012C405.734 101.686 407.529 102.518 409.242 103.499C409.765 103.923 410.158 104.482 410.377 105.116C410.597 105.749 410.633 106.431 410.484 107.084C410.431 107.586 409.19 108.046 409.19 108.046C409.19 108.046 406.917 113.376 406.297 114.85L406.612 119.773C410.788 117.149 414.132 113.406 416.259 108.976C419.847 101.555 404.876 95.0227 404.876 95.0227L401.583 98.9213Z" fill="#913434"/>
<path d="M411.187 119.229C409.789 119.99 408.143 120.171 406.611 119.731C404.581 119.125 404.696 117.055 406.201 115.728C407.547 114.578 410.251 113.439 411.819 114.777C412.162 115.068 412.425 115.44 412.585 115.859C412.745 116.279 412.796 116.731 412.733 117.175C412.67 117.619 412.495 118.04 412.225 118.399C411.955 118.758 411.598 119.043 411.187 119.229Z" fill="#9F5B53"/>
<path d="M406.064 127.277L397.7 129.671L394.092 134.531L395.07 128.584C395.07 128.584 394.176 127.214 395.659 125.072L390.568 126.117L387.496 131.217L393.471 129.827L393.881 135.754L397.364 131.677L400.215 136.151L408.694 130.81L406.064 127.277Z" fill="#393939"/>
<path d="M370.958 167.182L369.653 172.346L404.076 179.359L404.591 173.621L370.958 167.182Z" fill="black"/>
<path d="M386.329 169.89C386.056 169.503 378.397 167.862 377.671 168.405C377.671 168.405 376.188 173.495 376.44 174.028C376.693 174.562 384.141 175.596 384.856 175.743C385.572 175.889 386.603 170.318 386.329 169.89ZM384.225 175.116C383.657 175.001 377.534 174.154 377.324 173.715C377.113 173.276 378.376 169.095 378.376 169.095C378.975 168.646 385.267 169.994 385.488 170.308C385.708 170.621 384.793 175.178 384.225 175.063V175.116Z" fill="white"/>
<path d="M384.519 171.625L382.993 171.311C382.854 171.285 382.71 171.311 382.59 171.384C382.469 171.458 382.38 171.573 382.341 171.708C382.319 171.784 382.313 171.863 382.324 171.941C382.335 172.019 382.362 172.094 382.404 172.161C382.445 172.228 382.5 172.285 382.566 172.33C382.631 172.374 382.705 172.405 382.783 172.419L384.308 172.712C384.456 172.741 384.61 172.71 384.735 172.627C384.86 172.544 384.947 172.414 384.976 172.267C385.006 172.12 384.975 171.968 384.891 171.844C384.807 171.719 384.677 171.633 384.529 171.604L384.519 171.625Z" fill="white"/>
<path d="M404.076 179.359C404.076 179.359 404.739 218.031 403.645 229.319C402.551 240.607 430.913 302.388 430.913 302.388H421.729C421.729 302.388 393.903 257.152 387.528 243.23C381.153 229.308 376.439 196.092 376.439 196.092L404.076 179.359Z" fill="#575757"/>
<path d="M413.503 133.109C412.082 129.911 390.274 134.646 388.307 134.092C386.339 133.538 365.867 125.02 365.867 125.02L364.089 129.556C364.089 129.556 382.447 140.008 386.465 141.659C390.484 143.31 406.549 142.516 410.662 140.75C411.366 140.448 412.001 140.008 412.529 139.455C413.056 138.902 413.465 138.249 413.731 137.534C413.996 136.82 414.113 136.059 414.074 135.299C414.035 134.538 413.84 133.793 413.503 133.109Z" fill="#575757"/>
<path d="M409.641 50.0483L403.034 8.24072L368.233 32.6877L379.805 37.5583C368.633 62.9982 332.391 137.531 270.026 192.487C190.398 262.671 78.9467 297.204 77.8315 297.539L83.9964 317.533C88.7305 316.091 200.856 281.391 284.029 208.091C350.307 149.686 387.569 72.6557 399.268 45.6898L409.641 50.0483Z" fill="#00C44E"/>
<path d="M403.329 42.732L403.034 8.24072L368.233 32.6877L379.805 37.5583C368.633 62.9982 332.391 137.531 270.026 192.487C190.398 262.671 78.9467 297.204 77.8315 297.539L81.3358 310.149C86.07 308.706 196.647 277.21 279.821 203.911C346.098 145.505 381.257 67.4298 392.956 40.4639L403.329 42.732Z" fill="#59D887"/>
<path d="M397.248 51.8146C397.084 51.8158 396.921 51.7912 396.764 51.7414L376.555 45.2508C376.347 45.1972 376.152 45.1019 375.982 44.9708C375.812 44.8397 375.671 44.6754 375.568 44.4882C375.464 44.301 375.4 44.0947 375.38 43.882C375.359 43.6693 375.383 43.4548 375.449 43.2514C375.515 43.0481 375.622 42.8604 375.764 42.6997C375.906 42.539 376.079 42.4088 376.273 42.3171C376.467 42.2254 376.678 42.1741 376.893 42.1663C377.108 42.1586 377.322 42.1945 377.523 42.272L397.732 48.7522C398.092 48.8654 398.399 49.1029 398.598 49.4217C398.796 49.7406 398.873 50.1195 398.815 50.49C398.756 50.8604 398.566 51.1977 398.279 51.4407C397.991 51.6837 397.626 51.8164 397.248 51.8146Z" fill="#263238"/>
<g opacity="0.4">
<path d="M397.249 51.8146C397.085 51.8158 396.921 51.7912 396.765 51.7414L376.555 45.2508C376.347 45.1972 376.152 45.1019 375.983 44.9708C375.813 44.8397 375.672 44.6754 375.568 44.4882C375.465 44.301 375.401 44.0947 375.38 43.882C375.36 43.6693 375.383 43.4548 375.449 43.2514C375.515 43.0481 375.623 42.8604 375.764 42.6997C375.906 42.539 376.079 42.4088 376.274 42.3171C376.468 42.2254 376.679 42.1741 376.894 42.1663C377.109 42.1586 377.323 42.1945 377.523 42.272L397.733 48.7522C398.093 48.8654 398.4 49.1029 398.598 49.4217C398.797 49.7406 398.874 50.1195 398.815 50.49C398.757 50.8604 398.567 51.1977 398.279 51.4407C397.992 51.6837 397.626 51.8164 397.249 51.8146Z" fill="#006F16"/>
</g>
<path d="M155.208 247.474C154.789 247.474 154.388 247.309 154.092 247.015C153.796 246.721 153.63 246.322 153.63 245.906C153.63 196.009 168.221 189.466 170.957 188.661L217.351 156.417L217.456 156.354L395.691 51.3546C396.05 51.151 396.476 51.0959 396.876 51.2011C397.276 51.3063 397.618 51.5634 397.829 51.917C398.04 52.2706 398.103 52.6924 398.004 53.0916C397.905 53.4908 397.653 53.8354 397.3 54.0512L219.15 159.02L172.535 191.42C172.336 191.558 172.11 191.65 171.872 191.692C171.756 191.692 156.786 195.35 156.786 245.937C156.778 246.348 156.608 246.739 156.313 247.026C156.018 247.313 155.621 247.474 155.208 247.474Z" fill="#263238"/>
<g opacity="0.4">
<path d="M155.208 247.474C154.789 247.474 154.388 247.309 154.092 247.015C153.796 246.721 153.63 246.322 153.63 245.906C153.63 196.009 168.221 189.466 170.957 188.661L217.351 156.417L217.456 156.354L395.691 51.3546C396.05 51.151 396.476 51.0959 396.876 51.2011C397.276 51.3063 397.618 51.5634 397.829 51.917C398.04 52.2706 398.103 52.6924 398.004 53.0916C397.905 53.4908 397.653 53.8354 397.3 54.0512L219.15 159.02L172.535 191.42C172.336 191.558 172.11 191.65 171.872 191.692C171.756 191.692 156.786 195.35 156.786 245.937C156.778 246.348 156.608 246.739 156.313 247.026C156.018 247.313 155.621 247.474 155.208 247.474Z" fill="#006F16"/>
<path d="M399.072 107.877C398.059 108.734 396.792 109.77 396.792 109.77C396.792 109.77 396.778 111.082 398.207 111.651C397.69 111.147 397.237 110.478 397.774 109.704C398.311 108.931 399.072 107.877 399.072 107.877Z" fill="#DE623C"/>
</g>
<path d="M167.327 195.695C167.327 195.695 159.216 200.921 153.051 202.499C151.529 203.01 149.896 203.101 148.327 202.761C143.74 201.318 146.465 192.497 149.2 186.926C149.642 186.017 150.084 185.202 150.494 184.512L158.511 189.435C158.511 189.435 153.65 196.322 154.208 196.751C154.766 197.179 162.256 193.03 162.624 192.894C162.992 192.758 167.327 195.695 167.327 195.695Z" fill="#939393"/>
<path opacity="0.2" d="M167.328 195.695C167.328 195.695 159.216 200.921 153.052 202.499C151.34 197.422 150.052 192.213 149.201 186.926C149.643 186.017 150.085 185.202 150.495 184.512L158.512 189.435C158.512 189.435 153.651 196.322 154.209 196.751C154.766 197.179 162.257 193.03 162.625 192.894C162.993 192.758 167.328 195.695 167.328 195.695Z" fill="black"/>
<path d="M206.831 165.364L211.586 161.183C211.966 159.99 212.489 158.846 213.143 157.776C213.658 157.347 222.316 156.678 222.316 156.678C222.316 156.678 222.485 161.225 221.801 162.406C221.117 163.587 214.047 164.099 214.047 164.099L210.26 167.726L206.831 165.364Z" fill="#EEC1BB"/>
<path d="M232.164 264.437C230.807 283.836 227.177 311.366 227.177 311.366L222.506 312.411C222.506 312.411 218.193 289.365 218.877 267.98C218.999 263.319 219.442 258.671 220.202 254.069C220.202 254.069 204.022 247.892 192.787 242.363C187.421 239.729 183.182 237.231 182.372 235.621C179.868 230.657 191.251 218.992 191.251 218.992C191.608 219.275 198.478 223.623 206.474 228.775C217.088 235.611 229.681 243.868 231.722 245.927C232.943 247.108 232.837 254.759 232.164 264.437Z" fill="#EEC1BB"/>
<path opacity="0.2" d="M232.163 264.437C227.845 265.993 223.4 267.171 218.876 267.96C218.998 263.298 219.441 258.65 220.201 254.048C220.201 254.048 204.021 247.871 192.786 242.342L206.462 228.755C217.077 235.59 229.67 243.847 231.711 245.906C232.942 247.108 232.836 254.759 232.163 264.437Z" fill="black"/>
<path d="M195.743 215.752C195.743 215.752 240.633 241.391 246.735 247.181C252.837 252.972 288.059 307.081 288.059 307.081L285.092 309.893C285.092 309.893 255.845 284.954 244.178 261.25L195.785 238.015L195.743 215.752Z" fill="#EEC1BB"/>
<path d="M161.594 168.416C161.666 168.465 161.744 168.508 161.825 168.541C162.928 169.162 164.144 169.556 165.402 169.701C169.063 170.025 171.42 169.21 172.766 167.391C174.639 164.695 174.597 160.389 173.566 155.319C173.225 153.291 172.561 151.329 171.599 149.508C171.599 149.508 171.599 149.435 171.599 149.425L171.472 149.216C170.887 148.196 170.053 147.338 169.048 146.721C168.043 146.104 166.898 145.747 165.718 145.683C164.69 145.598 163.657 145.626 162.635 145.766C152.641 147.052 153.178 163.796 161.594 168.416Z" fill="#EEC1BB"/>
<path opacity="0.2" d="M161.868 168.541C162.973 169.127 164.187 169.483 165.435 169.586C169.085 169.91 171.431 168.97 172.799 167.141C170.752 167.951 168.497 168.079 166.371 167.506C165.591 167.327 164.779 167.327 163.999 167.506C163.219 167.686 162.49 168.04 161.868 168.541Z" fill="black"/>
<path d="M161.195 176.715C160.322 179.516 163.93 181 163.93 181C170.242 178.91 171.663 175.847 171.663 175.847C166.823 172.712 168.948 165.458 168.948 165.458L167.896 165.876L160.532 166.65C160.532 166.65 162.205 170.653 162.394 171.551C163.32 176.265 161.195 176.715 161.195 176.715Z" fill="#EBB376"/>
<path d="M171.661 149.414C171.661 149.414 173.197 156.323 166.959 160.242C166.959 160.242 165.118 167.904 160.92 168.604C155.197 169.544 149.001 162.134 149.821 153.584C150.894 142.526 167.116 139.38 171.661 149.414Z" fill="#263238"/>
<path d="M170.01 157.776C169.852 156.731 168.716 154.975 167.043 155.466C165.371 155.957 164.939 160.42 169.421 160.786C170.105 160.911 170.378 160.075 170.01 157.776Z" fill="#EBB376"/>
<path d="M286.102 303.757L281.262 307.457C281.163 307.537 281.094 307.647 281.065 307.77C281.037 307.893 281.051 308.022 281.105 308.137L283.566 313.363C283.619 313.473 283.694 313.572 283.785 313.655C283.877 313.737 283.984 313.8 284.1 313.841C284.217 313.881 284.34 313.899 284.463 313.892C284.587 313.886 284.707 313.855 284.818 313.802C284.881 313.773 284.941 313.738 284.997 313.697C286.954 312.14 287.017 311.899 289.51 309.997C291.036 308.826 295.823 305.44 297.927 303.82C300.031 302.2 298.705 299.911 297.695 300.381C293.15 302.472 289.279 303.59 287.175 303.433C286.789 303.404 286.406 303.52 286.102 303.757Z" fill="#263238"/>
<path d="M227.999 308.283L221.886 308.398C221.761 308.404 221.641 308.452 221.546 308.533C221.451 308.615 221.386 308.725 221.36 308.847L220.214 314.502C220.179 314.738 220.238 314.978 220.377 315.172C220.516 315.367 220.725 315.501 220.961 315.547C221.03 315.557 221.101 315.557 221.171 315.547C223.664 315.453 223.864 315.296 227.01 315.233C228.945 315.233 234.784 315.286 237.456 315.233C240.128 315.181 240.423 312.547 239.329 312.328C234.395 311.366 230.681 309.966 229.082 308.596C228.775 308.358 228.387 308.246 227.999 308.283Z" fill="#263238"/>
<path d="M194.49 208.886L172.219 218.177C163.014 195.444 150.495 184.512 150.495 184.512C159.416 173.882 175.891 168.991 175.891 168.991C178.324 170.958 180.423 173.301 182.108 175.931C183.965 178.787 185.584 181.79 186.947 184.909C190.256 192.633 192.783 200.664 194.49 208.886Z" fill="#939393"/>
<path d="M171.451 154.034C171.451 154.034 178.447 146.948 171.746 142.276C165.045 137.604 158.396 143.843 158.396 143.843C158.396 143.843 142.479 147.826 145.971 158.33C149.464 168.834 151.694 169.701 146.697 175.157C141.7 180.613 136.608 188.661 141.826 193.73C147.044 198.799 165.034 193.364 170.431 185.588C175.828 177.812 166.002 161.329 171.451 154.034Z" fill="#191919"/>
<path d="M192.87 202.071L168.674 210.317C168.674 210.317 174.029 236.499 177.911 240.879C181.793 245.258 207.746 265.535 211.418 263.936C215.089 262.336 239.444 240.879 239.444 240.879L198.236 212.805L192.87 202.071Z" fill="#575757"/>
<path d="M189.346 206.994L194.491 205.301L193.218 202.761L188.347 204.464L189.346 206.994Z" fill="black"/>
<path d="M173.965 209.502L168.695 211.342L169.4 213.568L174.555 211.875L173.965 209.502Z" fill="black"/>
<path d="M175.66 211.509L188.316 207.339L187.369 204.809L174.966 209.147L175.66 211.509Z" fill="black"/>
<path opacity="0.2" d="M186.948 184.951C181.625 184.334 178.627 176.38 178.627 176.38C179.778 176.175 180.941 176.039 182.109 175.972C183.967 178.829 185.585 181.831 186.948 184.951Z" fill="black"/>
<path d="M175.891 168.991C181.677 168.134 194.617 172.795 195.743 172.743C196.869 172.691 209.419 162.887 209.419 162.887L212.681 165.74C212.681 165.74 199.53 179.213 196.827 179.328C194.123 179.442 179.994 178.429 179.994 178.429C179.994 178.429 176.533 177.206 175.87 174.102C175.467 172.421 175.474 170.668 175.891 168.991Z" fill="#939393"/>
<path d="M75.2524 103.39C75.7309 103.959 76.1498 104.546 76.6146 104.879C76.6893 104.933 76.7427 105.019 76.7637 105.118C76.7847 105.218 76.7715 105.322 76.727 105.41C76.3592 106.167 75.2814 106.789 74.6207 107.114C74.6007 107.124 74.5783 107.125 74.5575 107.118C74.5367 107.11 74.5189 107.094 74.5073 107.073C74.4957 107.052 74.4909 107.026 74.4939 107.001C74.4969 106.976 74.5074 106.954 74.5237 106.937C75.1911 106.259 75.4772 105.755 75.5981 105.489C75.6274 105.422 75.6427 105.349 75.6427 105.274C75.6427 105.199 75.6274 105.125 75.5981 105.058C75.4619 104.745 75.1894 104.107 75.0055 103.581C74.9956 103.544 74.9963 103.504 75.0075 103.468C75.0186 103.432 75.0396 103.4 75.0674 103.379C75.0951 103.357 75.1281 103.347 75.1615 103.349C75.1948 103.351 75.2267 103.365 75.2524 103.39Z" fill="#DE623C"/>
<path d="M436.281 319.257H44.1226C43.8184 319.257 43.5172 319.208 43.2362 319.113C42.9552 319.018 42.6999 318.879 42.4849 318.704C42.2699 318.529 42.0995 318.321 41.9832 318.092C41.867 317.863 41.8073 317.617 41.8076 317.37C41.8073 317.122 41.867 316.877 41.9832 316.648C42.0995 316.419 42.2699 316.211 42.4849 316.036C42.6999 315.86 42.9552 315.721 43.2362 315.627C43.5172 315.532 43.8184 315.483 44.1226 315.483H436.281C436.896 315.483 437.485 315.682 437.919 316.036C438.354 316.389 438.598 316.869 438.598 317.37C438.598 317.87 438.354 318.35 437.919 318.704C437.485 319.058 436.896 319.257 436.281 319.257Z" fill="#006F16"/>
</svg>
