<svg width="81" height="24" viewBox="0 0 81 24" fill="none" xmlns="http://www.w3.org/2000/svg">
<rect width="81" height="24" rx="12" fill="#E7E7E7"/>
<circle cx="10" cy="12" r="3" fill="#191919"/>
<path d="M24.2959 7.36279C25.5396 7.36279 26.4471 7.60669 27.0183 8.09448C27.594 8.57788 27.8819 9.27222 27.8819 10.1775C27.8819 10.5862 27.8137 10.9751 27.6775 11.3442C27.5457 11.709 27.3304 12.032 27.0315 12.3132C26.7327 12.5901 26.3394 12.8098 25.8516 12.9724C25.3682 13.1306 24.7749 13.2097 24.0718 13.2097H22.8985V17H21.7779V7.36279H24.2959ZM24.1905 8.3186H22.8985V12.2473H23.9466C24.5618 12.2473 25.0738 12.1814 25.4825 12.0496C25.8955 11.9177 26.2054 11.7046 26.4119 11.4102C26.6184 11.1113 26.7217 10.7158 26.7217 10.2236C26.7217 9.58203 26.5174 9.10522 26.1087 8.79321C25.7 8.47681 25.0606 8.3186 24.1905 8.3186ZM32.6509 9.64355C33.2661 9.64355 33.7935 9.77979 34.2329 10.0522C34.6724 10.3247 35.0086 10.707 35.2415 11.1992C35.4744 11.687 35.5908 12.2583 35.5908 12.9131V13.592H30.6008C30.614 14.4402 30.825 15.0862 31.2337 15.53C31.6424 15.9739 32.218 16.1958 32.9607 16.1958C33.4177 16.1958 33.822 16.1541 34.1736 16.0706C34.5252 15.9871 34.8899 15.864 35.2678 15.7014V16.6638C34.9031 16.8264 34.5405 16.9451 34.1802 17.0198C33.8242 17.0945 33.4024 17.1318 32.9146 17.1318C32.2202 17.1318 31.6138 16.9912 31.0952 16.71C30.5811 16.4243 30.1812 16.0068 29.8955 15.4575C29.6099 14.9082 29.4671 14.2358 29.4671 13.4404C29.4671 12.6626 29.5967 11.9902 29.856 11.4233C30.1196 10.8521 30.4888 10.4126 30.9634 10.105C31.4424 9.79736 32.0049 9.64355 32.6509 9.64355ZM32.6377 10.54C32.0532 10.54 31.5874 10.7312 31.2403 11.1135C30.8931 11.4958 30.6865 12.0298 30.6206 12.7153H34.4439C34.4395 12.2847 34.3714 11.9067 34.2395 11.5815C34.1121 11.252 33.9165 10.9971 33.6529 10.8169C33.3892 10.6323 33.0508 10.54 32.6377 10.54ZM41.0059 9.64355C41.8628 9.64355 42.511 9.85449 42.9504 10.2764C43.3899 10.6938 43.6096 11.3662 43.6096 12.2935V17H42.5286V12.366C42.5286 11.7639 42.3901 11.3135 42.1133 11.0146C41.8408 10.7158 41.4212 10.5664 40.8543 10.5664C40.0545 10.5664 39.492 10.7927 39.1668 11.2454C38.8416 11.698 38.679 12.355 38.679 13.2163V17H37.5847V9.77539H38.468L38.6328 10.8169H38.6921C38.846 10.562 39.0415 10.3489 39.2788 10.1775C39.5161 10.0017 39.782 9.86987 40.0764 9.78198C40.3709 9.6897 40.6807 9.64355 41.0059 9.64355ZM48.5698 17.1318C47.6558 17.1318 46.9307 16.8198 46.3945 16.1958C45.8628 15.5718 45.5969 14.6445 45.5969 13.4141C45.5969 12.1704 45.8694 11.2322 46.4143 10.5994C46.9592 9.96216 47.6843 9.64355 48.5896 9.64355C48.9719 9.64355 49.3059 9.69409 49.5916 9.79517C49.8772 9.89624 50.1233 10.0325 50.3298 10.2039C50.5364 10.3708 50.71 10.562 50.8506 10.7773H50.9297C50.9121 10.6411 50.8945 10.4543 50.877 10.217C50.8594 9.97974 50.8506 9.78638 50.8506 9.63696V6.74316H51.9448V17H51.0615L50.8967 15.9717H50.8506C50.7144 16.187 50.5408 16.3826 50.3298 16.5583C50.1233 16.7341 49.875 16.8748 49.585 16.9802C49.2993 17.0813 48.9609 17.1318 48.5698 17.1318ZM48.7412 16.2222C49.5146 16.2222 50.0618 16.0024 50.3826 15.563C50.7034 15.1235 50.8638 14.4709 50.8638 13.6052V13.4075C50.8638 12.489 50.71 11.7837 50.4023 11.2915C50.0991 10.7993 49.5454 10.5532 48.7412 10.5532C48.0688 10.5532 47.5657 10.8125 47.2317 11.3311C46.8977 11.8452 46.7307 12.5483 46.7307 13.4404C46.7307 14.3281 46.8955 15.0137 47.2251 15.4971C47.5591 15.9805 48.0645 16.2222 48.7412 16.2222ZM55.4944 9.77539V17H54.4001V9.77539H55.4944ZM54.9604 7.07275C55.1406 7.07275 55.2944 7.13208 55.4219 7.25073C55.5537 7.36499 55.6196 7.54517 55.6196 7.79126C55.6196 8.03296 55.5537 8.21313 55.4219 8.33179C55.2944 8.45044 55.1406 8.50977 54.9604 8.50977C54.7715 8.50977 54.6133 8.45044 54.4858 8.33179C54.3628 8.21313 54.3013 8.03296 54.3013 7.79126C54.3013 7.54517 54.3628 7.36499 54.4858 7.25073C54.6133 7.13208 54.7715 7.07275 54.9604 7.07275ZM61.3708 9.64355C62.2278 9.64355 62.876 9.85449 63.3154 10.2764C63.7549 10.6938 63.9746 11.3662 63.9746 12.2935V17H62.8935V12.366C62.8935 11.7639 62.7551 11.3135 62.4782 11.0146C62.2058 10.7158 61.7861 10.5664 61.2192 10.5664C60.4194 10.5664 59.8569 10.7927 59.5317 11.2454C59.2065 11.698 59.0439 12.355 59.0439 13.2163V17H57.9497V9.77539H58.833L58.9978 10.8169H59.0571C59.2109 10.562 59.4065 10.3489 59.6438 10.1775C59.8811 10.0017 60.1469 9.86987 60.4414 9.78198C60.7358 9.6897 61.0456 9.64355 61.3708 9.64355ZM68.3811 20.2432C67.4319 20.2432 66.7002 20.0652 66.186 19.7092C65.6718 19.3577 65.4148 18.8633 65.4148 18.2261C65.4148 17.7734 65.5576 17.3867 65.8432 17.0659C66.1333 16.7451 66.5332 16.532 67.0429 16.4265C66.854 16.3386 66.6914 16.2068 66.5551 16.031C66.4233 15.8552 66.3574 15.6531 66.3574 15.4246C66.3574 15.1609 66.4299 14.9302 66.5749 14.7324C66.7243 14.5303 66.9507 14.3369 67.2539 14.1523C66.8759 13.9985 66.5683 13.7393 66.331 13.3745C66.0981 13.0054 65.9817 12.5769 65.9817 12.0891C65.9817 11.5706 66.0893 11.1289 66.3047 10.7642C66.52 10.395 66.832 10.1138 67.2407 9.92041C67.6494 9.72705 68.1438 9.63037 68.7238 9.63037C68.8513 9.63037 68.9787 9.63696 69.1062 9.65015C69.238 9.65894 69.3633 9.67432 69.4819 9.69629C69.6006 9.71387 69.7038 9.73584 69.7917 9.76221H72.2702V10.4675L70.9387 10.6323C71.0705 10.8037 71.1804 11.0103 71.2683 11.252C71.3562 11.4937 71.4001 11.7617 71.4001 12.0562C71.4001 12.7769 71.1562 13.3503 70.6684 13.7766C70.1806 14.1985 69.5105 14.4094 68.6579 14.4094C68.4558 14.4094 68.2492 14.3918 68.0383 14.3567C67.823 14.4753 67.6582 14.6072 67.5439 14.7522C67.4341 14.8972 67.3791 15.0642 67.3791 15.2532C67.3791 15.3938 67.4209 15.5059 67.5044 15.5894C67.5923 15.6729 67.7175 15.7344 67.8801 15.7739C68.0427 15.8091 68.2383 15.8267 68.4668 15.8267H69.739C70.5256 15.8267 71.1277 15.9915 71.5451 16.321C71.967 16.6506 72.1779 17.1318 72.1779 17.7646C72.1779 18.5645 71.8528 19.1775 71.2024 19.6038C70.552 20.03 69.6115 20.2432 68.3811 20.2432ZM68.414 19.3862C69.0117 19.3862 69.5061 19.3247 69.8972 19.2017C70.2927 19.083 70.5871 18.9094 70.7805 18.6809C70.9782 18.4568 71.0771 18.1887 71.0771 17.8767C71.0771 17.5867 71.0112 17.3669 70.8794 17.2175C70.7475 17.0725 70.5542 16.9758 70.2993 16.9275C70.0444 16.8748 69.7324 16.8484 69.3633 16.8484H68.1108C67.7856 16.8484 67.5022 16.8989 67.2605 17C67.0188 17.1011 66.832 17.2505 66.7002 17.4482C66.5727 17.646 66.509 17.8921 66.509 18.1865C66.509 18.5776 66.6738 18.8743 67.0034 19.0764C67.333 19.283 67.8032 19.3862 68.414 19.3862ZM68.6975 13.6118C69.2204 13.6118 69.6137 13.48 69.8774 13.2163C70.1411 12.9526 70.2729 12.5681 70.2729 12.0627C70.2729 11.5222 70.1389 11.1179 69.8708 10.8499C69.6028 10.5774 69.2072 10.4412 68.6843 10.4412C68.1833 10.4412 67.7966 10.5818 67.5241 10.863C67.2561 11.1399 67.122 11.5464 67.122 12.0825C67.122 12.5747 67.2583 12.9526 67.5307 13.2163C67.8032 13.48 68.1921 13.6118 68.6975 13.6118Z" fill="#191919"/>
</svg>
