<svg width="62" height="19" viewBox="0 0 62 19" fill="none" xmlns="http://www.w3.org/2000/svg">
<path d="M13.7559 8.28174C13.7559 9.96143 13.4564 11.3709 12.8574 12.5103C12.265 13.6431 11.3926 14.4731 10.2402 15.0005L13.6777 18.8384H9.80078L7.18359 15.6353H6.95898C4.77148 15.6353 3.0918 15.0005 1.91992 13.731C0.748047 12.4614 0.162109 10.6385 0.162109 8.26221C0.162109 5.8859 0.748047 4.07275 1.91992 2.82275C3.09831 1.56624 4.78451 0.937988 6.97852 0.937988C9.17253 0.937988 10.849 1.5695 12.0078 2.83252C13.1732 4.09554 13.7559 5.91195 13.7559 8.28174ZM3.33594 8.28174C3.33594 9.87679 3.63867 11.078 4.24414 11.8853C4.84961 12.6925 5.75456 13.0962 6.95898 13.0962C9.37435 13.0962 10.582 11.4914 10.582 8.28174C10.582 5.06559 9.38086 3.45752 6.97852 3.45752C5.77409 3.45752 4.86589 3.86442 4.25391 4.67822C3.64193 5.48551 3.33594 6.68669 3.33594 8.28174ZM24.2148 15.4399L23.8145 14.0435H23.6582C23.3392 14.5513 22.8867 14.9451 22.3008 15.2251C21.7148 15.4985 21.0475 15.6353 20.2988 15.6353C19.0163 15.6353 18.0495 15.2935 17.3984 14.6099C16.7474 13.9198 16.4219 12.9302 16.4219 11.6411V4.52197H19.4004V10.8989C19.4004 11.6867 19.5404 12.2791 19.8203 12.6763C20.1003 13.0669 20.5462 13.2622 21.1582 13.2622C21.9915 13.2622 22.5938 12.9855 22.9648 12.4321C23.3359 11.8722 23.5215 10.9478 23.5215 9.65869V4.52197H26.5V15.4399H24.2148ZM29.498 1.69971C29.498 0.729655 30.0384 0.244629 31.1191 0.244629C32.1999 0.244629 32.7402 0.729655 32.7402 1.69971C32.7402 2.16195 32.6035 2.52327 32.3301 2.78369C32.0632 3.0376 31.6595 3.16455 31.1191 3.16455C30.0384 3.16455 29.498 2.67627 29.498 1.69971ZM32.6035 15.4399H29.625V4.52197H32.6035V15.4399ZM43.3359 15.4399H34.7129V13.6821L39.7715 6.79736H35.0156V4.52197H43.1602V6.45557L38.2383 13.1646H43.3359V15.4399ZM45.377 1.69971C45.377 0.729655 45.9173 0.244629 46.998 0.244629C48.0788 0.244629 48.6191 0.729655 48.6191 1.69971C48.6191 2.16195 48.4824 2.52327 48.209 2.78369C47.9421 3.0376 47.5384 3.16455 46.998 3.16455C45.9173 3.16455 45.377 2.67627 45.377 1.69971ZM48.4824 15.4399H45.5039V4.52197H48.4824V15.4399ZM53.9902 9.96143C53.9902 11.0422 54.166 11.8592 54.5176 12.4126C54.8757 12.966 55.4551 13.2427 56.2559 13.2427C57.0501 13.2427 57.6198 12.9692 57.9648 12.4224C58.3164 11.869 58.4922 11.0487 58.4922 9.96143C58.4922 8.8807 58.3164 8.07015 57.9648 7.52979C57.6133 6.98942 57.0371 6.71924 56.2363 6.71924C55.4421 6.71924 54.8691 6.98942 54.5176 7.52979C54.166 8.06364 53.9902 8.87419 53.9902 9.96143ZM61.5391 9.96143C61.5391 11.7388 61.0703 13.1287 60.1328 14.1313C59.1953 15.134 57.89 15.6353 56.2168 15.6353C55.1686 15.6353 54.2441 15.4074 53.4434 14.9517C52.6426 14.4894 52.0273 13.8286 51.5977 12.9692C51.168 12.1099 50.9531 11.1073 50.9531 9.96143C50.9531 8.17757 51.4186 6.79085 52.3496 5.80127C53.2806 4.81169 54.5892 4.31689 56.2754 4.31689C57.3236 4.31689 58.248 4.54476 59.0488 5.00049C59.8496 5.45622 60.4648 6.11051 60.8945 6.96338C61.3242 7.81624 61.5391 8.81559 61.5391 9.96143Z" fill="#593C8F"/>
</svg>
