<svg width="187" height="164" viewBox="0 0 187 164" fill="none" xmlns="http://www.w3.org/2000/svg">
<g id="illustration remove user">
<g id="inbox-cleanup/pana">
<g id="background-complete">
<path id="Vector" d="M38.4115 56.3248C38.4115 56.3248 38.3404 56.1951 38.2191 55.9526L37.6796 54.8737L35.6471 50.7671C33.899 47.225 31.4023 42.1566 28.3703 36.005L28.4916 36.0469L0.63894 49.6923L0.689126 49.5459L10.6383 69.9075L10.5045 69.8615L30.6119 60.0801L36.3455 57.3033L37.8929 56.5924L38.286 56.4084L38.4282 56.3457L38.3028 56.4126L37.8929 56.5924L36.3915 57.341L30.7039 60.1512L10.5923 70.0413L10.5045 70.0873L10.4585 69.9953L0.492567 49.6463L0.442383 49.5459L0.542753 49.4999L28.4121 35.8921L28.4916 35.8545L28.5292 35.9339L35.7475 50.7838L37.7298 54.8904L38.2442 55.9651L38.4115 56.3248Z" fill="#E0E0E0"/>
<path id="Vector_2" d="M28.4493 35.9675C28.4465 36.0048 28.4381 36.0415 28.4242 36.0763C28.3991 36.1599 28.3657 36.2644 28.3238 36.3899C28.2277 36.6826 28.0938 37.0841 27.9056 37.5901C27.5418 38.6481 27.0232 40.1452 26.3834 41.9894L21.3063 56.4796L21.1641 56.5465H21.139H21.1056L21.0387 56.5256L20.9048 56.4796L20.6372 56.3918L20.1102 56.2162L19.0731 55.8482L17.028 55.1665L13.1596 53.8743L6.61466 51.6747L2.20675 50.1734L1.01486 49.7552L0.705382 49.6423C0.668279 49.6327 0.632973 49.6171 0.60083 49.5963C0.63814 49.5991 0.674806 49.6075 0.709564 49.6214L1.0274 49.7134L2.23602 50.0939L6.66485 51.5283L13.2182 53.6652L17.0908 54.9449L19.14 55.6265L20.1855 55.9736L20.7166 56.1493L20.9801 56.2371L21.1139 56.2789L21.1808 56.304H21.2143H21.2394C21.1808 56.3333 21.3816 56.2413 21.1098 56.3751C23.1213 50.7295 24.9405 45.6235 26.2621 41.9058L27.8554 37.5608C28.0395 37.059 28.19 36.6617 28.2737 36.3774L28.3949 36.0679L28.4493 35.9675Z" fill="#E0E0E0"/>
<path id="Vector_3" d="M14.3199 54.1602C14.3785 54.1602 13.5839 57.7441 12.5426 62.1351C11.5012 66.526 10.6063 70.0806 10.5477 70.0597C10.4892 70.0388 11.2879 66.4758 12.3293 62.0849C13.3706 57.6939 14.2614 54.1435 14.3199 54.1602Z" fill="#E0E0E0"/>
<path id="Vector_4" d="M38.705 56.4786C38.6799 56.5288 35.3343 54.8895 31.2316 52.8153C27.129 50.741 23.8252 49.0139 23.8544 48.9596C23.8837 48.9052 27.2294 50.5445 31.332 52.6229C35.4346 54.7013 38.7301 56.4242 38.705 56.4786Z" fill="#E0E0E0"/>
<path id="Vector_5" d="M176.206 58.7216C176.206 58.7216 176.269 58.6212 176.394 58.4414L176.955 57.6511L179.088 54.6652L186.812 43.9094V44.0349L165.316 28.5076L165.471 28.4825L154.786 43.2361L154.765 43.0981L170.205 54.3306L174.613 57.5507L175.788 58.4121L176.089 58.638C176.156 58.6923 176.194 58.7174 176.194 58.7216L176.093 58.6547L175.792 58.4456L174.621 57.6092L170.201 54.4436L154.66 43.257L154.572 43.2152L154.631 43.1316L165.299 28.3696L165.366 28.2817L165.454 28.3445L186.929 43.9052L187 43.9554L186.946 44.0265L179.125 54.7572C178.193 56.0118 177.452 57.0196 176.963 57.7054C176.721 58.0358 176.545 58.2909 176.399 58.4665C176.252 58.6422 176.206 58.7216 176.206 58.7216Z" fill="#E0E0E0"/>
<path id="Vector_6" d="M186.883 43.9534C186.763 43.9818 186.641 44.0028 186.519 44.0162L185.477 44.1625L181.643 44.6518L168.983 46.1949C168.745 46.0193 168.916 46.1405 168.862 46.0987V46.0569V45.9984L168.841 45.8855L168.795 45.6554L168.703 45.2038C168.64 44.9027 168.582 44.6016 168.519 44.3047C168.402 43.7109 168.281 43.1254 168.168 42.5483C167.938 41.3983 167.712 40.2859 167.503 39.2279C167.085 37.137 166.704 35.2133 166.386 33.6075C166.068 32.0016 165.83 30.7262 165.654 29.8103L165.466 28.7774C165.441 28.6572 165.423 28.5358 165.412 28.4136C165.454 28.529 165.487 28.6479 165.508 28.769C165.562 29.0199 165.642 29.3629 165.738 29.7936L166.537 33.5573C166.867 35.1631 167.26 37.0617 167.699 39.1735C167.913 40.2316 168.143 41.3397 168.377 42.4898C168.494 43.0669 168.611 43.6523 168.732 44.2462C168.795 44.5431 168.854 44.84 168.916 45.1411L169.008 45.5969L169.054 45.8227L169.075 45.9398V45.9942V46.0444C169.025 46.0067 169.197 46.1364 168.958 45.9649L181.626 44.4887L185.469 44.0705L186.515 43.966C186.637 43.9515 186.76 43.9473 186.883 43.9534Z" fill="#E0E0E0"/>
<path id="Vector_7" d="M167.774 40.1849C167.774 40.2435 164.846 40.9669 161.233 41.8033C157.62 42.6397 154.655 43.267 154.638 43.2084C154.621 43.1499 157.565 42.4264 161.183 41.59C164.8 40.7537 167.761 40.1264 167.774 40.1849Z" fill="#E0E0E0"/>
<path id="Vector_8" d="M176.218 58.9953C176.159 58.9953 175.95 55.9384 175.758 52.1621C175.566 48.3859 175.457 45.3206 175.52 45.3164C175.582 45.3122 175.783 48.3734 175.975 52.1496C176.168 55.9258 176.276 58.9911 176.218 58.9953Z" fill="#E0E0E0"/>
<path id="Vector_9" d="M134.048 135.314L134.374 135.439L135.302 135.824L138.828 137.296L151.508 142.628L151.395 142.674L162.143 117.302L162.202 117.449L144.783 110.038L144.913 109.984L137.109 128.229C136.151 130.458 135.394 132.227 134.868 133.444C134.608 134.042 134.408 134.506 134.265 134.828L134.111 135.188L134.048 135.314C134.048 135.314 134.048 135.272 134.094 135.192C134.14 135.113 134.177 134.992 134.236 134.841L134.809 133.465L137.009 128.25C138.903 123.763 141.584 117.407 144.746 109.905L144.783 109.812L144.875 109.854L162.289 117.231L162.39 117.273L162.344 117.373C158.291 126.904 154.544 135.702 151.554 142.732L151.521 142.812L151.441 142.778L138.744 137.342L135.256 135.836L134.353 135.443L134.048 135.314Z" fill="#E0E0E0"/>
<path id="Vector_10" d="M151.474 142.712C151.456 142.685 151.442 142.655 151.432 142.624C151.403 142.553 151.369 142.466 151.323 142.361C151.231 142.11 151.101 141.767 150.938 141.336C150.604 140.429 150.131 139.145 149.554 137.573L145.062 125.102C145.18 124.831 145.1 125.027 145.125 124.964H145.155L145.209 124.939L145.318 124.889L145.539 124.789L145.978 124.592L146.844 124.199L148.542 123.434L151.75 121.991L157.186 119.557L160.858 117.935L161.862 117.516L162.125 117.412C162.188 117.387 162.217 117.378 162.217 117.383L162.134 117.433L161.883 117.558L160.896 118.027L157.249 119.699L151.812 122.175L148.609 123.63L146.936 124.396L146.066 124.789L145.648 124.989L145.431 125.086L145.318 125.136L145.263 125.161H145.238C145.259 125.102 145.175 125.299 145.288 125.031C147.016 129.899 148.58 134.307 149.717 137.518C150.269 139.107 150.721 140.4 151.039 141.311C151.185 141.75 151.302 142.093 151.386 142.348C151.419 142.457 151.449 142.545 151.474 142.62C151.478 142.651 151.478 142.682 151.474 142.712Z" fill="#E0E0E0"/>
<path id="Vector_11" d="M150.87 122.484C150.816 122.509 149.402 119.707 147.717 116.211C146.032 112.715 144.71 109.888 144.765 109.859C144.819 109.83 146.228 112.636 147.914 116.132C149.599 119.628 150.921 122.459 150.87 122.484Z" fill="#E0E0E0"/>
<path id="Vector_12" d="M133.774 135.39C133.774 135.331 136.81 134.415 140.591 133.345C144.372 132.274 147.462 131.45 147.462 131.513C147.462 131.576 144.426 132.488 140.645 133.558C136.865 134.629 133.791 135.448 133.774 135.39Z" fill="#E0E0E0"/>
<path id="Vector_13" d="M161.076 0.000244141H36.0359V105.111H161.076V0.000244141Z" fill="#EBEBEB"/>
<path id="Vector_14" d="M36.2793 7.25326C36.2793 7.19471 64.1654 7.14453 98.5547 7.14453C132.944 7.14453 160.847 7.20726 160.847 7.25326C160.847 7.29926 132.969 7.36199 98.5672 7.36199C64.1654 7.36199 36.2793 7.32435 36.2793 7.25326Z" fill="#E0E0E0"/>
<path id="Vector_15" d="M40.0836 4.84315C40.8227 4.84315 41.4219 4.24401 41.4219 3.50495C41.4219 2.76588 40.8227 2.16675 40.0836 2.16675C39.3445 2.16675 38.7454 2.76588 38.7454 3.50495C38.7454 4.24401 39.3445 4.84315 40.0836 4.84315Z" fill="#E0E0E0"/>
<path id="Vector_16" d="M43.8029 4.84315C44.542 4.84315 45.1411 4.24401 45.1411 3.50495C45.1411 2.76588 44.542 2.16675 43.8029 2.16675C43.0638 2.16675 42.4646 2.76588 42.4646 3.50495C42.4646 4.24401 43.0638 4.84315 43.8029 4.84315Z" fill="#E0E0E0"/>
<path id="Vector_17" d="M47.9308 4.84315C48.6699 4.84315 49.2691 4.24401 49.2691 3.50495C49.2691 2.76588 48.6699 2.16675 47.9308 2.16675C47.1917 2.16675 46.5925 2.76588 46.5925 3.50495C46.5925 4.24401 47.1917 4.84315 47.9308 4.84315Z" fill="#E0E0E0"/>
</g>
<g id="Floor">
<path id="Vector_18" d="M183.282 163.89C183.282 163.953 142.469 163.999 92.1379 163.999C41.8065 163.999 0.968506 163.953 0.968506 163.89C0.968506 163.828 41.7731 163.782 92.1379 163.782C142.503 163.782 183.282 163.832 183.282 163.89Z" fill="#263238"/>
</g>
<g id="Screen">
<path id="Vector_19" d="M156.246 116.273C156.246 115.508 156.208 73.3967 156.154 8.42364L156.246 8.5031H27.9566L28.0653 8.39437C28.0653 47.4778 28.0653 84.3406 28.0653 116.244L27.9649 116.148L156.267 116.244L27.9649 116.34H27.8562V116.244C27.8562 84.3406 27.8562 47.4778 27.8562 8.39437V8.28564H27.9775H156.267H156.359V8.37764C156.3 73.3967 156.246 115.508 156.246 116.273Z" fill="#FAFAFA"/>
<path id="Vector_20" d="M156.264 8.42944H27.9619V116.279H156.264V8.42944Z" fill="#FAFAFA"/>
<path id="Vector_21" d="M156.246 116.273C156.246 115.508 156.208 73.3967 156.154 8.42364L156.246 8.5031H27.9566L28.0653 8.39437C28.0653 47.4778 28.0653 84.3406 28.0653 116.244L27.9649 116.148L156.267 116.244L27.9649 116.34H27.8562V116.244C27.8562 84.3406 27.8562 47.4778 27.8562 8.39437V8.28564H27.9775H156.267H156.359V8.37764C156.3 73.3967 156.246 115.508 156.246 116.273Z" fill="#939393"/>
<path id="Vector_22" d="M28.2129 15.8763C28.2129 15.8136 56.8225 15.7676 92.1109 15.7676C127.399 15.7676 156.017 15.8136 156.017 15.8763C156.017 15.939 127.412 15.985 92.1109 15.985C56.81 15.985 28.2129 15.9349 28.2129 15.8763Z" fill="#939393"/>
<g id="Group 1372">
<path id="Vector_23" d="M32.1188 13.3795C32.8764 13.3795 33.4905 12.7654 33.4905 12.0079C33.4905 11.2503 32.8764 10.6362 32.1188 10.6362C31.3612 10.6362 30.7471 11.2503 30.7471 12.0079C30.7471 12.7654 31.3612 13.3795 32.1188 13.3795Z" fill="#939393"/>
<path id="Vector_24" d="M35.933 13.3795C36.6906 13.3795 37.3047 12.7654 37.3047 12.0079C37.3047 11.2503 36.6906 10.6362 35.933 10.6362C35.1754 10.6362 34.5613 11.2503 34.5613 12.0079C34.5613 12.7654 35.1754 13.3795 35.933 13.3795Z" fill="#939393"/>
<path id="Vector_25" d="M41.1352 11.0383C41.3269 11.2301 41.4575 11.4745 41.5104 11.7406C41.5632 12.0066 41.536 12.2824 41.4322 12.533C41.3283 12.7836 41.1525 12.9978 40.9269 13.1484C40.7014 13.2991 40.4362 13.3795 40.1649 13.3795C39.8937 13.3795 39.6285 13.2991 39.4029 13.1484C39.1774 12.9978 39.0016 12.7836 38.8977 12.533C38.7939 12.2824 38.7666 12.0066 38.8195 11.7406C38.8724 11.4745 39.0029 11.2301 39.1947 11.0383C39.3221 10.9108 39.4733 10.8097 39.6398 10.7407C39.8063 10.6717 39.9847 10.6362 40.1649 10.6362C40.3451 10.6362 40.5236 10.6717 40.6901 10.7407C40.8565 10.8097 41.0078 10.9108 41.1352 11.0383Z" fill="#939393"/>
</g>
<path id="Vector_26" d="M92.9996 36.6665C80.1196 36.6665 69.6663 47.1198 69.6663 59.9998C69.6663 72.8798 80.1196 83.3332 92.9996 83.3332C105.88 83.3332 116.333 72.8798 116.333 59.9998C116.333 47.1198 105.88 36.6665 92.9996 36.6665ZM74.3329 59.9998C74.3329 49.6865 82.6863 41.3332 92.9996 41.3332C97.3163 41.3332 101.283 42.8032 104.433 45.2765L78.2763 71.4332C75.8029 68.2832 74.3329 64.3165 74.3329 59.9998ZM92.9996 78.6665C88.6829 78.6665 84.7163 77.1965 81.5663 74.7232L107.723 48.5665C110.196 51.7165 111.666 55.6832 111.666 59.9998C111.666 70.3132 103.313 78.6665 92.9996 78.6665Z" fill="#B3B3B3"/>
</g>
<g id="Character">
<path id="Vector_27" d="M28.7464 72.3176C34.1831 65.1415 39.9377 66.1535 43.9232 67.889C45.911 68.7945 47.5825 70.2739 48.7227 72.137C49.863 74 50.4199 76.1616 50.3218 78.3437C50.2549 79.4895 50.0081 80.6939 50.4765 81.7435C51.2251 83.4163 53.404 83.9056 54.6586 85.2521C56.3858 87.0963 56.0052 90.0111 55.4197 92.47C54.8342 94.929 54.2236 97.7308 55.6665 99.8008C56.9922 101.695 59.514 102.205 61.5967 103.217C62.9785 103.877 64.2055 104.821 65.1971 105.988C66.1888 107.155 66.9228 108.518 67.3512 109.988C67.7558 111.467 67.7877 113.023 67.4439 114.518C67.1002 116.012 66.3916 117.399 65.3814 118.552C63.3573 120.752 60.3211 121.731 57.3644 122.166C53.0412 122.803 48.6303 122.474 44.4497 121.202C40.2691 119.929 36.423 117.745 33.1887 114.806C29.9543 111.868 27.4123 108.248 25.746 104.208C24.0796 100.169 23.3304 95.8096 23.5523 91.4455" fill="#263238"/>
<path id="Vector_28" d="M44.2077 68.2006C43.5607 68.197 42.914 68.2333 42.2714 68.3094C40.7351 68.6074 39.229 69.0441 37.7715 69.6141C36.036 70.2205 34.3589 70.5592 33.1378 70.4798C32.6575 70.462 32.1813 70.3848 31.72 70.2498C31.5474 70.2068 31.3815 70.1407 31.2266 70.0532C31.8541 70.2096 32.4958 70.3021 33.142 70.3292C34.704 70.2831 36.2468 69.972 37.7046 69.4092C39.4318 68.8028 41.0503 68.2801 42.2505 68.1546C42.7278 68.0967 43.2095 68.0841 43.6892 68.117C43.865 68.1218 44.0393 68.1499 44.2077 68.2006Z" fill="#455A64"/>
<path id="Vector_29" d="M56.7381 125.271C56.9473 125.898 61.2841 146.389 61.2841 146.389L94.2765 159.073L92.4197 163.886L64.1321 161.398C47.6212 158.935 46.7053 150.834 47.7007 141.781L49.4111 126.262L56.7381 125.271Z" fill="#FFBE9D"/>
<path id="Vector_30" d="M9.31567 114.221C12.7157 109.073 17.8764 106.104 22.6021 104.46L39.9578 105.715C41.8986 105.547 43.8525 105.81 45.6801 106.484C47.5076 107.159 49.1637 108.228 50.5301 109.617L52.1444 152.619L56.1299 163.91H14.8402L9.31567 114.221Z" fill="#F1F1F1"/>
<path id="Vector_31" d="M50.5302 109.603L60.7763 128.028L49.4094 131.52L50.5302 109.603Z" fill="#F1F1F1"/>
<path id="Vector_32" d="M51.9074 152.747C51.8872 152.641 51.876 152.533 51.8739 152.425C51.8739 152.195 51.8446 151.89 51.8195 151.505C51.7819 150.669 51.7317 149.523 51.6648 148.101C51.5477 145.233 51.4013 141.264 51.2717 136.881C51.142 132.499 51.0626 128.518 51.0375 125.649C51.0375 124.21 51.0375 123.048 51.0375 122.245C51.0375 121.86 51.0375 121.551 51.0375 121.321C51.0353 121.213 51.0423 121.105 51.0584 120.999C51.0777 121.105 51.0861 121.213 51.0835 121.321L51.1086 122.245C51.1086 123.081 51.1504 124.227 51.1839 125.645C51.2591 128.538 51.3637 132.499 51.4808 136.873C51.5979 141.247 51.7275 145.203 51.8112 148.097C51.8446 149.515 51.8739 150.673 51.8948 151.501C51.8948 151.886 51.8948 152.195 51.8948 152.425C51.91 152.532 51.9142 152.64 51.9074 152.747Z" fill="#263238"/>
<path id="Vector_33" d="M21.9105 118.987C20.6559 112.56 11.5598 112.321 9.96648 118.673C9.94138 118.77 9.91629 118.87 9.89538 118.97C7.54923 128.978 15.4743 158.548 17.603 160.254C19.7316 161.96 21.8436 163.892 25.482 162.382C27.6107 161.5 49.713 141.967 49.713 141.967C49.713 141.967 54.8235 146.864 56.5298 146.437C58.236 146.01 61.4897 141.001 61.4897 141.001C61.4897 141.001 64.6513 145.739 65.0486 145.81C65.2644 145.845 65.4858 145.82 65.6883 145.738C65.8908 145.655 66.0667 145.518 66.1964 145.342C66.3262 145.166 66.4048 144.958 66.4236 144.74C66.4425 144.522 66.4008 144.303 66.3033 144.108C65.8851 143.468 61.8535 134.657 61.8535 134.657C61.8535 134.657 65.0277 134.314 64.3879 133.247C64.3879 133.247 64.3084 132.269 62.163 132.457C60.0176 132.645 60.0594 130.195 56.0655 130.429C52.0717 130.663 43.8246 131.683 32.2277 140.582L26.8537 144.371L21.9105 118.987Z" fill="#FFBE9D"/>
<path id="Vector_34" d="M32.2142 140.578L32.348 140.469L32.7662 140.164L34.3345 138.989C36.3271 137.563 38.4023 136.256 40.5491 135.075C43.8327 133.256 47.3506 131.896 51.0043 131.035C52.0581 130.813 53.1497 130.617 54.283 130.487C54.8518 130.424 55.4247 130.374 56.0102 130.332C56.6065 130.288 57.206 130.315 57.796 130.412C58.4043 130.519 58.9856 130.745 59.5064 131.077C60.0376 131.399 60.485 131.846 61.0203 132.122C61.2794 132.257 61.565 132.333 61.8568 132.344C62.1537 132.344 62.4799 132.306 62.8061 132.319C63.138 132.319 63.4675 132.375 63.7805 132.486C63.9543 132.535 64.1122 132.629 64.2384 132.758C64.3646 132.887 64.4547 133.047 64.4998 133.222V133.18C64.585 133.314 64.615 133.476 64.5835 133.632C64.5373 133.781 64.445 133.911 64.32 134.004C64.0896 134.174 63.8323 134.304 63.5589 134.389C63.0141 134.561 62.4539 134.68 61.886 134.744L61.9739 134.598L64.8093 140.733C65.307 141.778 65.8005 142.853 66.34 143.894C66.4269 144.024 66.4958 144.164 66.5449 144.312C66.5741 144.473 66.5741 144.637 66.5449 144.797C66.4911 145.124 66.322 145.421 66.0681 145.634C65.9423 145.74 65.7963 145.82 65.6389 145.868C65.4815 145.916 65.3159 145.932 65.1522 145.914H65.031C65.0004 145.909 64.9708 145.899 64.9431 145.885L64.8846 145.843C64.822 145.79 64.7633 145.733 64.7089 145.671C64.6044 145.558 64.504 145.441 64.412 145.32C63.3205 143.923 62.3544 142.476 61.3925 141.055H61.5724C60.8161 142.207 59.9951 143.316 59.1133 144.375C58.6815 144.899 58.2103 145.39 57.7039 145.843C57.5743 145.952 57.4363 146.052 57.3067 146.161C57.1638 146.256 57.0158 146.344 56.8634 146.424C56.7063 146.509 56.5334 146.56 56.3556 146.574C56.1778 146.588 55.999 146.566 55.8304 146.508C55.1966 146.306 54.5962 146.012 54.0488 145.634C53.501 145.278 52.9824 144.898 52.4763 144.505C51.4727 143.714 50.5317 142.89 49.6367 142.046H49.7705C42.7614 148.21 36.7601 153.387 32.4693 156.975C30.3239 158.769 28.605 160.162 27.4006 161.082C26.7984 161.542 26.3258 161.885 25.9954 162.098C25.8321 162.213 25.6568 162.309 25.4727 162.386C25.4727 162.386 25.6567 162.294 25.9787 162.069C26.3007 161.843 26.7691 161.5 27.363 161.031C28.5507 160.099 30.257 158.69 32.3815 156.883C36.6514 153.27 42.6359 148.072 49.6325 141.895L49.6994 141.837L49.7664 141.899C50.653 142.736 51.5981 143.572 52.5976 144.337C53.0953 144.726 53.6139 145.107 54.1534 145.454C54.682 145.816 55.2612 146.098 55.8722 146.29C56.4995 146.524 57.0599 146.081 57.545 145.667C58.0409 145.221 58.5036 144.738 58.9293 144.224C59.8045 143.171 60.6199 142.07 61.3716 140.925L61.4595 140.787L61.5515 140.921C62.5092 142.338 63.4836 143.79 64.5584 145.174C64.6532 145.291 64.7494 145.404 64.8469 145.512C64.8971 145.563 64.9473 145.617 64.9975 145.659L65.031 145.684C65.031 145.684 65.031 145.684 65.031 145.722C65.031 145.759 65.031 145.788 65.031 145.688H65.1313C65.2672 145.704 65.4048 145.692 65.5358 145.652C65.6667 145.612 65.7881 145.546 65.8925 145.458C66.11 145.288 66.2533 145.04 66.2923 144.766C66.3312 144.493 66.2629 144.215 66.1016 143.99C65.5454 142.924 65.0602 141.862 64.5626 140.812L61.7313 134.669L61.6727 134.539H61.8149C62.3671 134.476 62.9119 134.36 63.4418 134.192C63.6922 134.118 63.9284 134.002 64.1402 133.849C64.2298 133.783 64.2969 133.691 64.3326 133.586C64.3508 133.483 64.3299 133.377 64.274 133.289V133.26C64.2301 133.124 64.1532 133.002 64.0503 132.903C63.9474 132.805 63.8216 132.733 63.6843 132.695C63.3939 132.594 63.0885 132.543 62.781 132.544C62.4673 132.544 62.1662 132.574 61.8317 132.57C61.502 132.557 61.1792 132.471 60.8865 132.319C60.3094 132.022 59.8703 131.574 59.3601 131.261C58.8599 130.944 58.3032 130.727 57.7207 130.621C56.5622 130.412 55.3871 130.592 54.2621 130.692C53.1371 130.792 52.0498 131.01 51.0001 131.227C47.3504 132.073 43.8329 133.413 40.5449 135.208C38.3969 136.378 36.3152 137.665 34.3094 139.064L32.7286 140.214L32.3104 140.507L32.2142 140.578Z" fill="#EB996E"/>
<path id="Vector_35" d="M24.864 151.561C24.864 151.561 24.818 151.453 24.7762 151.252C24.7187 150.964 24.6838 150.671 24.6716 150.378C24.5632 148.422 25.1026 146.485 26.2064 144.866C26.3716 144.623 26.5533 144.391 26.7501 144.172C26.8923 144.021 26.9759 143.942 26.9843 143.95C26.9927 143.959 26.7208 144.327 26.3361 144.95C25.3251 146.581 24.8 148.467 24.8222 150.386C24.8305 151.101 24.9016 151.557 24.864 151.561Z" fill="#EB996E"/>
<path id="Vector_36" d="M15.7277 107.862C15.5228 108 8.16232 110.2 7.00388 117.744C5.84544 125.288 6.52712 138.428 6.52712 138.428L26.4924 137.056L20.7671 110.535L15.7277 107.862Z" fill="#F1F1F1"/>
<path id="Vector_37" d="M58.1497 145.394C58.1162 145.394 58.1706 145.122 58.1497 144.708C58.1286 144.166 57.9857 143.636 57.7315 143.157C57.4761 142.677 57.1176 142.26 56.6818 141.936C56.3472 141.693 56.1005 141.593 56.113 141.555C56.35 141.583 56.5759 141.671 56.7696 141.81C57.2589 142.119 57.6573 142.552 57.9238 143.065C58.1979 143.578 58.3266 144.157 58.296 144.738C58.301 144.965 58.2508 145.19 58.1497 145.394Z" fill="#EB996E"/>
<path id="Vector_38" d="M59.9857 143.15C59.8903 142.504 59.6591 141.885 59.3073 141.334C58.9556 140.784 58.4912 140.314 57.9448 139.955C58.1422 139.989 58.3278 140.073 58.4843 140.198C58.887 140.464 59.229 140.811 59.488 141.218C59.7506 141.624 59.9231 142.082 59.994 142.561C60.0426 142.755 60.0397 142.958 59.9857 143.15Z" fill="#EB996E"/>
<path id="Vector_39" d="M59.9866 138.388C59.9866 138.367 60.1748 138.451 60.4048 138.656C60.7011 138.928 60.938 139.259 61.1007 139.628C61.2633 139.996 61.3481 140.394 61.3499 140.797C61.3499 141.102 61.2956 141.286 61.2705 141.282C61.21 140.746 61.0851 140.219 60.8983 139.714C60.6471 139.238 60.3411 138.793 59.9866 138.388Z" fill="#EB996E"/>
<path id="Vector_40" d="M25.0264 126.494C25.0478 126.559 25.0632 126.626 25.0724 126.694C25.0975 126.845 25.1309 127.037 25.1686 127.276C25.2522 127.811 25.3651 128.53 25.5032 129.463C25.775 131.357 26.1556 133.988 26.5947 137.04V137.153H26.4859L21.8187 137.479L10.9955 138.19L7.71676 138.383L6.8218 138.425H6.52905C6.63006 138.397 6.73393 138.382 6.83853 138.379L7.72513 138.299L11.0039 138.04L21.8229 137.262L26.4859 136.948L26.3898 137.065C25.9715 134.008 25.6286 131.374 25.3777 129.48C25.2606 128.559 25.1686 127.807 25.1017 127.284C25.0724 127.041 25.0515 126.866 25.0348 126.694C25.0223 126.628 25.0195 126.561 25.0264 126.494Z" fill="#263238"/>
<g id="Group" opacity="0.2">
<path id="Vector_41" d="M15.3423 107.658C15.1415 108.365 15.7019 109.026 16.0658 109.661C16.7684 110.882 16.806 112.359 16.8687 113.768C16.9156 116.358 17.3137 118.93 18.0523 121.412C18.8552 123.863 20.2353 126.184 22.2762 127.765C24.317 129.345 27.0563 130.119 29.553 129.471C32.0497 128.823 34.1533 126.606 34.3666 124.034C34.5798 121.463 33.0283 119.171 32.1417 116.771C31.4558 114.922 31.1505 112.957 30.7574 111.02C30.3643 109.084 29.8625 107.14 28.8379 105.454C27.8132 103.769 26.1864 102.36 24.2376 102.004C22.2887 101.649 20.0806 102.569 19.2943 104.375" fill="black"/>
</g>
<path id="Vector_42" d="M24.9865 73.8848V76.1053L24.8401 109.397C24.8401 113.261 28.1356 116.356 32.2716 116.343C36.4537 116.343 39.9039 113.157 39.9834 109.234C40.0712 105.136 40.2343 100.824 40.2343 100.824C40.2343 100.824 45.5288 100.042 46.7458 93.1716C47.3522 89.7592 47.2769 84.1387 47.072 79.5428C47.0284 78.5622 46.7867 77.6005 46.3614 76.7158C45.9362 75.831 45.3362 75.0416 44.5977 74.3949C43.8591 73.7482 42.9973 73.2577 42.0642 72.953C41.131 72.6483 40.1458 72.5356 39.1679 72.6218L24.9865 73.8848Z" fill="#FFBE9D"/>
<path id="Vector_43" d="M45.457 83.7653C45.4548 83.9961 45.3628 84.217 45.2003 84.381C45.0379 84.545 44.8179 84.6392 44.5871 84.6435C44.4742 84.6515 44.3608 84.6364 44.2539 84.5993C44.1469 84.5621 44.0487 84.5037 43.965 84.4274C43.8813 84.3512 43.814 84.2587 43.7671 84.1557C43.7202 84.0527 43.6947 83.9412 43.6921 83.828C43.6943 83.5983 43.7859 83.3785 43.9476 83.2153C44.1092 83.0521 44.3281 82.9584 44.5578 82.954C44.6707 82.9455 44.7842 82.96 44.8914 82.9966C44.9985 83.0332 45.0971 83.0912 45.1812 83.1671C45.2653 83.2429 45.3331 83.3351 45.3805 83.4379C45.4279 83.5407 45.4539 83.6521 45.457 83.7653Z" fill="#263238"/>
<path id="Vector_44" d="M45.8066 82.4729C45.6937 82.5859 45.0371 82.0757 44.0836 82.0548C43.1301 82.0338 42.4108 82.5022 42.3271 82.3851C42.277 82.3308 42.3941 82.1258 42.6993 81.9126C43.1144 81.6305 43.6069 81.4844 44.1087 81.4944C44.6024 81.503 45.0809 81.6669 45.4762 81.9628C45.7648 82.2095 45.861 82.4186 45.8066 82.4729Z" fill="#263238"/>
<path id="Vector_45" d="M36.454 83.5998C36.4519 83.8302 36.3597 84.0507 36.1971 84.214C36.0346 84.3773 35.8146 84.4706 35.5842 84.4738C35.4716 84.4818 35.3586 84.4668 35.2519 84.43C35.1452 84.3931 35.0472 84.335 34.9635 84.2592C34.8799 84.1834 34.8125 84.0915 34.7654 83.9889C34.7182 83.8864 34.6923 83.7754 34.6892 83.6625C34.6913 83.4324 34.7828 83.2122 34.9444 83.0483C35.1059 82.8844 35.3248 82.7898 35.5549 82.7844C35.6682 82.7758 35.782 82.7904 35.8894 82.8273C35.9968 82.8642 36.0956 82.9225 36.1798 82.9988C36.2639 83.0751 36.3316 83.1678 36.3788 83.2711C36.4259 83.3744 36.4515 83.4863 36.454 83.5998Z" fill="#263238"/>
<path id="Vector_46" d="M36.4573 82.4804C36.3443 82.5933 35.6836 82.0873 34.7342 82.0622C33.7849 82.0371 33.0614 82.5096 32.9778 82.3925C32.9276 82.3382 33.0447 82.1333 33.35 81.9158C33.766 81.6357 34.2579 81.4898 34.7593 81.4976C35.2549 81.503 35.7357 81.6672 36.1311 81.966C36.4154 82.2211 36.5116 82.4302 36.4573 82.4804Z" fill="#263238"/>
<path id="Vector_47" d="M39.7831 89.5844C40.2863 89.4355 40.8061 89.3498 41.3305 89.3293C41.5772 89.3293 41.8072 89.2665 41.849 89.1034C41.8739 88.8531 41.8229 88.601 41.7027 88.38C41.481 87.7862 41.2552 87.1672 41.0168 86.519C40.0675 83.8677 39.3816 81.6932 39.4903 81.6555C39.5991 81.6179 40.4522 83.7465 41.4016 86.3852L42.0581 88.2545C42.2055 88.5511 42.2439 88.8901 42.1669 89.2122C42.1284 89.2982 42.0707 89.3743 41.9982 89.4344C41.9257 89.4946 41.8403 89.5373 41.7487 89.5593C41.6114 89.5908 41.4712 89.6076 41.3305 89.6094C40.8155 89.6624 40.2961 89.654 39.7831 89.5844Z" fill="#263238"/>
<path id="Vector_48" d="M40.2377 100.852C36.9864 100.848 33.8005 99.9388 31.0371 98.2258C31.0371 98.2258 33.1909 102.997 40.0955 102.475L40.2377 100.852Z" fill="#EB996E"/>
<path id="Vector_49" d="M36.9713 90.2023C37.126 90.2023 37.1093 91.2269 37.9833 91.9755C38.8574 92.724 39.9531 92.6278 39.9573 92.7742C39.9573 92.8369 39.7105 92.9707 39.2463 92.9749C38.6407 92.9736 38.0553 92.7572 37.5944 92.3644C37.1508 91.9904 36.8715 91.4574 36.8165 90.8798C36.7831 90.47 36.9043 90.194 36.9713 90.2023Z" fill="#263238"/>
<path id="Vector_50" d="M36.7715 78.752C36.6712 79.0071 35.726 78.8691 34.6094 78.982C33.4928 79.0949 32.5811 79.4002 32.4389 79.1493C32.3762 79.0364 32.5351 78.798 32.9031 78.5554C33.3903 78.2498 33.9441 78.0662 34.5174 78.0202C35.0853 77.9652 35.6582 78.044 36.1902 78.2502C36.6084 78.4258 36.8133 78.6307 36.7715 78.752Z" fill="#263238"/>
<path id="Vector_51" d="M45.5049 79.7069C45.3334 79.9202 44.6685 79.686 43.8948 79.6609C43.1211 79.6358 42.4394 79.778 42.2889 79.5522C42.2261 79.4393 42.3349 79.226 42.6276 79.0253C43.0237 78.7866 43.482 78.6715 43.9438 78.6946C44.4057 78.7176 44.8502 78.8779 45.2205 79.1549C45.4923 79.3807 45.5802 79.5898 45.5049 79.7069Z" fill="#263238"/>
<path id="Vector_52" d="M33.6219 71.6364C35.4871 74.0661 33.6219 77.5454 31.5058 79.7785C29.3896 82.0117 26.8511 84.5961 27.4575 87.5945C28.1643 91.0738 32.9528 93.2609 32.2795 96.7444C32.0327 97.999 31.0248 99.1072 31.0499 100.404C31.0499 102.741 34.1028 103.849 34.9936 106.007C36.2148 108.972 32.9653 111.971 32.9444 115.174C32.9444 116.993 33.9816 118.678 34.0568 120.497C34.2032 124.224 29.8246 126.992 26.2029 126.114C22.5812 125.236 20.0678 121.706 19.2481 118.055C18.4284 114.404 18.9679 110.628 19.5158 106.944C19.1686 108.516 16.7849 108.834 15.6097 107.734C14.4345 106.635 14.2756 104.807 14.5224 103.222C15.1413 99.2284 17.7258 95.8286 18.9344 91.9771C19.9925 88.6065 19.9632 85.0101 20.4065 81.5224C20.8498 78.0347 21.8954 74.363 24.5468 72.0295C27.1982 69.696 31.8153 69.3657 34.0025 72.1383" fill="#263238"/>
<path id="Vector_53" d="M24.181 124.758C24.2078 124.71 24.2371 124.664 24.2688 124.62C24.3315 124.523 24.4193 124.39 24.5322 124.226C25.3691 122.898 25.8368 121.371 25.8872 119.802C25.9384 118.536 25.707 117.275 25.2097 116.109C24.6619 114.813 23.6958 113.6 22.6754 112.279C22.1367 111.604 21.6435 110.895 21.1991 110.154C20.7366 109.366 20.4061 108.507 20.2205 107.612C20.0167 106.649 20.0981 105.648 20.4547 104.731C20.6534 104.264 20.937 103.839 21.2911 103.476C21.6585 103.121 22.0543 102.796 22.4747 102.506C23.3111 101.912 24.1475 101.314 24.6201 100.386C25.0416 99.4238 25.1097 98.3441 24.8124 97.337C24.3106 95.2461 22.8552 93.6151 21.9226 91.796C21.4272 90.9072 21.1318 89.9211 21.0569 88.9063C21.0146 87.9295 21.1993 86.9561 21.5964 86.0627C22.3621 84.451 23.4678 83.0243 24.8375 81.8808C26.0922 80.7642 27.305 79.8149 28.3128 78.828C29.244 77.9682 30.0194 76.9538 30.6046 75.8296C31.0433 74.9783 31.3105 74.049 31.3909 73.0947C31.4381 72.4921 31.3772 71.8859 31.211 71.3048C31.0939 70.8866 30.9936 70.711 31.0103 70.7026C31.11 70.8909 31.1912 71.0884 31.2529 71.2923C31.4396 71.8752 31.5148 72.4881 31.4745 73.0988C31.4126 74.068 31.1536 75.0142 30.7134 75.8798C30.1325 77.0239 29.357 78.0583 28.4216 78.9367C27.4137 79.9404 26.1884 80.898 24.9588 82.0146C23.6145 83.1539 22.5306 84.5686 21.7804 86.163C21.3996 87.0286 21.2222 87.9699 21.2619 88.9147C21.3363 89.8979 21.6215 90.8535 22.0983 91.7166C22.5667 92.6115 23.148 93.4688 23.7 94.3679C24.2881 95.269 24.7313 96.2567 25.0132 97.2952C25.3227 98.3529 25.2487 99.4859 24.8041 100.494C24.3148 101.485 23.3989 102.104 22.5876 102.69C22.1764 102.973 21.789 103.289 21.4291 103.635C21.0893 103.977 20.8144 104.378 20.6178 104.818C20.2775 105.699 20.1991 106.659 20.392 107.583C20.5706 108.464 20.8897 109.311 21.3371 110.092C21.7776 110.82 22.2652 111.518 22.7967 112.183C23.8046 113.496 24.7748 114.738 25.3268 116.063C25.8265 117.253 26.0509 118.539 25.9834 119.827C25.9207 121.412 25.423 122.948 24.5448 124.268C24.4235 124.44 24.3231 124.561 24.2604 124.649C24.2369 124.687 24.2103 124.724 24.181 124.758Z" fill="#455A64"/>
<path id="Vector_54" d="M75.464 132.656L59.6139 160.331L37.1687 161.109V163.577H102.74L120.584 134.345C120.73 134.093 120.807 133.808 120.809 133.517C120.81 133.226 120.736 132.939 120.592 132.686C120.449 132.432 120.242 132.221 119.992 132.072C119.742 131.923 119.458 131.842 119.167 131.836H76.9026C76.6123 131.836 76.327 131.912 76.0748 132.056C75.8226 132.199 75.6121 132.406 75.464 132.656Z" fill="#263238"/>
<path id="Vector_55" d="M95.318 147.432C94.3226 148.979 92.8087 149.77 91.897 149.193C90.9853 148.616 91.0815 146.897 92.0769 145.35C93.0722 143.802 94.5861 143.012 95.4978 143.589C96.4095 144.166 96.3133 145.885 95.318 147.432Z" fill="#E0E0E0"/>
</g>
</g>
</g>
</svg>
