<svg width="75" height="44" viewBox="0 0 75 44" fill="none" xmlns="http://www.w3.org/2000/svg">
<rect x="25.5" width="24" height="24" rx="12" fill="#E4F8EA"/>
<path d="M42.6933 13.9534C41.3199 15.32 39.3533 15.74 37.6266 15.2L34.4866 18.3334C34.2599 18.5667 33.8133 18.7067 33.4933 18.66L32.0399 18.46C31.5599 18.3934 31.1133 17.94 31.0399 17.46L30.8399 16.0067C30.7933 15.6867 30.9466 15.24 31.1666 15.0134L34.2999 11.88C33.7666 10.1467 34.1799 8.18005 35.5533 6.81338C37.5199 4.84671 40.7133 4.84671 42.6866 6.81338C44.6599 8.78005 44.6599 11.9867 42.6933 13.9534Z" stroke="#00902B" stroke-miterlimit="10" stroke-linecap="round" stroke-linejoin="round"/>
<path d="M34.0933 15.6602L35.6266 17.1935" stroke="#00902B" stroke-miterlimit="10" stroke-linecap="round" stroke-linejoin="round"/>
<path d="M39.1667 11.3335C39.719 11.3335 40.1667 10.8858 40.1667 10.3335C40.1667 9.78121 39.719 9.3335 39.1667 9.3335C38.6145 9.3335 38.1667 9.78121 38.1667 10.3335C38.1667 10.8858 38.6145 11.3335 39.1667 11.3335Z" stroke="#00902B" stroke-linecap="round" stroke-linejoin="round"/>
<path d="M6.09375 38.7207C6.09375 39.2285 5.9668 39.6621 5.71289 40.0215C5.46289 40.377 5.11133 40.6484 4.6582 40.8359C4.20508 41.0234 3.67188 41.1172 3.05859 41.1172C2.73438 41.1172 2.42773 41.1016 2.13867 41.0703C1.84961 41.0391 1.58398 40.9941 1.3418 40.9355C1.09961 40.877 0.886719 40.8047 0.703125 40.7188V39.7637C0.996094 39.8848 1.35352 39.998 1.77539 40.1035C2.19727 40.2051 2.63867 40.2559 3.09961 40.2559C3.5293 40.2559 3.89258 40.1992 4.18945 40.0859C4.48633 39.9688 4.71094 39.8027 4.86328 39.5879C5.01953 39.3691 5.09766 39.1074 5.09766 38.8027C5.09766 38.5098 5.0332 38.2656 4.9043 38.0703C4.77539 37.8711 4.56055 37.6914 4.25977 37.5312C3.96289 37.3672 3.55664 37.1934 3.04102 37.0098C2.67773 36.8809 2.35742 36.7402 2.08008 36.5879C1.80273 36.4316 1.57031 36.2559 1.38281 36.0605C1.19531 35.8652 1.05273 35.6387 0.955078 35.3809C0.861328 35.123 0.814453 34.8281 0.814453 34.4961C0.814453 34.0391 0.929688 33.6484 1.16016 33.3242C1.39453 32.9961 1.7168 32.7461 2.12695 32.5742C2.54102 32.3984 3.01562 32.3105 3.55078 32.3105C4.00781 32.3105 4.42969 32.3535 4.81641 32.4395C5.20703 32.5254 5.56445 32.6406 5.88867 32.7852L5.57812 33.6406C5.26953 33.5117 4.94141 33.4043 4.59375 33.3184C4.25 33.2324 3.89453 33.1895 3.52734 33.1895C3.16016 33.1895 2.84961 33.2441 2.5957 33.3535C2.3457 33.459 2.1543 33.6094 2.02148 33.8047C1.88867 34 1.82227 34.2324 1.82227 34.502C1.82227 34.8027 1.88477 35.0527 2.00977 35.252C2.13867 35.4512 2.3418 35.6289 2.61914 35.7852C2.90039 35.9375 3.27148 36.0977 3.73242 36.2656C4.23633 36.4492 4.66406 36.6445 5.01562 36.8516C5.36719 37.0547 5.63477 37.3047 5.81836 37.6016C6.00195 37.8945 6.09375 38.2676 6.09375 38.7207ZM10.1719 34.4609C10.7188 34.4609 11.1875 34.582 11.5781 34.8242C11.9688 35.0664 12.2676 35.4062 12.4746 35.8438C12.6816 36.2773 12.7852 36.7852 12.7852 37.3672V37.9707H8.34961C8.36133 38.7246 8.54883 39.2988 8.91211 39.6934C9.27539 40.0879 9.78711 40.2852 10.4473 40.2852C10.8535 40.2852 11.2129 40.248 11.5254 40.1738C11.8379 40.0996 12.1621 39.9902 12.498 39.8457V40.7012C12.1738 40.8457 11.8516 40.9512 11.5312 41.0176C11.2148 41.084 10.8398 41.1172 10.4062 41.1172C9.78906 41.1172 9.25 40.9922 8.78906 40.7422C8.33203 40.4883 7.97656 40.1172 7.72266 39.6289C7.46875 39.1406 7.3418 38.543 7.3418 37.8359C7.3418 37.1445 7.45703 36.5469 7.6875 36.043C7.92188 35.5352 8.25 35.1445 8.67188 34.8711C9.09766 34.5977 9.59766 34.4609 10.1719 34.4609ZM10.1602 35.2578C9.64062 35.2578 9.22656 35.4277 8.91797 35.7676C8.60938 36.1074 8.42578 36.582 8.36719 37.1914H11.7656C11.7617 36.8086 11.7012 36.4727 11.584 36.1836C11.4707 35.8906 11.2969 35.6641 11.0625 35.5039C10.8281 35.3398 10.5273 35.2578 10.1602 35.2578ZM16.5117 40.3203C16.6719 40.3203 16.8359 40.3066 17.0039 40.2793C17.1719 40.252 17.3086 40.2188 17.4141 40.1797V40.9355C17.3008 40.9863 17.1426 41.0293 16.9395 41.0645C16.7402 41.0996 16.5449 41.1172 16.3535 41.1172C16.0137 41.1172 15.7051 41.0586 15.4277 40.9414C15.1504 40.8203 14.9277 40.6172 14.7598 40.332C14.5957 40.0469 14.5137 39.6523 14.5137 39.1484V35.3398H13.5996V34.8652L14.5195 34.4844L14.9062 33.0898H15.4922V34.5781H17.373V35.3398H15.4922V39.1191C15.4922 39.5215 15.584 39.8223 15.7676 40.0215C15.9551 40.2207 16.2031 40.3203 16.5117 40.3203ZM24.2168 32.4336C25.3223 32.4336 26.1289 32.6504 26.6367 33.084C27.1484 33.5137 27.4043 34.1309 27.4043 34.9355C27.4043 35.2988 27.3438 35.6445 27.2227 35.9727C27.1055 36.2969 26.9141 36.584 26.6484 36.834C26.3828 37.0801 26.0332 37.2754 25.5996 37.4199C25.1699 37.5605 24.6426 37.6309 24.0176 37.6309H22.9746V41H21.9785V32.4336H24.2168ZM24.123 33.2832H22.9746V36.7754H23.9062C24.4531 36.7754 24.9082 36.7168 25.2715 36.5996C25.6387 36.4824 25.9141 36.293 26.0977 36.0312C26.2812 35.7656 26.373 35.4141 26.373 34.9766C26.373 34.4062 26.1914 33.9824 25.8281 33.7051C25.4648 33.4238 24.8965 33.2832 24.123 33.2832ZM31.4531 34.4727C32.2188 34.4727 32.7871 34.6445 33.1582 34.9883C33.5293 35.332 33.7148 35.8809 33.7148 36.6348V41H33.0059L32.8184 40.0508H32.7715C32.5918 40.2852 32.4043 40.4824 32.209 40.6426C32.0137 40.7988 31.7871 40.918 31.5293 41C31.2754 41.0781 30.9629 41.1172 30.5918 41.1172C30.2012 41.1172 29.8535 41.0488 29.5488 40.9121C29.248 40.7754 29.0098 40.5684 28.834 40.291C28.6621 40.0137 28.5762 39.6621 28.5762 39.2363C28.5762 38.5957 28.8301 38.1035 29.3379 37.7598C29.8457 37.416 30.6191 37.2285 31.6582 37.1973L32.7656 37.1504V36.7578C32.7656 36.2031 32.6465 35.8145 32.4082 35.5918C32.1699 35.3691 31.834 35.2578 31.4004 35.2578C31.0645 35.2578 30.7441 35.3066 30.4395 35.4043C30.1348 35.502 29.8457 35.6172 29.5723 35.75L29.2734 35.0117C29.5625 34.8633 29.8945 34.7363 30.2695 34.6309C30.6445 34.5254 31.0391 34.4727 31.4531 34.4727ZM32.7539 37.8359L31.7754 37.877C30.9746 37.9082 30.4102 38.0391 30.082 38.2695C29.7539 38.5 29.5898 38.8262 29.5898 39.248C29.5898 39.6152 29.7012 39.8867 29.9238 40.0625C30.1465 40.2383 30.4414 40.3262 30.8086 40.3262C31.3789 40.3262 31.8457 40.168 32.209 39.8516C32.5723 39.5352 32.7539 39.0605 32.7539 38.4277V37.8359ZM39.873 39.2422C39.873 39.6523 39.7695 39.998 39.5625 40.2793C39.3594 40.5566 39.0664 40.7656 38.6836 40.9062C38.3047 41.0469 37.8516 41.1172 37.3242 41.1172C36.875 41.1172 36.4863 41.082 36.1582 41.0117C35.8301 40.9414 35.543 40.8418 35.2969 40.7129V39.8164C35.5586 39.9453 35.8711 40.0625 36.2344 40.168C36.5977 40.2734 36.9688 40.3262 37.3477 40.3262C37.9023 40.3262 38.3047 40.2363 38.5547 40.0566C38.8047 39.877 38.9297 39.6328 38.9297 39.3242C38.9297 39.1484 38.8789 38.9941 38.7773 38.8613C38.6797 38.7246 38.5137 38.5938 38.2793 38.4688C38.0449 38.3398 37.7207 38.1992 37.3066 38.0469C36.8965 37.8906 36.541 37.7363 36.2402 37.584C35.9434 37.4277 35.7129 37.2383 35.5488 37.0156C35.3887 36.793 35.3086 36.5039 35.3086 36.1484C35.3086 35.6055 35.5273 35.1895 35.9648 34.9004C36.4062 34.6074 36.9844 34.4609 37.6992 34.4609C38.0859 34.4609 38.4473 34.5 38.7832 34.5781C39.123 34.6523 39.4395 34.7539 39.7324 34.8828L39.4043 35.6621C39.1387 35.5488 38.8555 35.4531 38.5547 35.375C38.2539 35.2969 37.9473 35.2578 37.6348 35.2578C37.1855 35.2578 36.8398 35.332 36.5977 35.4805C36.3594 35.6289 36.2402 35.832 36.2402 36.0898C36.2402 36.2891 36.2949 36.4531 36.4043 36.582C36.5176 36.7109 36.6973 36.832 36.9434 36.9453C37.1895 37.0586 37.5137 37.1914 37.916 37.3438C38.3184 37.4922 38.666 37.6465 38.959 37.8066C39.252 37.9629 39.4766 38.1543 39.6328 38.3809C39.793 38.6035 39.873 38.8906 39.873 39.2422ZM45.5918 39.2422C45.5918 39.6523 45.4883 39.998 45.2812 40.2793C45.0781 40.5566 44.7852 40.7656 44.4023 40.9062C44.0234 41.0469 43.5703 41.1172 43.043 41.1172C42.5938 41.1172 42.2051 41.082 41.877 41.0117C41.5488 40.9414 41.2617 40.8418 41.0156 40.7129V39.8164C41.2773 39.9453 41.5898 40.0625 41.9531 40.168C42.3164 40.2734 42.6875 40.3262 43.0664 40.3262C43.6211 40.3262 44.0234 40.2363 44.2734 40.0566C44.5234 39.877 44.6484 39.6328 44.6484 39.3242C44.6484 39.1484 44.5977 38.9941 44.4961 38.8613C44.3984 38.7246 44.2324 38.5938 43.998 38.4688C43.7637 38.3398 43.4395 38.1992 43.0254 38.0469C42.6152 37.8906 42.2598 37.7363 41.959 37.584C41.6621 37.4277 41.4316 37.2383 41.2676 37.0156C41.1074 36.793 41.0273 36.5039 41.0273 36.1484C41.0273 35.6055 41.2461 35.1895 41.6836 34.9004C42.125 34.6074 42.7031 34.4609 43.418 34.4609C43.8047 34.4609 44.166 34.5 44.502 34.5781C44.8418 34.6523 45.1582 34.7539 45.4512 34.8828L45.123 35.6621C44.8574 35.5488 44.5742 35.4531 44.2734 35.375C43.9727 35.2969 43.666 35.2578 43.3535 35.2578C42.9043 35.2578 42.5586 35.332 42.3164 35.4805C42.0781 35.6289 41.959 35.832 41.959 36.0898C41.959 36.2891 42.0137 36.4531 42.123 36.582C42.2363 36.7109 42.416 36.832 42.6621 36.9453C42.9082 37.0586 43.2324 37.1914 43.6348 37.3438C44.0371 37.4922 44.3848 37.6465 44.6777 37.8066C44.9707 37.9629 45.1953 38.1543 45.3516 38.3809C45.5117 38.6035 45.5918 38.8906 45.5918 39.2422ZM52.3828 40.9883L51.2402 37.25C51.1895 37.0898 51.1406 36.9336 51.0938 36.7812C51.0508 36.625 51.0098 36.4766 50.9707 36.3359C50.9355 36.1914 50.9023 36.0586 50.8711 35.9375C50.8438 35.8125 50.8203 35.7051 50.8008 35.6152H50.7598C50.7441 35.7051 50.7227 35.8125 50.6953 35.9375C50.668 36.0586 50.6348 36.1914 50.5957 36.3359C50.5605 36.4805 50.5215 36.6328 50.4785 36.793C50.4355 36.9492 50.3867 37.1074 50.332 37.2676L49.1367 40.9883H48.041L46.2715 34.5664H47.2793L48.2051 38.1113C48.2676 38.3457 48.3262 38.5781 48.3809 38.8086C48.4395 39.0352 48.4883 39.25 48.5273 39.4531C48.5703 39.6523 48.6016 39.8262 48.6211 39.9746H48.668C48.6914 39.877 48.7168 39.7598 48.7441 39.623C48.7754 39.4863 48.8086 39.3418 48.8438 39.1895C48.8828 39.0332 48.9238 38.8789 48.9668 38.7266C49.0098 38.5703 49.0527 38.4238 49.0957 38.2871L50.2793 34.5664H51.3281L52.4707 38.2812C52.5293 38.4688 52.5859 38.6641 52.6406 38.8672C52.6992 39.0703 52.752 39.2676 52.7988 39.459C52.8457 39.6465 52.8789 39.8145 52.8984 39.9629H52.9453C52.9609 39.8301 52.9902 39.666 53.0332 39.4707C53.0762 39.2754 53.125 39.0605 53.1797 38.8262C53.2383 38.5918 53.2988 38.3535 53.3613 38.1113L54.2988 34.5664H55.2891L53.5137 40.9883H52.3828ZM61.998 37.7773C61.998 38.3047 61.9297 38.7754 61.793 39.1895C61.6562 39.6035 61.459 39.9531 61.2012 40.2383C60.9434 40.5234 60.6309 40.7422 60.2637 40.8945C59.9004 41.043 59.4883 41.1172 59.0273 41.1172C58.5977 41.1172 58.2031 41.043 57.8438 40.8945C57.4883 40.7422 57.1797 40.5234 56.918 40.2383C56.6602 39.9531 56.459 39.6035 56.3145 39.1895C56.1738 38.7754 56.1035 38.3047 56.1035 37.7773C56.1035 37.0742 56.2227 36.4766 56.4609 35.9844C56.6992 35.4883 57.0391 35.1113 57.4805 34.8535C57.9258 34.5918 58.4551 34.4609 59.0684 34.4609C59.6543 34.4609 60.166 34.5918 60.6035 34.8535C61.0449 35.1152 61.3867 35.4941 61.6289 35.9902C61.875 36.4824 61.998 37.0781 61.998 37.7773ZM57.1113 37.7773C57.1113 38.293 57.1797 38.7402 57.3164 39.1191C57.4531 39.498 57.6641 39.791 57.9492 39.998C58.2344 40.2051 58.6016 40.3086 59.0508 40.3086C59.4961 40.3086 59.8613 40.2051 60.1465 39.998C60.4355 39.791 60.6484 39.498 60.7852 39.1191C60.9219 38.7402 60.9902 38.293 60.9902 37.7773C60.9902 37.2656 60.9219 36.8242 60.7852 36.4531C60.6484 36.0781 60.4375 35.7891 60.1523 35.5859C59.8672 35.3828 59.498 35.2812 59.0449 35.2812C58.377 35.2812 57.8867 35.502 57.5742 35.9434C57.2656 36.3848 57.1113 36.9961 57.1113 37.7773ZM66.5977 34.4609C66.7266 34.4609 66.8613 34.4688 67.002 34.4844C67.1426 34.4961 67.2676 34.5137 67.377 34.5371L67.2539 35.4395C67.1484 35.4121 67.0312 35.3906 66.9023 35.375C66.7734 35.3594 66.6523 35.3516 66.5391 35.3516C66.2812 35.3516 66.0371 35.4043 65.8066 35.5098C65.5801 35.6113 65.3809 35.7598 65.209 35.9551C65.0371 36.1465 64.9023 36.3789 64.8047 36.6523C64.707 36.9219 64.6582 37.2227 64.6582 37.5547V41H63.6797V34.5781H64.4883L64.5938 35.7617H64.6348C64.7676 35.5234 64.9277 35.3066 65.1152 35.1113C65.3027 34.9121 65.5195 34.7539 65.7656 34.6367C66.0156 34.5195 66.293 34.4609 66.5977 34.4609ZM70.875 41.1172C70.0625 41.1172 69.418 40.8398 68.9414 40.2852C68.4688 39.7305 68.2324 38.9062 68.2324 37.8125C68.2324 36.707 68.4746 35.873 68.959 35.3105C69.4434 34.7441 70.0879 34.4609 70.8926 34.4609C71.2324 34.4609 71.5293 34.5059 71.7832 34.5957C72.0371 34.6855 72.2559 34.8066 72.4395 34.959C72.623 35.1074 72.7773 35.2773 72.9023 35.4688H72.9727C72.957 35.3477 72.9414 35.1816 72.9258 34.9707C72.9102 34.7598 72.9023 34.5879 72.9023 34.4551V31.8828H73.875V41H73.0898L72.9434 40.0859H72.9023C72.7812 40.2773 72.627 40.4512 72.4395 40.6074C72.2559 40.7637 72.0352 40.8887 71.7773 40.9824C71.5234 41.0723 71.2227 41.1172 70.875 41.1172ZM71.0273 40.3086C71.7148 40.3086 72.2012 40.1133 72.4863 39.7227C72.7715 39.332 72.9141 38.752 72.9141 37.9824V37.8066C72.9141 36.9902 72.7773 36.3633 72.5039 35.9258C72.2344 35.4883 71.7422 35.2695 71.0273 35.2695C70.4297 35.2695 69.9824 35.5 69.6855 35.9609C69.3887 36.418 69.2402 37.043 69.2402 37.8359C69.2402 38.625 69.3867 39.2344 69.6797 39.6641C69.9766 40.0938 70.4258 40.3086 71.0273 40.3086Z" fill="#00902B"/>
</svg>
