<svg width="20" height="20" viewBox="0 0 20 20" fill="none" xmlns="http://www.w3.org/2000/svg">
<path d="M10 12.5C11.3807 12.5 12.5 11.3807 12.5 10C12.5 8.61929 11.3807 7.5 10 7.5C8.61929 7.5 7.5 8.61929 7.5 10C7.5 11.3807 8.61929 12.5 10 12.5Z" stroke="white" stroke-width="1.5" stroke-miterlimit="10" stroke-linecap="round" stroke-linejoin="round"/>
<path d="M1.66667 10.7333V9.26667C1.66667 8.4 2.37501 7.68333 3.25001 7.68333C4.75834 7.68333 5.37501 6.61667 4.61667 5.30833C4.18334 4.55833 4.44167 3.58333 5.20001 3.15L6.64167 2.325C7.30001 1.93333 8.15001 2.16667 8.54167 2.825L8.63334 2.98333C9.38334 4.29167 10.6167 4.29167 11.375 2.98333L11.4667 2.825C11.8583 2.16667 12.7083 1.93333 13.3667 2.325L14.8083 3.15C15.5667 3.58333 15.825 4.55833 15.3917 5.30833C14.6333 6.61667 15.25 7.68333 16.7583 7.68333C17.625 7.68333 18.3417 8.39167 18.3417 9.26667V10.7333C18.3417 11.6 17.6333 12.3167 16.7583 12.3167C15.25 12.3167 14.6333 13.3833 15.3917 14.6917C15.825 15.45 15.5667 16.4167 14.8083 16.85L13.3667 17.675C12.7083 18.0667 11.8583 17.8333 11.4667 17.175L11.375 17.0167C10.625 15.7083 9.39167 15.7083 8.63334 17.0167L8.54167 17.175C8.15001 17.8333 7.30001 18.0667 6.64167 17.675L5.20001 16.85C4.44167 16.4167 4.18334 15.4417 4.61667 14.6917C5.37501 13.3833 4.75834 12.3167 3.25001 12.3167C2.37501 12.3167 1.66667 11.6 1.66667 10.7333Z" stroke="white" stroke-width="1.5" stroke-miterlimit="10" stroke-linecap="round" stroke-linejoin="round"/>
</svg>
