<svg width="20" height="20" viewBox="0 0 20 20" fill="none" xmlns="http://www.w3.org/2000/svg">
<path d="M15.4167 16.25H12.0834" stroke="white" stroke-linecap="round" stroke-linejoin="round"/>
<path d="M13.75 17.9167V14.5833" stroke="white" stroke-linecap="round" stroke-linejoin="round"/>
<path d="M10.1338 9.05833C10.0504 9.05 9.95045 9.05 9.85878 9.05833C7.87545 8.99167 6.30045 7.36667 6.30045 5.36667C6.29211 3.325 7.95045 1.66667 9.99211 1.66667C12.0338 1.66667 13.6921 3.325 13.6921 5.36667C13.6921 7.36667 12.1088 8.99167 10.1338 9.05833Z" stroke="white" stroke-linecap="round" stroke-linejoin="round"/>
<path d="M9.99084 18.1747C8.47418 18.1747 6.96584 17.7914 5.81584 17.0247C3.79918 15.6747 3.79918 13.4747 5.81584 12.1331C8.10751 10.5997 11.8658 10.5997 14.1575 12.1331" stroke="white" stroke-linecap="round" stroke-linejoin="round"/>
</svg>
