<svg width="80" height="44" viewBox="0 0 90 44" fill="none" xmlns="http://www.w3.org/2000/svg">
<rect x="21" width="24" height="24" rx="12" fill="#E4F8EA"/>
<path d="M39.2664 11.576C39.3663 13.1279 38.8724 14.6597 37.8848 15.8609C36.8971 17.0621 35.4896 17.8428 33.9477 18.0447C32.4058 18.2465 30.8447 17.8545 29.5812 16.948C28.3176 16.0416 27.446 14.6885 27.1431 13.1632C26.8402 11.6379 27.1286 10.0545 27.95 8.73398C28.7713 7.41348 30.0641 6.45472 31.5661 6.0521C33.0682 5.64947 34.6672 5.8331 36.0389 6.56577" stroke="#00902B" stroke-width="1.05" stroke-linecap="round" stroke-linejoin="round"/>
<path d="M38.8152 8L32.5039 14.3116L30.0009 11.8082" stroke="#00902B" stroke-width="1.06229" stroke-linecap="round" stroke-linejoin="round"/>
<path d="M7.38867 32.4336L4.3125 41H3.31055L0.234375 32.4336H1.27734L3.28125 38.0762C3.36328 38.3027 3.43555 38.5195 3.49805 38.7266C3.56445 38.9336 3.62305 39.1328 3.67383 39.3242C3.72461 39.5156 3.76953 39.7012 3.80859 39.8809C3.84766 39.7012 3.89258 39.5156 3.94336 39.3242C3.99414 39.1289 4.05273 38.9277 4.11914 38.7207C4.18555 38.5098 4.25977 38.2891 4.3418 38.0586L6.33398 32.4336H7.38867ZM10.8926 34.4609C11.4395 34.4609 11.9082 34.582 12.2988 34.8242C12.6895 35.0664 12.9883 35.4062 13.1953 35.8438C13.4023 36.2773 13.5059 36.7852 13.5059 37.3672V37.9707H9.07031C9.08203 38.7246 9.26953 39.2988 9.63281 39.6934C9.99609 40.0879 10.5078 40.2852 11.168 40.2852C11.5742 40.2852 11.9336 40.248 12.2461 40.1738C12.5586 40.0996 12.8828 39.9902 13.2188 39.8457V40.7012C12.8945 40.8457 12.5723 40.9512 12.252 41.0176C11.9355 41.084 11.5605 41.1172 11.127 41.1172C10.5098 41.1172 9.9707 40.9922 9.50977 40.7422C9.05273 40.4883 8.69727 40.1172 8.44336 39.6289C8.18945 39.1406 8.0625 38.543 8.0625 37.8359C8.0625 37.1445 8.17773 36.5469 8.4082 36.043C8.64258 35.5352 8.9707 35.1445 9.39258 34.8711C9.81836 34.5977 10.3184 34.4609 10.8926 34.4609ZM10.8809 35.2578C10.3613 35.2578 9.94727 35.4277 9.63867 35.7676C9.33008 36.1074 9.14648 36.582 9.08789 37.1914H12.4863C12.4824 36.8086 12.4219 36.4727 12.3047 36.1836C12.1914 35.8906 12.0176 35.6641 11.7832 35.5039C11.5488 35.3398 11.248 35.2578 10.8809 35.2578ZM18.0762 34.4609C18.2051 34.4609 18.3398 34.4688 18.4805 34.4844C18.6211 34.4961 18.7461 34.5137 18.8555 34.5371L18.7324 35.4395C18.627 35.4121 18.5098 35.3906 18.3809 35.375C18.252 35.3594 18.1309 35.3516 18.0176 35.3516C17.7598 35.3516 17.5156 35.4043 17.2852 35.5098C17.0586 35.6113 16.8594 35.7598 16.6875 35.9551C16.5156 36.1465 16.3809 36.3789 16.2832 36.6523C16.1855 36.9219 16.1367 37.2227 16.1367 37.5547V41H15.1582V34.5781H15.9668L16.0723 35.7617H16.1133C16.2461 35.5234 16.4062 35.3066 16.5938 35.1113C16.7812 34.9121 16.998 34.7539 17.2441 34.6367C17.4941 34.5195 17.7715 34.4609 18.0762 34.4609ZM21.041 34.5781V41H20.0684V34.5781H21.041ZM20.5664 32.1758C20.7266 32.1758 20.8633 32.2285 20.9766 32.334C21.0938 32.4355 21.1523 32.5957 21.1523 32.8145C21.1523 33.0293 21.0938 33.1895 20.9766 33.2949C20.8633 33.4004 20.7266 33.4531 20.5664 33.4531C20.3984 33.4531 20.2578 33.4004 20.1445 33.2949C20.0352 33.1895 19.9805 33.0293 19.9805 32.8145C19.9805 32.5957 20.0352 32.4355 20.1445 32.334C20.2578 32.2285 20.3984 32.1758 20.5664 32.1758ZM25.9629 35.3398H24.3633V41H23.3906V35.3398H22.2539V34.8711L23.3906 34.5488V34.1211C23.3906 33.582 23.4707 33.1445 23.6309 32.8086C23.791 32.4688 24.0234 32.2188 24.3281 32.0586C24.6328 31.8984 25.0039 31.8184 25.4414 31.8184C25.6875 31.8184 25.9121 31.8398 26.1152 31.8828C26.3223 31.9258 26.5039 31.9746 26.6602 32.0293L26.4082 32.7969C26.2754 32.7539 26.125 32.7148 25.957 32.6797C25.793 32.6406 25.625 32.6211 25.4531 32.6211C25.082 32.6211 24.8066 32.7422 24.627 32.9844C24.4512 33.2227 24.3633 33.5977 24.3633 34.1094V34.5781H25.9629V35.3398ZM26.1328 34.5781H27.1758L28.5938 38.3047C28.6758 38.5234 28.752 38.7344 28.8223 38.9375C28.8926 39.1367 28.9551 39.3281 29.0098 39.5117C29.0645 39.6953 29.1074 39.873 29.1387 40.0449H29.1797C29.2344 39.8496 29.3125 39.5938 29.4141 39.2773C29.5156 38.957 29.625 38.6309 29.7422 38.2988L31.084 34.5781H32.1328L29.3379 41.9434C29.1895 42.3379 29.0156 42.6816 28.8164 42.9746C28.6211 43.2676 28.3828 43.4922 28.1016 43.6484C27.8203 43.8086 27.4805 43.8887 27.082 43.8887C26.8984 43.8887 26.7363 43.877 26.5957 43.8535C26.4551 43.834 26.334 43.8105 26.2324 43.7832V43.0039C26.3184 43.0234 26.4219 43.041 26.543 43.0566C26.668 43.0723 26.7969 43.0801 26.9297 43.0801C27.1719 43.0801 27.3809 43.0332 27.5566 42.9395C27.7363 42.8496 27.8906 42.7168 28.0195 42.541C28.1484 42.3652 28.2598 42.1562 28.3535 41.9141L28.7051 41.0117L26.1328 34.5781ZM41.1914 41H36.4219V32.4336H41.1914V33.3125H37.418V36.084H40.9746V36.9512H37.418V40.1211H41.1914V41ZM49.916 34.4609C50.623 34.4609 51.1562 34.6465 51.5156 35.0176C51.875 35.3848 52.0547 35.9766 52.0547 36.793V41H51.0938V36.8398C51.0938 36.3203 50.9805 35.9316 50.7539 35.6738C50.5312 35.4121 50.1992 35.2812 49.7578 35.2812C49.1367 35.2812 48.6855 35.4609 48.4043 35.8203C48.123 36.1797 47.9824 36.709 47.9824 37.4082V41H47.0156V36.8398C47.0156 36.4922 46.9648 36.2031 46.8633 35.9727C46.7656 35.7422 46.6172 35.5703 46.418 35.457C46.2227 35.3398 45.9746 35.2812 45.6738 35.2812C45.248 35.2812 44.9062 35.3691 44.6484 35.5449C44.3906 35.7207 44.2031 35.9824 44.0859 36.3301C43.9727 36.6738 43.916 37.0977 43.916 37.6016V41H42.9434V34.5781H43.7285L43.875 35.4863H43.9277C44.0566 35.2637 44.2188 35.0762 44.4141 34.9238C44.6094 34.7715 44.8281 34.6562 45.0703 34.5781C45.3125 34.5 45.5703 34.4609 45.8438 34.4609C46.332 34.4609 46.7402 34.5527 47.0684 34.7363C47.4004 34.916 47.6406 35.1914 47.7891 35.5625H47.8418C48.0527 35.1914 48.3418 34.916 48.709 34.7363C49.0762 34.5527 49.4785 34.4609 49.916 34.4609ZM56.4551 34.4727C57.2207 34.4727 57.7891 34.6445 58.1602 34.9883C58.5312 35.332 58.7168 35.8809 58.7168 36.6348V41H58.0078L57.8203 40.0508H57.7734C57.5938 40.2852 57.4062 40.4824 57.2109 40.6426C57.0156 40.7988 56.7891 40.918 56.5312 41C56.2773 41.0781 55.9648 41.1172 55.5938 41.1172C55.2031 41.1172 54.8555 41.0488 54.5508 40.9121C54.25 40.7754 54.0117 40.5684 53.8359 40.291C53.6641 40.0137 53.5781 39.6621 53.5781 39.2363C53.5781 38.5957 53.832 38.1035 54.3398 37.7598C54.8477 37.416 55.6211 37.2285 56.6602 37.1973L57.7676 37.1504V36.7578C57.7676 36.2031 57.6484 35.8145 57.4102 35.5918C57.1719 35.3691 56.8359 35.2578 56.4023 35.2578C56.0664 35.2578 55.7461 35.3066 55.4414 35.4043C55.1367 35.502 54.8477 35.6172 54.5742 35.75L54.2754 35.0117C54.5645 34.8633 54.8965 34.7363 55.2715 34.6309C55.6465 34.5254 56.041 34.4727 56.4551 34.4727ZM57.7559 37.8359L56.7773 37.877C55.9766 37.9082 55.4121 38.0391 55.084 38.2695C54.7559 38.5 54.5918 38.8262 54.5918 39.248C54.5918 39.6152 54.7031 39.8867 54.9258 40.0625C55.1484 40.2383 55.4434 40.3262 55.8105 40.3262C56.3809 40.3262 56.8477 40.168 57.2109 39.8516C57.5742 39.5352 57.7559 39.0605 57.7559 38.4277V37.8359ZM61.6934 34.5781V41H60.7207V34.5781H61.6934ZM61.2188 32.1758C61.3789 32.1758 61.5156 32.2285 61.6289 32.334C61.7461 32.4355 61.8047 32.5957 61.8047 32.8145C61.8047 33.0293 61.7461 33.1895 61.6289 33.2949C61.5156 33.4004 61.3789 33.4531 61.2188 33.4531C61.0508 33.4531 60.9102 33.4004 60.7969 33.2949C60.6875 33.1895 60.6328 33.0293 60.6328 32.8145C60.6328 32.5957 60.6875 32.4355 60.7969 32.334C60.9102 32.2285 61.0508 32.1758 61.2188 32.1758ZM64.7344 41H63.7559V31.8828H64.7344V41Z" fill="#00902B"/>
</svg>
